<?xml version="1.0" encoding="UTF-8" standalone="no"?>
<svg width="193px" height="135px" viewBox="0 0 193 135" version="1.1" xmlns="http://www.w3.org/2000/svg" xmlns:xlink="http://www.w3.org/1999/xlink">
    <!-- Generator: Sketch 42 (36781) - http://www.bohemiancoding.com/sketch -->
    <title>Page 1</title>
    <desc>Created with Sketch.</desc>
    <defs>
        <polygon id="path-1" points="0.571501395 0.812 49.1760917 0.812 49.1760917 75.5129817 0.571501395 75.5129817"></polygon>
    </defs>
    <g id="Page-1" stroke="none" stroke-width="1" fill="none" fill-rule="evenodd">
        <g transform="translate(0.000000, -1.000000)">
            <g id="Group-3" transform="translate(36.000000, 0.188000)">
                <mask id="mask-2" fill="white">
                    <use xlink:href="#path-1"></use>
                </mask>
                <g id="Clip-2"></g>
                <path d="M44.0368,19.1025 C45.2628,21.0995 45.2048,23.8605 43.9678,26.8615 C45.3218,27.2575 46.5538,27.9915 47.4778,29.1235 C47.5148,29.1685 47.5488,29.2155 47.5858,29.2605 C49.6648,24.6555 49.7308,20.1575 47.6338,16.7405 C45.4748,13.2225 41.4198,11.3675 36.2148,11.4505 C31.3988,11.5495 26.0768,13.3575 21.2288,16.5415 C17.1258,19.2365 13.8888,22.5425 11.7178,25.9865 L5.1778,2.2925 C4.8808,1.2165 3.7668,0.5865 2.6918,0.8865 L2.0478,1.0655 C0.9758,1.3645 0.3488,2.4735 0.6448,3.5455 L8.3138,31.3275 C8.4948,31.9845 8.6528,32.6465 8.7978,33.3095 C9.5248,36.7855 9.7308,37.4435 9.6458,40.3695 C9.7348,44.0185 9.2938,47.6765 8.3138,51.2255 L2.3168,72.9485 C1.7548,74.9865 4.3078,76.4075 5.7428,74.8545 C5.9518,74.6295 6.1058,74.3585 6.1938,74.0645 L13.3108,50.3195 C14.9168,44.4135 14.9568,38.1965 13.4418,32.2745 C14.7888,28.1565 18.4318,23.5995 23.5118,20.2625 C27.7108,17.5045 32.2518,15.9405 36.2998,15.8575 C39.9758,15.7805 42.7068,16.9345 44.0368,19.1025" id="Fill-1" fill="#221F20" mask="url(#mask-2)"></path>
            </g>
            <polygon id="Fill-4" fill="#221F20" points="146.7906 77.7688 139.7086 75.2708 139.7226 71.0638 151.9316 75.3708"></polygon>
            <polygon id="Fill-6" fill="#221F20" points="153.5818 74.9429 140.9508 70.4879 141.1118 65.8129 159.3598 72.5449"></polygon>
            <polygon id="Fill-8" fill="#221F20" points="160.5193 71.5765 141.5743 64.8945 144.1093 60.9405 165.6603 68.5425"></polygon>
            <polygon id="Fill-10" fill="#221F20" points="167.5462 67.4986 136.6152 56.8306 136.8302 54.8626 174.7182 67.9846"></polygon>
            <polygon id="Fill-12" fill="#221F20" points="136.8306 60.4615 43.0836 25.8615 42.4476 18.0665 135.2236 52.3085"></polygon>
            <polygon id="Fill-14" fill="#221F20" points="134.8761 50.5301 40.5871 15.7301 39.9511 6.8471 132.7261 41.0881"></polygon>
            <polygon id="Fill-16" fill="#221F20" points="139.7089 68.8473 45.1739 33.9573 44.5379 28.1623 137.3139 62.4033"></polygon>
            <polygon id="Fill-18" fill="#221F20" points="140.9478 76.6414 48.1728 42.3994 46.9008 36.6044 139.6758 70.8464"></polygon>
            <polygon id="Fill-20" fill="#221F20" points="144.9464 83.4648 49.6264 48.2858 49.6264 44.6998 142.4024 78.9418"></polygon>
            <path d="M180.8785,87.1255 L175.6895,67.6975 C179.1135,62.1875 179.6845,56.5595 177.1785,52.4755 C175.0195,48.9575 170.9635,47.1025 165.7595,47.1855 C160.9435,47.2845 155.6205,49.0925 150.7725,52.2765 C146.6695,54.9715 143.4325,58.2775 141.2625,61.7215 L134.7215,38.0275 C134.4245,36.9515 133.3105,36.3215 132.2355,36.6215 L131.5915,36.8005 C130.5205,37.0995 129.8925,38.2085 130.1885,39.2805 L137.8575,67.0635 C138.0395,67.7205 138.1975,68.3815 138.3415,69.0455 C137.9295,71.5665 138.1845,73.9825 139.1905,76.1055 C139.2785,79.7535 138.8375,83.4115 137.8575,86.9605 L131.8615,108.6835 C131.2985,110.7215 133.8515,112.1425 135.2865,110.5905 C135.4955,110.3645 135.6495,110.0945 135.7385,109.7995 L142.8545,86.0545 C144.4605,80.1485 144.5015,73.9315 142.9865,68.0095 C144.3325,63.8925 147.9765,59.3345 153.0565,55.9975 C157.2555,53.2405 161.7965,51.6755 165.8435,51.5925 C169.5205,51.5155 172.2505,52.6705 173.5805,54.8375 C175.2745,57.5975 174.5295,61.8115 171.5895,66.1115 C171.4345,66.3365 171.3335,66.5825 171.2705,66.8355 L177.1685,88.2305 C177.2535,88.5215 177.4015,88.7895 177.6005,89.0125 C178.9745,90.5495 181.4165,89.1425 180.8785,87.1255" id="Fill-22" fill="#221F20"></path>
            <path d="M141.5742,85.0691 C140.2672,85.0691 138.3202,80.2421 140.0652,79.4091 L171.7302,64.3021 C172.1662,64.0951 173.5212,62.8161 174.2062,60.4611 C174.7932,58.4471 176.0532,68.9961 174.7442,69.6211 L143.0792,84.7271 C142.5932,84.9591 142.0802,85.0691 141.5742,85.0691" id="Fill-24" fill="#221F20"></path>
            <polygon id="Fill-26" opacity="0.1" fill="#221F20" points="86.2165 135.188 0.0005 94.936 85.5075 54.863 89.7235 56.405 68.6485 74.416 127.3985 95.91 172.0065 86.509 178.2955 88.81"></polygon>
            <g id="Group-31" transform="translate(126.000000, 102.188000)">
                <path d="M12.6718,10.2074 C13.0798,8.0744 14.1008,6.9844 16.7708,4.7104 C13.7058,5.1734 12.4098,6.1984 11.1768,8.2974 C10.5918,5.5774 10.0058,2.8584 9.4208,0.1394 C8.6338,2.9634 8.3808,5.8304 8.6668,8.6814 C7.7338,6.9714 6.3768,5.3274 4.6408,3.8054 C3.7818,3.0524 1.9108,2.2564 0.7228,2.8694 C3.1338,5.0594 7.2418,7.7054 6.4438,10.2074" id="Fill-28" fill="#1D7F3F"></path>
                <path d="M12.6718,10.2074 C13.0798,8.0744 14.1008,6.9844 16.7708,4.7104 C13.7058,5.1734 12.4098,6.1984 11.1768,8.2974 C10.5918,5.5774 10.0058,2.8584 9.4208,0.1394 C8.6338,2.9634 8.3808,5.8304 8.6668,8.6814 C7.7338,6.9714 6.3768,5.3274 4.6408,3.8054 C3.7818,3.0524 1.9108,2.2564 0.7228,2.8694 C3.1338,5.0594 7.2418,7.7054 6.4438,10.2074" id="Stroke-30" stroke="#221F20" stroke-linecap="round" stroke-linejoin="round"></path>
            </g>
            <g id="Group-35" transform="translate(30.000000, 67.188000)">
                <path d="M6.6599,10.109 C5.4929,7.501 3.5219,4.995 0.8519,2.722 C3.3129,4.487 5.2129,6.475 6.4459,8.573 C7.0319,5.854 7.6169,3.135 8.2019,0.416 C8.9899,3.24 9.2429,6.107 8.9559,8.958 C9.8889,7.248 11.2459,5.604 12.9819,4.081 C13.8409,3.328 15.7119,2.533 16.8999,3.146 C14.4889,5.335 13.5799,7.982 14.3779,10.484" id="Fill-32" fill="#1D7F3F"></path>
                <path d="M6.6599,10.109 C5.4929,7.501 3.5219,4.995 0.8519,2.722 C3.3129,4.487 5.2129,6.475 6.4459,8.573 C7.0319,5.854 7.6169,3.135 8.2019,0.416 C8.9899,3.24 9.2429,6.107 8.9559,8.958 C9.8889,7.248 11.2459,5.604 12.9819,4.081 C13.8409,3.328 15.7119,2.533 16.8999,3.146 C14.4889,5.335 13.5799,7.982 14.3779,10.484" id="Stroke-34" stroke="#221F20" stroke-linecap="round" stroke-linejoin="round"></path>
            </g>
            <g id="Group-39" transform="translate(169.000000, 78.188000)">
                <path d="M4.5632,12.833 C3.1342,10.085 1.6832,7.348 0.2112,4.623 C1.4362,6.244 2.6612,7.864 3.8862,9.485 C4.3552,6.607 4.8262,3.706 4.7302,0.791 C4.1172,2.959 4.3732,5.36 5.4302,7.35 C5.5502,7.576 5.7002,7.813 5.9432,7.894 C6.6442,8.128 7.0822,6.914 7.8212,6.91 C7.8812,7.699 7.9402,8.488 8.0002,9.277 C8.0182,9.515 8.1012,9.821 8.3392,9.835 C8.5092,9.844 8.6352,9.688 8.7712,9.586 C9.2952,9.195 10.1022,9.647 10.3052,10.269 C10.5082,10.89 10.3042,11.563 10.1012,12.185 C12.7062,12.677 15.9962,12.54 18.0842,10.905 C19.2802,9.968 17.7482,12.665 17.9552,12.109 C19.2272,12.785 22.2622,13.06 23.6972,12.946" id="Fill-36" fill="#1D7F3F"></path>
                <path d="M4.5632,12.833 C3.1342,10.085 1.6832,7.348 0.2112,4.623 C1.4362,6.244 2.6612,7.864 3.8862,9.485 C4.3552,6.607 4.8262,3.706 4.7302,0.791 C4.1172,2.959 4.3732,5.36 5.4302,7.35 C5.5502,7.576 5.7002,7.813 5.9432,7.894 C6.6442,8.128 7.0822,6.914 7.8212,6.91 C7.8812,7.699 7.9402,8.488 8.0002,9.277 C8.0182,9.515 8.1012,9.821 8.3392,9.835 C8.5092,9.844 8.6352,9.688 8.7712,9.586 C9.2952,9.195 10.1022,9.647 10.3052,10.269 C10.5082,10.89 10.3042,11.563 10.1012,12.185 C12.7062,12.677 15.9962,12.54 18.0842,10.905 C19.2802,9.968 17.7482,12.665 17.9552,12.109 C19.2272,12.785 22.2622,13.06 23.6972,12.946" id="Stroke-38" stroke="#221F20" stroke-linecap="round" stroke-linejoin="round"></path>
            </g>
        </g>
    </g>
</svg>
