<?xml version="1.0" encoding="UTF-8" standalone="no"?>
<svg width="82px" height="172px" viewBox="0 0 82 172" version="1.1" xmlns="http://www.w3.org/2000/svg" xmlns:xlink="http://www.w3.org/1999/xlink">
    <!-- Generator: Sketch 42 (36781) - http://www.bohemiancoding.com/sketch -->
    <title>diamond</title>
    <desc>Created with Sketch.</desc>
    <defs></defs>
    <g id="Page-1" stroke="none" stroke-width="1" fill="none" fill-rule="evenodd">
        <g id="diamond" transform="translate(-32.000000, -29.000000)">
            <g transform="translate(33.000000, 30.000000)">
                <g>
                    <polygon id="Fill-1" fill="#FEFEFE" points="11.537 7.9113 29.228 0.0003 50.402 0.0003 68.093 7.9113 53.601 17.6393 26.029 17.6393"></polygon>
                    <polygon id="Stroke-2" stroke="#221F20" stroke-width="2" stroke-linejoin="round" points="11.537 7.9113 29.228 0.0003 50.402 0.0003 68.093 7.9113 53.601 17.6393 26.029 17.6393"></polygon>
                    <polygon id="Fill-4" fill="#FEFEFE" points="74.2725 25.1537 74.2725 25.1537 53.6015 17.6387 68.0935 7.8077"></polygon>
                    <polygon id="Stroke-5" stroke="#221F20" stroke-width="2" stroke-linejoin="round" points="74.2725 25.1537 74.2725 25.1537 53.6015 17.6387 68.0935 7.8077"></polygon>
                    <polygon id="Fill-6" fill="#A4DDF1" points="53.6014 17.639 61.6244 31.328 74.2724 25.154"></polygon>
                    <polygon id="Stroke-7" stroke="#221F20" stroke-width="2" stroke-linejoin="round" points="53.6014 17.639 61.6244 31.328 74.2724 25.154"></polygon>
                    <polygon id="Fill-8" fill="#FEFEFE" points="68.0931 7.8073 79.6301 21.8653 74.2721 25.1533"></polygon>
                    <polygon id="Stroke-9" stroke="#221F20" stroke-width="2" stroke-linejoin="round" points="68.0931 7.8073 79.6301 21.8653 74.2721 25.1533"></polygon>
                    <polygon id="Fill-11" fill="#79D0E9" points="5.3576 25.1537 5.3576 25.1537 26.0286 17.6387 11.5366 7.8077"></polygon>
                    <polygon id="Stroke-12" stroke="#221F20" stroke-width="2" stroke-linejoin="round" points="5.3576 25.1537 5.3576 25.1537 26.0286 17.6387 11.5366 7.8077"></polygon>
                    <polygon id="Fill-13" fill="#3A84C5" points="26.0287 17.639 18.0057 31.328 5.3577 25.154"></polygon>
                    <polygon id="Stroke-14" stroke="#221F20" stroke-width="2" stroke-linejoin="round" points="26.0287 17.639 18.0057 31.328 5.3577 25.154"></polygon>
                    <polygon id="Fill-15" fill="#2269B3" points="11.537 7.8073 0 21.8653 5.358 25.1533"></polygon>
                    <polygon id="Stroke-16" stroke="#221F20" stroke-width="2" stroke-linejoin="round" points="11.537 7.8073 0 21.8653 5.358 25.1533"></polygon>
                    <polygon id="Fill-18" fill="#A4DDF1" points="39.9128 31.3276 61.8198 31.3276 53.6018 17.6386"></polygon>
                    <polygon id="Stroke-19" stroke="#221F20" stroke-width="2" stroke-linejoin="round" points="39.9128 31.3276 61.8198 31.3276 53.6018 17.6386"></polygon>
                    <polygon id="Fill-20" fill="#A4DDF1" points="39.9128 17.639 26.2238 17.639 39.9128 31.328 53.6018 17.639"></polygon>
                    <polygon id="Stroke-21" stroke="#221F20" stroke-width="2" stroke-linejoin="round" points="39.9128 17.639 26.2238 17.639 39.9128 31.328 53.6018 17.639"></polygon>
                    <polygon id="Fill-22" fill="#79D0E9" points="39.9128 31.3276 18.0058 31.3276 26.2238 17.6386"></polygon>
                    <polygon id="Stroke-23" stroke="#221F20" stroke-width="2" stroke-linejoin="round" points="39.9128 31.3276 18.0058 31.3276 26.2238 17.6386"></polygon>
                    <polyline id="Fill-24" fill="#3A84C5" points="39.9128 58.1847 18.0058 31.3277 39.9128 31.3277"></polyline>
                    <polyline id="Stroke-25" stroke="#221F20" stroke-width="2" stroke-linejoin="round" points="39.9128 58.1847 18.0058 31.3277 39.9128 31.3277"></polyline>
                    <polyline id="Fill-27" fill="#5DA8DD" points="39.9128 58.1847 61.8198 31.3277 39.9128 31.3277"></polyline>
                    <polyline id="Stroke-28" stroke="#221F20" stroke-width="2" stroke-linejoin="round" points="39.9128 58.1847 61.8198 31.3277 39.9128 31.3277"></polyline>
                    <polygon id="Fill-30" fill="#A4DDF1" points="61.6239 31.3276 39.9129 58.1846 79.6299 21.8656"></polygon>
                    <polygon id="Stroke-31" stroke="#221F20" stroke-width="2" stroke-linejoin="round" points="61.6239 31.3276 39.9129 58.1846 79.6299 21.8656"></polygon>
                    <polygon id="Fill-33" fill="#2269B3" points="18.0061 31.3276 39.9131 58.1846 0.0001 21.8656"></polygon>
                    <polygon id="Stroke-34" stroke="#221F20" stroke-width="2" stroke-linejoin="round" points="18.0061 31.3276 39.9131 58.1846 0.0001 21.8656"></polygon>
                    <path d="M39.9128,58.1847 L39.9128,31.3277" id="Stroke-36" stroke="#221F20" stroke-width="2" stroke-linejoin="round"></path>
                </g>
            </g>

        </g>
        <path d="M57.3656,166.3276 C57.3656,168.8406 49.5076,170.8776 39.8146,170.8776 C30.1226,170.8776 22.2646,168.8406 22.2646,166.3276 C22.2646,163.8146 30.1226,161.7776 39.8146,161.7776 C49.5076,161.7776 57.3656,163.8146 57.3656,166.3276" id="shadow" opacity="0.2" fill="#221F20"></path>
    </g>

    <style>
      @-webkit-keyframes diamond {
        0%, 100% { -webkit-transform: translate(-32px, -29px); transform: translate(-32px, -29px);}
        50% { -webkit-transform: translate(-32px, -15px); transform: translate(-32px, -15px);}
      }

      @keyframes diamond {
        0%, 100% { -webkit-transform: translate(-32px, -29px); transform: translate(-32px, -29px);}
        50% { -webkit-transform: translate(-32px, -15px); transform: translate(-32px, -15px);}
      }

      #diamond {
      	-webkit-animation: diamond 5s cubic-bezier(0.645, 0.045, 0.355, 1) infinite;
      	        animation: diamond 5s cubic-bezier(0.645, 0.045, 0.355, 1) infinite;
      }

      @-webkit-keyframes shadow {
        0%, 100% { -webkit-transform: scale(0.7, 0.9); transform: scale(0.7, 0.9); opacity: 0.1; }
        50% {-webkit-transform: scale(1, 0.9);transform: scale(1, 0.9); opacity: 0.3; }
      }

      @keyframes shadow {
        0%, 100% { -webkit-transform: scale(0.7, 0.9); transform: scale(0.7, 0.9); opacity: 0.1; }
        50% {-webkit-transform: scale(1, 0.9);transform: scale(1, 0.9); opacity: 0.3; }
      }

      #shadow {
        -webkit-transform-origin: 50% 50%;
                transform-origin: 50% 50%;
        -webkit-animation: shadow 5s cubic-bezier(0.645, 0.045, 0.355, 1) infinite;
                animation: shadow 5s cubic-bezier(0.645, 0.045, 0.355, 1) infinite;
      }
    </style>
</svg>
