<?xml version="1.0" encoding="UTF-8" standalone="no"?>
<svg width="131px" height="172px" viewBox="0 0 131 172" version="1.1" xmlns="http://www.w3.org/2000/svg" xmlns:xlink="http://www.w3.org/1999/xlink">
    <!-- Generator: Sketch 42 (36781) - http://www.bohemiancoding.com/sketch -->
    <title>Page 1</title>
    <desc>Created with Sketch.</desc>
    <defs>
        <polygon id="path-1" points="0.710245105 0.589 48.6874654 0.589 48.6874654 42.5218097 0.710245105 42.5218097 0.710245105 0.589"></polygon>
        <polygon id="path-3" points="23.5305914 32 0.41711297 32 0.41711297 0.643246216 23.5305914 0.643246216"></polygon>
    </defs>
    <g id="Page-1" stroke="none" stroke-width="1" fill="none" fill-rule="evenodd">
        <g transform="translate(0.000000, -1.000000)">
            <path d="M45.6261,113.6032 L0.8361,131.4202 C-0.6419,132.0072 0.0031,134.4262 1.5001,133.8302 C16.4301,127.8912 31.3601,121.9532 46.2911,116.0142 C47.7681,115.4262 47.1241,113.0072 45.6261,113.6032" id="Fill-1" fill="#3B2314"></path>
            <path d="M76.155,118.7061 C93.686,125.7681 111.216,132.8291 128.747,139.8911 C130.239,140.4921 130.887,138.0751 129.411,137.4801 C111.881,130.4191 94.35,123.3571 76.82,116.2951 C75.328,115.6941 74.679,118.1111 76.155,118.7061" id="Fill-3" fill="#3B2314"></path>
            <path d="M72.5874,107.8846 C72.2274,108.6726 71.6014,109.3166 70.8914,109.8116 C69.6204,110.6986 68.0974,111.1326 66.6064,111.5526 C64.4454,112.1606 62.2854,112.7686 60.1254,113.3766 C59.7174,113.4916 59.2944,113.6146 58.9794,113.8966 C57.9414,114.8276 58.7124,116.1976 58.8754,117.2876 C59.1174,118.8976 59.0754,120.6106 59.1974,122.2366 C59.6364,128.0616 60.1214,135.5846 57.9744,141.1456 C56.9904,143.6966 54.9114,143.0966 53.3744,141.2506 C51.3674,138.8386 50.7514,136.0146 50.9264,132.9696 C51.3024,126.4446 50.9934,119.8806 50.0084,113.4206" id="Fill-5" opacity="0.4" fill="#221F20"></path>
            <path d="M36.8667,45.469 C37.6967,45.611 38.3517,46.228 38.9607,46.809 C41.1887,48.934 43.4527,52.068 46.8297,51.602 C47.0787,51.568 47.3367,51.518 47.5787,51.588 C47.8727,51.672 48.0887,51.915 48.2877,52.147 C48.6587,52.577 49.0287,53.007 49.3997,53.438 C49.9997,54.135 50.6417,55.028 50.3287,55.893 C50.2167,56.204 49.9917,56.459 49.7907,56.721 C49.1707,57.528 48.7327,58.475 48.5187,59.47 C48.1047,61.399 49.2187,63.61 50.3717,65.117 C50.9047,65.813 51.5477,66.451 52.3437,66.819 C53.4027,67.308 54.6477,67.275 55.7647,66.935 C56.8807,66.596 57.8887,65.973 58.8467,65.307 C60.9777,63.826 62.9347,62.095 64.6677,60.164 C65.4877,59.25 66.5247,58.219 67.0947,57.123 C67.5017,56.339 67.4497,56.392 66.8617,55.691 C66.5077,55.269 66.1597,54.841 65.8297,54.4 C63.0787,50.714 61.7547,46.402 62.1537,41.804 C62.6867,35.68 67.4847,34.302 69.4057,28.897 C71.9557,21.72 60.5987,10.611 54.8677,7.63 C49.0817,4.62 41.6527,6.634 35.1347,6.409 C33.7447,6.361 31.4647,8.897 30.4817,10.393 C29.2847,12.216 30.0557,13.092 31.2037,13.235 C29.2637,13.12 31.0717,12.091 32.6217,11.966 C33.8047,11.871 36.8647,13.622 32.9687,13.034 C31.6287,12.832 31.3297,10.727 31.2807,12.082 C31.2227,13.716 31.4317,13.802 32.3177,14.696 C33.3157,15.702 32.0007,14.912 31.2967,15.85 C31.1437,16.055 30.9897,16.26 30.8367,16.465 C30.0907,17.459 29.3187,18.518 29.1827,19.754" id="Fill-7" fill="#987052"></path>
            <g id="Group-12" transform="translate(35.000000, 137.411000)">
                <path d="M17.0006,0.3284 C18.0426,2.0284 19.0856,3.7294 20.1276,5.4294 C20.4516,5.9584 20.7846,6.5144 20.8226,7.1334 C20.8526,7.6284 20.6906,8.1114 20.5296,8.5804 C19.2056,12.4514 17.8816,16.3234 16.5576,20.1944 C15.7806,22.4674 14.9546,24.8204 13.2746,26.5374 C9.6956,30.1954 0.7866,29.6784 0.5176,23.4304 C0.4506,21.8744 0.8976,20.3474 1.3396,18.8544 C1.8756,17.0424 2.4126,15.2314 2.9486,13.4204 C3.3336,12.1224 3.7216,10.8024 3.7246,9.4494 C3.7286,8.0954 3.2956,6.6784 2.2766,5.7874" id="Fill-9" fill="#FEFEFE"></path>
                <path d="M17.0006,0.3284 C18.0426,2.0284 19.0856,3.7294 20.1276,5.4294 C20.4516,5.9584 20.7846,6.5144 20.8226,7.1334 C20.8526,7.6284 20.6906,8.1114 20.5296,8.5804 C19.2056,12.4514 17.8816,16.3234 16.5576,20.1944 C15.7806,22.4674 14.9546,24.8204 13.2746,26.5374 C9.6956,30.1954 0.7866,29.6784 0.5176,23.4304 C0.4506,21.8744 0.8976,20.3474 1.3396,18.8544 C1.8756,17.0424 2.4126,15.2314 2.9486,13.4204 C3.3336,12.1224 3.7216,10.8024 3.7246,9.4494 C3.7286,8.0954 3.2956,6.6784 2.2766,5.7874" id="Stroke-11" stroke="#221F20"></path>
            </g>
            <path d="M54.7931,149.6927 C53.5641,147.3167 50.7291,145.5627 47.6261,145.2577 C48.2371,146.3517 48.1601,147.6217 47.9141,148.8097 C47.1131,152.6717 43.4421,157.5937 46.0471,161.4857 C46.4991,162.1617 47.1331,162.7467 47.8371,163.2537" id="Fill-13" fill="#861619"></path>
            <path d="M54.1447,144.3527 C53.4747,146.5767 52.8027,148.8027 51.9997,150.9827 C51.5697,152.1457 51.1027,153.2707 50.7727,154.4627 C50.6357,154.9567 50.4237,155.4297 50.1467,155.8607 C49.9507,156.1637 49.7067,156.4597 49.3677,156.5847 C48.8577,156.7747 48.2587,156.5047 47.9387,156.0637 C47.6187,155.6227 47.5327,155.0517 47.5457,154.5067 C47.5527,154.2297 47.4857,153.6997 47.7897,153.6307 C47.8337,153.9437 47.8927,154.2557 48.0667,154.5287 C48.1177,154.6097 48.1827,154.6907 48.2747,154.7207 C48.4847,154.7897 48.6667,154.5667 48.7747,154.3737 C49.7877,152.5547 50.7817,150.6677 51.4627,148.7067 C52.1657,146.6817 52.8217,144.6087 53.9747,142.7837" id="Fill-15" fill="#221F20"></path>
            <path d="M50.9212,138.3703 C52.5582,141.0413 54.6332,143.2803 54.0412,146.4883 C53.5832,148.9633 52.3062,151.5603 51.4872,153.9553 C49.7512,159.0313 47.9912,165.7073 41.3152,164.8983 C33.8302,163.9913 38.1402,155.0773 39.3402,150.5113 C40.1592,147.3923 40.2002,144.8833 38.1602,142.3143 C37.1602,141.0553 35.4022,142.8343 36.3932,144.0823 C40.8572,149.7053 31.1832,157.9833 35.3112,164.2533 C37.3252,167.3133 41.5732,167.9893 44.8992,167.1403 C50.1852,165.7903 51.7312,160.9273 53.3302,156.2783 C54.4102,153.1383 57.1312,148.2763 57.0282,144.8773 C56.9422,142.0453 54.4992,139.4243 53.0802,137.1083 C52.2402,135.7393 50.0772,136.9933 50.9212,138.3703" id="Fill-17" fill="#221F20"></path>
            <path d="M50.3669,96.3262 C45.5249,97.2992 40.8559,99.7682 37.4509,103.3642 C36.0879,104.8052 34.4659,106.7012 34.0059,108.6682 C33.3379,111.5222 34.2249,115.2432 34.5809,118.1042 C35.3159,124.0222 36.0519,129.9392 36.7869,135.8572 C36.9979,137.5582 36.9269,140.5542 38.6089,141.6292 C40.3509,142.7432 43.1199,141.3732 45.0689,141.6722 C45.9689,141.8102 46.8579,142.1262 47.7649,142.0502 C50.2819,141.8402 51.3359,138.6952 51.4229,136.5682 C51.4929,134.8442 51.6529,133.0492 51.7459,131.2882 C52.0659,125.2342 50.8769,119.2392 50.9049,113.1392 C54.5079,113.1302 57.5619,113.1512 61.0289,112.1402 C64.4069,111.1552 67.7449,110.0002 70.9339,108.5042 C72.5769,107.7332 74.2659,106.9282 75.4769,105.5772 C77.9479,102.8222 77.7679,98.6692 77.4429,94.9822 C77.4149,94.6582 77.3579,94.2852 77.0789,94.1162 C76.8009,93.9472 76.3369,94.2952 76.5459,94.5452" id="Fill-19" fill="#83969F"></path>
            <path d="M50.0346,95.1209 C42.9386,96.7719 33.2506,101.9719 32.5416,110.1599 C32.0716,115.5919 33.7666,121.6089 34.4336,126.9809 C34.9416,131.0619 34.6016,136.6769 36.2936,140.5149 C37.3616,142.9369 38.9716,143.1879 41.4066,143.2449 C44.5016,143.3169 48.9406,144.1769 51.1176,141.3579 C53.1866,138.6799 52.8706,134.4289 52.9966,131.2889 C53.2396,125.2219 52.2386,119.1999 52.1546,113.1399 L50.9046,114.3899 C58.7906,114.3579 67.2256,112.6479 73.9986,108.3379 C78.5036,105.4709 80.3716,98.7509 78.2846,93.7839 C78.0916,93.3249 77.6596,92.7919 77.0796,92.8659 C76.9296,92.8849 76.7796,92.9049 76.6296,92.9239 C76.0966,92.9919 75.5556,93.2619 75.4246,93.8409 C75.3966,93.9649 75.3686,94.0889 75.3406,94.2129 C74.9866,95.7799 77.3966,96.4489 77.7516,94.8779 L76.3036,96.3829 C76.3256,96.8579 76.3476,97.3319 76.3706,97.8059 C76.0606,99.5209 76.3696,101.0879 75.6346,102.7529 C74.1836,106.0419 70.5206,107.4399 67.3666,108.6869 C61.9596,110.8259 56.7296,111.8659 50.9046,111.8899 C50.2366,111.8919 49.6456,112.4599 49.6546,113.1399 C49.7516,120.1159 50.7546,126.9519 50.3266,133.9409 C50.1396,137.0019 50.6176,137.8539 47.6476,139.3419 C45.1806,140.5769 45.8186,140.3119 43.8156,140.4099 C41.8236,140.5079 39.8746,141.7709 38.3516,138.6459 C38.0256,137.9749 37.8776,134.5869 37.7926,133.8849 C36.9676,127.0789 35.6986,120.2149 35.1596,113.3839 C34.4626,104.5449 43.0406,99.3129 50.6996,97.5319 C52.2656,97.1669 51.6026,94.7559 50.0346,95.1209" id="Fill-21" fill="#221F20"></path>
            <path d="M35.0271,138.2542 C34.8501,137.4412 34.6731,136.6292 34.4961,135.8162 C34.2111,134.5112 35.4451,134.5732 36.4201,134.3602 C37.6621,134.0902 38.9161,133.8632 40.1881,133.8022 C41.7571,133.7272 45.3701,133.8392 46.2271,135.5242 C46.5881,136.2352 46.1411,137.4242 46.0131,138.1472 C45.7921,139.3982 45.5551,140.6512 45.5271,141.9262 C45.4771,144.1782 46.0381,146.3762 46.0051,148.6172 C45.9831,150.1202 45.4961,151.5722 45.0131,152.9952 C44.2511,155.2412 43.4891,157.4862 42.7281,159.7322 C42.4781,160.4672 42.2131,161.2292 41.6741,161.7872 C41.1341,162.3452 40.2351,162.6372 39.5621,162.2492 C39.0701,161.9652 38.8141,161.4012 38.6611,160.8542 C37.5281,156.8132 40.1871,152.8962 39.7121,148.8452 C39.2701,145.0752 35.8481,142.0202 35.0271,138.2542" id="Fill-23" fill="#221F20"></path>
            <path d="M48.3343,33.2679 C49.8033,32.5899 50.6113,35.0019 48.9553,35.4289 C47.3983,35.8299 48.0583,38.2419 49.6193,37.8399 C51.6513,37.3159 52.9453,35.0649 52.2303,33.0579 C51.4793,30.9529 48.9883,30.2249 47.0723,31.1089 C45.6133,31.7829 46.8823,33.9389 48.3343,33.2679" id="Fill-25" fill="#221F20"></path>
            <path d="M68.3955,55.5471 C63.9785,50.4141 61.0745,42.8311 65.5335,36.7661 C67.5785,33.9841 70.3275,31.5701 70.9035,27.9801 C72.0475,20.8391 64.8855,13.6041 59.8895,9.5581 C52.8125,3.8271 44.5955,4.4011 35.8945,5.1661 C32.3765,5.4761 24.9415,12.5191 30.8715,14.4401 C31.0935,13.6361 31.3145,12.8331 31.5365,12.0291 C31.2645,11.9531 30.9935,11.8761 30.7215,11.8001 C30.9705,12.4121 31.2195,13.0241 31.4685,13.6361 C31.7975,12.7571 32.1265,11.8791 32.4565,11.0001 C31.8665,10.2311 30.4185,10.1321 30.1715,11.2981 C29.7055,13.4981 30.3335,15.1471 32.4655,15.7801 C34.0105,16.2391 34.6705,13.8271 33.1295,13.3691 C32.9475,12.9001 32.7645,12.4321 32.5825,11.9631 C31.8205,12.0621 31.0585,12.1621 30.2975,12.2621 C31.6255,13.9921 32.8955,14.6311 35.1425,14.2681 C35.7295,14.1731 35.9955,13.5711 36.0605,13.0631 C36.4535,9.9901 30.3795,10.3791 29.3095,12.3741 C28.9295,13.0851 29.2575,13.9861 30.0565,14.2111 C30.3285,14.2871 30.5995,14.3631 30.8715,14.4401 C32.4295,14.8781 33.0595,12.5231 31.5365,12.0291 C31.3615,11.0071 31.7495,10.1871 32.6995,9.5681 C33.6415,8.3361 34.9595,7.7041 36.6535,7.6741 C38.6225,7.3201 40.9085,7.4451 42.9145,7.3381 C47.1135,7.1131 51.1585,7.0391 54.9815,9.1231 C60.2475,11.9941 66.6145,18.4211 68.1595,24.3411 C69.9175,31.0751 61.7505,35.0261 60.9485,41.4721 C60.1945,47.5391 62.7605,52.8201 66.6275,57.3151 C67.6785,58.5361 69.4405,56.7611 68.3955,55.5471" id="Fill-27" fill="#221F20"></path>
            <path d="M53.0911,50.0953 C48.9921,50.4423 45.2141,52.2693 41.5151,53.9633 C38.7961,55.2083 36.3711,55.9013 33.5891,54.3433 C30.6181,52.6793 26.4291,46.5093 26.0621,43.1153 C25.6511,39.2933 28.9581,36.6153 29.7891,33.1193 C30.4601,30.2993 27.3721,29.1903 27.0161,26.8663 C26.2001,21.5323 28.8861,12.4873 35.3661,16.5043 C36.0101,16.9023 36.2771,17.6023 36.9061,17.9753 C37.5921,18.3833 38.6971,18.4783 39.4731,18.6243 C41.3091,18.9693 43.1871,19.1143 44.9791,19.6723 C46.5971,20.1763 48.1001,21.0023 49.5051,21.9503 C50.7601,22.7973 51.9611,23.7613 52.8581,24.9813 C54.8101,27.6393 55.0891,31.1913 54.6671,34.4613 C54.3731,36.7323 53.9911,39.4353 55.3891,41.4473 C56.4591,42.9883 59.2401,43.8173 60.6121,42.2223" id="Fill-29" fill="#987052"></path>
            <path d="M52.7588,48.8899 C47.5958,49.5869 38.7678,55.4979 34.2308,53.0509 C29.8818,50.7049 26.3128,44.4469 28.0498,39.6959 C29.1118,36.7889 32.0148,34.0589 30.7998,30.7209 C30.3348,29.4409 29.2848,28.4809 28.7558,27.2099 C27.8458,25.0269 27.9528,22.2789 28.9898,20.0749 C29.6238,18.7279 29.5928,18.4179 31.0378,17.5749 C33.3538,16.2229 34.0468,18.0059 36.0218,18.8599 C37.3428,19.4299 38.6208,19.7399 40.0638,19.9799 C47.3548,21.1939 53.9408,24.6569 53.5518,33.0459 C53.4108,36.0819 52.3508,39.6969 54.5048,42.3309 C56.2608,44.4789 59.0318,44.8559 61.2428,43.3019 C62.5498,42.3839 61.3018,40.2159 59.9818,41.1429 C56.5868,40.1969 55.1738,38.4389 55.7448,35.8669 C55.8018,35.3989 55.8598,34.9299 55.9168,34.4619 C56.0328,32.9629 56.1548,31.5319 55.9748,30.0279 C55.7218,27.9169 55.0968,25.9589 53.8398,24.2239 C52.2608,22.0459 49.6018,20.2899 47.1908,19.1969 C44.4038,17.9339 41.1948,18.3429 38.4888,17.1929 C35.5508,15.9439 33.5548,12.9999 29.9948,14.8429 C27.0828,16.3509 26.0058,20.2569 25.7198,23.2449 C25.5618,24.8889 25.4998,26.7269 26.1748,28.2779 C26.4438,28.8949 27.0008,29.3239 27.2698,29.9059 C28.8018,33.2189 27.6918,34.7849 26.3808,37.3639 C24.4748,41.1119 24.4768,44.0599 26.4368,47.7959 C28.1798,51.1159 31.0268,55.2369 34.8878,56.2269 C37.3408,56.8559 39.5908,56.1109 41.8468,55.1679 C45.7608,53.5329 49.1868,51.8719 53.4238,51.3009 C55.0108,51.0869 54.3348,48.6769 52.7588,48.8899" id="Fill-31" fill="#221F20"></path>
            <g id="Group-35" transform="translate(25.000000, 0.411000)">
                <mask id="mask-2" fill="white">
                    <use xlink:href="#path-1"></use>
                </mask>
                <g id="Clip-34"></g>
                <path d="M43.0807,23.9591 C43.0537,23.9451 43.0257,23.9341 42.9977,23.9201 L43.0587,23.8591 C43.0677,23.8951 43.0777,23.9311 43.0887,23.9661 C43.0857,23.9641 43.0837,23.9611 43.0807,23.9591 M42.9267,26.1991 C42.9747,26.1791 43.0157,26.1491 43.0597,26.1231 C43.0587,26.1461 43.0607,26.1681 43.0607,26.1911 C43.0157,26.1941 42.9717,26.1951 42.9267,26.1991 M39.5737,34.8161 C39.6197,34.7271 39.6647,34.6411 39.7087,34.5561 C39.7547,34.5711 39.7997,34.5871 39.8457,34.6011 C39.7537,34.6711 39.6647,34.7441 39.5737,34.8161 M37.6717,14.7311 C38.0257,14.3181 38.6127,14.1331 39.1467,14.5061 C38.6537,14.5681 38.1617,14.6411 37.6717,14.7311 M6.9107,13.3551 C6.8237,13.1841 6.6947,13.0331 6.5207,12.9131 C6.6407,12.7181 6.7397,12.5031 6.8227,12.2801 C6.8387,12.3101 6.8487,12.3431 6.8677,12.3721 C6.8337,12.6481 6.8577,12.9401 6.9427,13.2441 C6.9337,13.2781 6.9207,13.3181 6.9107,13.3551 M5.7147,13.9681 C5.6707,14.1971 5.5907,14.1861 5.7147,13.9681 M4.6327,10.7261 C4.6377,10.7001 4.6407,10.6821 4.6447,10.6681 C4.6457,10.6671 4.6467,10.6661 4.6477,10.6651 C4.6457,10.6751 4.6377,10.7061 4.6327,10.7261 M46.8577,26.7451 C46.5547,26.6751 46.2267,26.6561 45.8857,26.6841 L46.4697,26.1491 C46.5657,26.2201 46.6717,26.2881 46.7947,26.3511 C48.2247,27.0831 49.4907,24.9271 48.0567,24.1931 C47.3627,23.8381 47.2197,23.1321 46.5077,22.8941 C46.5347,22.8631 46.5617,22.8321 46.5887,22.8011 C47.1217,22.1901 47.0577,21.2811 46.3357,20.8381 C45.3537,20.2351 44.3317,19.8901 43.2987,19.7681 C43.3497,19.7181 43.3947,19.6631 43.4367,19.6051 C43.9897,19.9241 44.5177,19.7291 44.8387,19.3251 C45.6557,19.1971 46.3557,18.0371 45.6567,17.1401 C45.4297,16.8481 45.3147,16.5031 45.2347,16.1411 C45.4527,15.5781 45.3237,15.0131 44.9327,14.6691 C44.8007,14.2381 44.5887,13.8441 44.1497,13.5531 C43.8657,13.3631 43.5657,13.2751 43.2667,13.2541 C43.3597,12.9711 43.3687,12.6531 43.2207,12.3191 C43.0307,11.8931 42.7907,11.5761 42.5227,11.3441 C42.6767,10.6531 42.5867,9.9081 42.1437,9.2051 C41.4647,8.1271 40.1037,7.6481 38.9187,7.8771 C38.7637,6.8051 38.0727,5.8341 36.7417,5.5951 C35.7867,5.4251 34.8937,5.7121 34.1767,6.2411 C33.8867,6.1881 33.5917,6.1951 33.2997,6.2291 C33.3887,5.9221 33.3887,5.5691 33.2607,5.1501 C32.9607,4.1641 31.9897,3.5611 31.0247,3.3921 C30.4387,3.2891 29.9437,3.3371 29.5127,3.4771 C29.3037,2.8421 28.8987,2.2741 28.2557,1.9031 C26.7757,1.0481 25.1687,2.0411 24.1377,3.2731 C23.7787,3.3491 23.4287,3.4431 23.1087,3.5751 C22.9047,3.5291 22.6907,3.5021 22.4677,3.4911 C22.4647,3.4871 22.4637,3.4831 22.4607,3.4801 C21.4087,2.2621 19.4057,2.2311 18.2847,3.3211 C17.4677,1.3381 15.5827,-0.3369 13.3827,1.1691 C13.2947,1.2291 13.2187,1.3011 13.1417,1.3721 C12.3237,1.6421 11.6517,2.3031 11.3457,3.1371 C11.3407,3.1381 11.3357,3.1381 11.3317,3.1391 C9.8697,3.3121 9.7447,5.4681 11.0107,5.6351 C11.0157,5.6631 11.0187,5.6921 11.0247,5.7201 C10.9397,5.8721 10.8677,6.0331 10.8047,6.2001 C10.4027,6.5511 10.0487,6.9361 9.7837,7.3141 C9.6707,7.4751 9.5697,7.6521 9.4757,7.8331 C9.4647,7.7901 9.4537,7.7441 9.4427,7.7011 C9.3467,7.3211 9.2357,6.9451 9.1427,6.5641 C9.0967,6.3741 9.0517,6.1851 9.0157,5.9931 C9.0147,5.9891 9.0147,5.9901 9.0147,5.9861 C9.6007,4.7211 7.6027,3.6441 6.7547,4.9141 C6.1557,5.8111 6.7267,7.1921 6.9657,8.1151 C7.0247,8.3401 7.0437,8.7701 7.1717,8.9571 C7.1857,8.9771 7.1937,8.9861 7.2047,9.0011 C7.0947,9.3441 6.9127,9.5821 6.9077,9.9771 C6.9167,10.0441 6.9267,10.1111 6.9347,10.1781 C6.6607,9.7601 6.1277,9.5111 5.6367,9.5831 C6.2487,8.8261 6.7377,7.9221 6.2417,7.0841 C5.5837,5.9711 4.2207,6.4341 3.3137,6.8801 C2.5477,7.2561 1.7337,7.7601 1.1697,8.4071 C0.4887,9.1871 0.6027,10.1681 1.2617,10.6751 C1.3337,10.8491 1.4237,11.0161 1.5647,11.1651 C1.6567,11.2631 1.7577,11.3281 1.8617,11.3871 C1.8227,12.0511 2.0977,12.6611 2.9327,12.8591 C3.0987,12.8981 3.2717,12.9071 3.4457,12.9031 C3.2207,13.3921 3.1107,13.8951 3.4987,14.4041 C3.9907,15.0481 4.9297,14.9441 5.5337,15.1551 C5.6117,15.1831 5.6857,15.1971 5.7587,15.2101 C4.9197,16.3111 4.0327,17.3571 3.0037,18.2931 C4.3477,18.5991 5.8217,18.2831 7.0837,18.8391 C7.5387,19.0391 7.9397,19.3441 8.3217,19.6631 C11.1427,22.0231 13.1317,25.3591 13.8657,28.9631 C13.7527,28.4051 21.9507,30.8241 22.6757,31.2441 C24.5027,32.3041 26.3837,33.5421 27.3987,35.4611 C28.4077,37.3711 28.0177,39.8981 29.7817,41.4151 C32.1767,43.4751 34.3157,42.3871 36.0807,40.3741 C36.5207,40.7401 37.1467,40.8131 37.6147,40.2331 C39.2547,38.2001 41.1397,36.5381 43.3857,35.1981 C44.5567,34.5001 43.8407,32.8641 42.7417,32.8691 L43.7417,31.7911 C44.6297,31.9201 45.6117,31.5181 46.0417,30.4301 C46.1607,30.1301 46.0877,29.7611 45.9067,29.4581 L46.2057,29.1361 C46.5987,29.4541 47.1297,29.5001 47.6207,29.2651 C47.8697,29.1461 48.0767,28.9251 48.2747,28.7421 C49.3467,27.7521 47.9987,26.2211 46.8577,26.7451" id="Fill-33" fill="#221F20" mask="url(#mask-2)"></path>
            </g>
            <path d="M47.5537,53.3789 C49.3187,54.6749 50.4167,56.5709 50.8377,58.6989 C51.1497,60.2759 53.5597,59.6079 53.2487,58.0339 C52.6947,55.2349 51.0997,52.8979 48.8157,51.2199 C47.5177,50.2669 46.2687,52.4359 47.5537,53.3789" id="Fill-36" fill="#221F20"></path>
            <g id="Group-41" transform="translate(56.000000, 141.411000)">
                <path d="M17.3853,0.8659 C18.4423,2.5899 19.4983,4.3139 20.5553,6.0369 C20.8833,6.5729 21.2213,7.1379 21.2603,7.7649 C21.2903,8.2659 21.1253,8.7569 20.9633,9.2319 C19.6213,13.1569 18.2783,17.0809 16.9363,21.0059 C16.1483,23.3099 15.3103,25.6959 13.6083,27.4359 C9.9793,31.1439 0.9473,30.6209 0.6753,24.2859 C0.6073,22.7089 1.0603,21.1609 1.5083,19.6469 C2.0523,17.8109 2.5963,15.9749 3.1403,14.1379 C3.5293,12.8229 3.9233,11.4849 3.9273,10.1119 C3.9303,8.7399 3.4913,7.3039 2.4583,6.3999" id="Fill-38" fill="#FEFEFE"></path>
                <path d="M17.3853,0.8659 C18.4423,2.5899 19.4983,4.3139 20.5553,6.0369 C20.8833,6.5729 21.2213,7.1379 21.2603,7.7649 C21.2903,8.2659 21.1253,8.7569 20.9633,9.2319 C19.6213,13.1569 18.2783,17.0809 16.9363,21.0059 C16.1483,23.3099 15.3103,25.6959 13.6083,27.4359 C9.9793,31.1439 0.9473,30.6209 0.6753,24.2859 C0.6073,22.7089 1.0603,21.1609 1.5083,19.6469 C2.0523,17.8109 2.5963,15.9749 3.1403,14.1379 C3.5293,12.8229 3.9233,11.4849 3.9273,10.1119 C3.9303,8.7399 3.4913,7.3039 2.4583,6.3999" id="Stroke-40" stroke="#221F20"></path>
            </g>
            <path d="M76.2162,154.3949 C74.9702,151.9859 72.0962,150.2079 68.9502,149.8989 C69.5692,151.0079 69.4912,152.2949 69.2422,153.4989 C68.4302,157.4159 64.7092,162.4049 67.3492,166.3509 C67.8082,167.0359 68.4502,167.6279 69.1642,168.1429" id="Fill-42" fill="#861619"></path>
            <path d="M75.5589,148.9813 C74.8789,151.2353 74.1989,153.4923 73.3839,155.7023 C72.9489,156.8823 72.4759,158.0223 72.1399,159.2303 C72.0009,159.7313 71.7869,160.2103 71.5049,160.6473 C71.3079,160.9553 71.0589,161.2553 70.7159,161.3823 C70.1989,161.5743 69.5909,161.3003 69.2669,160.8533 C68.9429,160.4063 68.8559,159.8273 68.8689,159.2753 C68.8759,158.9943 68.8079,158.4563 69.1159,158.3873 C69.1609,158.7043 69.2209,159.0213 69.3969,159.2973 C69.4489,159.3803 69.5149,159.4623 69.6079,159.4923 C69.8209,159.5623 70.0049,159.3363 70.1149,159.1403 C71.1419,157.2963 72.1499,155.3833 72.8399,153.3953 C73.5519,151.3423 74.2179,149.2413 75.3859,147.3903" id="Fill-44" fill="#221F20"></path>
            <g id="Group-48" transform="translate(55.000000, 140.411000)">
                <mask id="mask-4" fill="white">
                    <use xlink:href="#path-3"></use>
                </mask>
                <g id="Clip-47"></g>
                <path d="M17.3059,2.4968 C18.5919,4.5938 20.9919,7.2878 20.7579,9.8998 C20.5459,12.2658 18.9299,15.2428 18.1689,17.4688 C16.4569,22.4738 14.9659,29.6468 8.3659,29.5038 C0.0949,29.3248 4.0199,20.2638 5.3449,15.4708 C6.2699,12.1278 6.5859,9.3418 4.3419,6.5168 C3.3419,5.2568 1.5839,7.0368 2.5749,8.2838 C7.1029,13.9868 -2.6981,22.3908 1.4799,28.7368 C3.6139,31.9758 8.2039,32.5708 11.6659,31.5358 C17.2509,29.8658 18.6189,23.8648 20.2919,18.9738 C21.2259,16.2428 23.7859,11.6288 23.5099,8.7648 C23.2509,6.0848 20.8179,3.4428 19.4649,1.2348 C18.6249,-0.1342 16.4619,1.1198 17.3059,2.4968" id="Fill-46" fill="#221F20" mask="url(#mask-4)"></path>
            </g>
            <path d="M71.7291,100.293 C66.8201,101.28 62.0871,103.782 58.6351,107.428 C57.2531,108.888 55.6091,110.811 55.1431,112.805 C54.4651,115.699 55.3651,119.471 55.7251,122.371 C56.4711,128.37 57.2171,134.369 57.9621,140.369 C58.1761,142.093 58.1041,145.13 59.8091,146.221 C61.5751,147.35 64.3821,145.961 66.3571,146.264 C67.2701,146.404 68.1711,146.724 69.0921,146.647 C71.6431,146.434 72.7111,143.246 72.7991,141.09 C72.8711,139.342 73.0331,137.522 73.1271,135.737 C73.4521,129.6 72.2461,123.522 72.2741,117.338 C75.9271,117.329 79.0231,117.349 82.5381,116.325 C85.9631,115.326 89.3461,114.155 92.5791,112.639 C94.2451,111.857 95.9581,111.042 97.1851,109.672 C99.6901,106.878 99.5081,102.668 99.1781,98.931 C99.1501,98.602 99.0921,98.224 98.8091,98.052 C98.5271,97.881 98.0571,98.234 98.2691,98.488" id="Fill-49" fill="#83969F"></path>
            <path d="M71.3968,99.0876 C64.1638,100.7706 54.4728,106.0176 53.6758,114.3166 C53.1498,119.7936 54.9198,125.9436 55.5938,131.3696 C56.1108,135.5276 55.8088,141.0026 57.4148,144.9346 C58.4188,147.3936 60.1388,147.8986 62.6408,147.8416 C65.6498,147.7726 69.8408,148.8056 72.1448,146.3236 C74.4608,143.8286 74.1568,139.7506 74.3218,136.6336 C74.6638,130.1766 73.6138,123.7876 73.5248,117.3376 C73.1078,117.7546 72.6908,118.1716 72.2748,118.5876 C80.2658,118.5556 88.8148,116.8236 95.6778,112.4556 C100.2388,109.5516 102.1278,102.7486 100.0148,97.7196 C99.8218,97.2606 99.3898,96.7276 98.8098,96.8026 C98.6578,96.8216 98.5058,96.8416 98.3538,96.8606 C97.8208,96.9286 97.2798,97.1986 97.1488,97.7786 L97.0638,98.1556 C96.7098,99.7226 99.1198,100.3916 99.4738,98.8206 C98.9958,99.3306 98.5178,99.8406 98.0398,100.3506 C98.0628,100.8316 98.0858,101.3126 98.1078,101.7926 C97.7988,103.5356 98.1068,105.1256 97.3608,106.8146 C95.8878,110.1546 92.1708,111.5746 88.9678,112.8406 C83.4848,115.0096 78.1808,116.0646 72.2748,116.0876 C71.6058,116.0906 71.0148,116.6586 71.0248,117.3376 C71.1268,124.7056 72.2938,131.9406 71.6448,139.3216 C71.3308,142.9006 71.8768,143.8286 66.6898,145.0586 C66.1738,145.1806 65.4538,145.0336 64.9218,145.0236 C59.0448,144.9136 59.4358,142.1666 58.8768,137.6686 C58.0488,131.0056 56.8238,124.2756 56.2948,117.5856 C55.5858,108.6106 64.2848,103.3076 72.0618,101.4986 C73.6278,101.1336 72.9648,98.7226 71.3968,99.0876" id="Fill-51" fill="#221F20"></path>
            <path d="M56.1779,142.7987 C55.9979,141.9747 55.8189,141.1507 55.6389,140.3277 C55.3509,139.0037 56.6009,139.0667 57.5899,138.8517 C58.8489,138.5777 60.1209,138.3477 61.4099,138.2857 C63.0009,138.2097 66.6639,138.3227 67.5319,140.0317 C67.8979,140.7517 67.4449,141.9567 67.3149,142.6897 C67.0909,143.9587 66.8519,145.2287 66.8229,146.5207 C66.7719,148.8047 67.3409,151.0327 67.3079,153.3037 C67.2849,154.8277 66.7909,156.2997 66.3009,157.7427 C65.5289,160.0197 64.7569,162.2957 63.9849,164.5727 C63.7319,165.3177 63.4629,166.0897 62.9159,166.6557 C62.3689,167.2217 61.4569,167.5177 60.7749,167.1247 C60.2769,166.8367 60.0179,166.2647 59.8619,165.7097 C58.7129,161.6137 61.4089,157.6427 60.9269,153.5357 C60.4789,149.7137 57.0099,146.6167 56.1779,142.7987" id="Fill-53" fill="#221F20"></path>
            <path d="M58.6511,102.1857 C64.2581,97.4127 69.9231,92.7467 76.6601,89.6557 C78.1211,88.9857 76.8521,86.8307 75.3981,87.4977 C68.4701,90.6757 62.6451,95.5137 56.8831,100.4177 C55.6561,101.4627 57.4321,103.2237 58.6511,102.1857" id="Fill-55" fill="#221F20"></path>
            <path d="M52.4162,95.5965 C51.5902,96.1295 50.7832,96.6915 49.9972,97.2825 C49.3882,97.7405 48.7752,98.2335 48.4082,98.9015 C47.8882,99.8495 47.9432,101.0285 48.3062,102.0475 C48.6682,103.0665 49.3072,103.9595 49.9372,104.8375 C50.4932,105.6105 51.0922,106.4195 51.9692,106.7905 C52.9552,107.2065 54.1082,106.9755 55.0682,106.5015 C56.4032,105.8415 57.5212,104.6885 57.9852,103.2745 C58.4502,101.8595 58.2002,100.1935 57.2192,99.0735 C56.6072,98.3765 55.7702,97.9245 54.9522,97.4875 C54.3692,97.1765 53.7862,96.8655 53.2032,96.5545" id="Fill-57" fill="#987052"></path>
            <path d="M51.7852,94.5171 C49.1622,96.2421 46.0812,98.1191 46.9222,101.7521 C47.5522,104.4771 50.0932,108.3131 53.2092,108.2551 C56.1422,108.2001 58.8762,105.6491 59.3682,102.8211 C60.0632,98.8281 56.8412,97.0801 53.8342,95.4751 C52.4152,94.7171 51.1512,96.8741 52.5722,97.6331 C54.0792,98.4381 56.4182,99.2311 56.8742,101.0841 C57.3672,103.0931 55.4142,105.8311 53.2092,105.7551 C51.5502,105.6981 49.5662,102.5841 49.3322,101.0881 C48.9862,98.8711 51.4902,97.7001 53.0472,96.6761 C54.3862,95.7951 53.1352,93.6301 51.7852,94.5171" id="Fill-59" fill="#221F20"></path>
            <path d="M97.221,92.5059 C98.919,93.8559 99.842,96.0009 100.116,98.1519 C100.39,100.3039 100.08,102.4849 99.69,104.6179 C99.384,106.2959 99.019,107.9909 98.208,109.4919 C97.397,110.9919 96.075,112.2929 94.422,112.7119 C91.68,113.4059 88.978,111.5839 86.84,109.7329 C85.237,108.3449 83.7,106.8819 82.236,105.3489 C81.149,104.2109 80.121,102.4739 78.648,101.8719 C75.278,100.4959 70.328,99.7149 66.807,100.7739 C66.025,101.0089 65.266,101.3449 64.455,101.4369 C61.614,101.7579 59.656,99.6009 58.012,97.6949 C56.31,95.7209 54.402,94.2819 53.96,91.5239 C53.743,90.1709 53.907,88.7879 53.854,87.4189 C53.663,82.4399 49.855,79.2909 47.734,75.1579 C46.387,72.5319 45.909,69.3739 46.365,66.4619 C46.542,65.3329 46.86,63.3949 47.709,62.5459 C49.178,61.0769 49.954,63.0599 50.953,64.3159 C51.913,65.5239 53.02,66.8209 54.546,67.0499 C55.17,67.1429 55.806,67.0439 56.42,66.8999 C59.364,66.2119 62,64.4159 63.832,62.0259 C64.793,60.7709 65.264,59.4119 65.959,58.0249 C66.217,57.5099 66.56,57.1529 66.918,56.7119 C67.398,56.1199 67.783,55.1259 68.402,54.6909 C68.799,54.4129 69.341,54.5979 69.785,54.7899 C74.053,56.6369 78.474,58.5949 81.504,62.1219 C82.581,63.3769 83.449,64.7939 84.311,66.2049 C85.005,67.3389 85.637,68.4669 86.236,69.6449 C86.791,70.7359 87.817,71.4639 88.675,72.3219 C89.752,73.3789 90.813,74.4859 91.523,75.8169 C92.097,76.8929 92.424,78.0839 92.961,79.1789 C93.753,80.7919 95.125,81.9929 95.938,83.5559 C96.624,84.8729 97.175,86.4599 97.703,87.8609 C98.84,90.8799 101.226,95.414 99.69,95" id="Fill-61" fill="#32439B"></path>
            <path d="M50.66,78.1837 C50.851,78.4887 51.035,78.7977 51.201,79.1167 C51.284,79.2767 51.363,79.4377 51.438,79.6017 C51.37,79.4147 51.39,79.4647 51.5,79.7497 C51.772,80.4697 51.875,81.3017 52.259,81.9707 C53.488,84.1127 55.935,83.1477 57.612,82.2407 C59.166,81.4007 59.066,79.5187 58.118,78.3147 C58.291,78.5337 57.806,77.8277 57.753,77.7387 C57.573,77.4377 57.401,77.1247 57.263,76.8027 C57.439,77.2127 56.781,75.6647 56.908,75.9217 C56.776,75.6547 56.621,75.4357 56.439,75.1987 C55.094,73.4387 52.393,73.3717 51.36,75.5267 C50.795,76.7037 50.996,78.2817 52.257,78.9477 C53.373,79.5377 55.073,79.3097 55.677,78.0507 C55.492,78.2047 55.308,78.3587 55.123,78.5127 C54.702,78.6257 54.282,78.7397 53.861,78.8537 C53.478,78.8917 52.68,78.4177 52.422,78.1287 C52.775,78.5237 52.305,77.7527 52.443,78.1177 C52.628,78.6067 52.828,79.0947 53.058,79.5657 C53.464,80.3977 54.011,81.1247 54.583,81.8507 C54.751,80.5417 54.92,79.2327 55.089,77.9237 C54.643,78.1647 54.581,78.2677 53.891,78.4007 L55.22,78.4007 C55.187,78.3917 55.153,78.3827 55.119,78.3737 C55.617,78.7567 56.115,79.1397 56.613,79.5227 C56.874,80.0547 56.535,79.0287 56.502,78.9297 C56.389,78.5867 56.256,78.2537 56.118,77.9207 C55.792,77.1327 55.431,76.3827 54.977,75.6597 C54.261,74.5177 52.748,74.0667 51.557,74.7637 C50.417,75.4297 49.94,77.0357 50.66,78.1837" id="Fill-63" fill="#FEFEFE"></path>
            <path d="M53.755,75.504 C53.255,75.208 52.363,75.356 52.291,75.863" id="Fill-65" fill="#861619"></path>
            <path d="M51.2516,76.2024 C51.8506,75.7774 52.5026,75.4254 53.1866,75.1584 C53.6716,74.9684 54.2226,74.8214 54.7036,75.0204 C55.5526,75.3704 55.9336,76.6834 56.1146,77.4994 C56.1666,77.7354 56.1746,77.9894 56.0796,78.2124 C55.9846,78.4344 55.7716,78.6164 55.5296,78.6224 C56.4566,78.7284 57.0576,79.0924 57.5346,79.8444 C57.6856,80.0814 57.8476,80.3524 57.7816,80.6264 C57.6976,80.9744 57.3006,81.1304 56.9576,81.2314 C56.2696,81.4344 56.1276,81.0204 55.5356,80.6944 C55.9266,81.7944 55.1686,81.7524 54.2816,82.0024 C54.1696,82.0344 54.0476,82.0654 53.9416,82.0174 C53.8586,81.9814 53.8026,81.9034 53.7506,81.8284 C52.7746,80.4254 51.8826,78.9634 51.0826,77.4524" id="Fill-67" fill="#861619"></path>
            <path d="M59.7617,84.5759 C59.9527,84.8809 60.1367,85.1889 60.3027,85.5089 C60.3857,85.6689 60.4647,85.8299 60.5397,85.9939 C60.4717,85.8069 60.4917,85.8569 60.6017,86.1419 C60.8737,86.8619 60.9767,87.6939 61.3607,88.3629 C62.5897,90.5049 65.0367,89.5399 66.7137,88.6329 C68.2677,87.7929 68.1677,85.9109 67.2197,84.7069 C67.3927,84.9259 66.9077,84.2199 66.8547,84.1309 C66.6747,83.8299 66.5027,83.5169 66.3647,83.1949 C66.5407,83.6039 65.8827,82.0569 66.0097,82.3139 C65.8777,82.0469 65.7227,81.8279 65.5407,81.5909 C64.1957,79.8309 61.4947,79.7639 60.4617,81.9189 C59.8967,83.0959 60.0977,84.6739 61.3587,85.3399 C62.4747,85.9299 64.1747,85.7019 64.7787,84.4429 L64.2247,84.9049 C63.8037,85.0179 63.3837,85.1319 62.9627,85.2459 C62.5797,85.2839 61.7817,84.8099 61.5237,84.5209 C61.8767,84.9159 61.4067,84.1449 61.5447,84.5099 C61.7297,84.9989 61.9297,85.4869 62.1597,85.9579 C62.5657,86.7899 63.1127,87.5169 63.6847,88.2419 C63.8527,86.9339 64.0217,85.6249 64.1907,84.3159 C63.7447,84.5569 63.6827,84.6599 62.9927,84.7929 L64.3217,84.7929 C64.2887,84.7839 64.2547,84.7749 64.2207,84.7659 L65.7147,85.9149 C65.9757,86.4469 65.6367,85.4209 65.6037,85.3219 C65.4907,84.9789 65.3577,84.6459 65.2197,84.3129 C64.8937,83.5249 64.5327,82.7749 64.0787,82.0519 C63.3627,80.9099 61.8497,80.4589 60.6587,81.1559 C59.5187,81.8219 59.0417,83.4279 59.7617,84.5759" id="Fill-69" fill="#FEFEFE"></path>
            <path d="M62.8567,81.8962 C62.3567,81.6002 61.4647,81.7482 61.3927,82.2552" id="Fill-71" fill="#861619"></path>
            <path d="M60.3533,82.5946 C60.9523,82.1696 61.6043,81.8176 62.2883,81.5506 C62.7733,81.3606 63.3243,81.2136 63.8053,81.4126 C64.6543,81.7626 65.0353,83.0756 65.2163,83.8916 C65.2683,84.1276 66.1593,85.4846 66.6363,86.2366 C66.7873,86.4736 66.9493,86.7446 66.8833,87.0186 C66.6333,88.0526 65.2423,87.5966 64.8783,86.9566 C64.6493,86.5536 64.4963,86.0796 64.1223,85.8056 C64.0103,85.7236 63.8723,85.6616 63.7343,85.6846 C63.5973,85.7066 63.4723,85.8386 63.4983,85.9756 C63.5113,86.0456 63.5593,86.1036 63.6053,86.1586 C63.9403,86.5586 65.0413,87.4376 64.6863,88.0026 C64.4613,88.3606 63.0763,88.5426 62.8523,88.2206 C61.8763,86.8176 60.9843,85.3556 60.1843,83.8446" id="Fill-73" fill="#861619"></path>
            <path d="M69.9952,90.6549 C70.1862,90.9599 70.3702,91.2679 70.5362,91.5879 C70.6192,91.7479 70.6982,91.9089 70.7732,92.0729 C70.7052,91.8859 70.7252,91.9359 70.8352,92.2209 C71.1072,92.9409 71.2102,93.7729 71.5942,94.4419 C72.8232,96.5839 75.2702,95.6189 76.9472,94.7119 C78.5012,93.8719 78.4012,91.9899 77.4532,90.7859 C77.6262,91.0049 77.1412,90.2989 77.0882,90.2099 C76.9082,89.9089 76.7362,89.5959 76.5982,89.2739 C76.7742,89.6829 76.1162,88.1359 76.2432,88.3929 C76.1112,88.1259 75.9562,87.9069 75.7742,87.6699 C74.4292,85.9099 71.7282,85.8429 70.6952,87.9979 C70.1302,89.1749 70.3312,90.7529 71.5922,91.4189 C72.7082,92.0089 74.4082,91.7809 75.0122,90.5219 C74.8272,90.6759 74.6432,90.8299 74.4582,90.9839 C74.0372,91.0969 73.6172,91.2109 73.1962,91.3249 C72.8132,91.3629 72.0152,90.8889 71.7572,90.5999 C72.1102,90.9949 71.6402,90.2239 71.7782,90.5889 C71.9632,91.0779 72.1632,91.5659 72.3932,92.0369 C72.7992,92.8689 73.3462,93.5959 73.9182,94.3209 L74.4242,90.3949 C73.9782,90.6359 73.9162,90.7389 73.2262,90.8719 L74.5552,90.8719 C74.5222,90.8629 74.4882,90.8539 74.4542,90.8449 C74.9522,91.2279 75.4502,91.6109 75.9482,91.9939 C76.2092,92.5259 75.8702,91.4999 75.8372,91.4009 C75.7242,91.0579 75.5912,90.7249 75.4532,90.3919 C75.1272,89.6039 74.7662,88.8539 74.3122,88.1309 C73.5962,86.9889 72.0832,86.5379 70.8922,87.2349 C69.7522,87.9009 69.2752,89.5069 69.9952,90.6549" id="Fill-75" fill="#FEFEFE"></path>
            <path d="M73.0902,87.9752 C72.5902,87.6792 71.6982,87.8272 71.6262,88.3342" id="Fill-77" fill="#861619"></path>
            <path d="M70.5869,88.6736 C71.1859,88.2486 71.8379,87.8966 72.5219,87.6296 C73.0069,87.4396 73.5579,87.2926 74.0389,87.4916 C74.8879,87.8416 75.2689,89.1546 75.4499,89.9706 C75.5019,90.2066 76.3929,91.5636 76.8699,92.3156 C77.0209,92.5526 77.1829,92.8236 77.1169,93.0976 C76.8669,94.1316 75.4759,93.6756 75.1119,93.0356 C74.8829,92.6326 74.7299,92.1586 74.3559,91.8846 C74.2439,91.8026 74.1059,91.7406 73.9679,91.7636 C73.8309,91.7856 73.7059,91.9176 73.7319,92.0546 C73.7449,92.1246 73.7929,92.1826 73.8389,92.2376 C74.1739,92.6376 75.2749,93.5166 74.9199,94.0816 C74.6949,94.4396 73.3099,94.6216 73.0859,94.2996 C72.1099,92.8966 71.2179,91.4346 70.4179,89.9236" id="Fill-79" fill="#861619"></path>
            <path d="M80.7814,100.6839 C85.4074,103.5049 90.9594,106.6649 93.9544,111.3259 C95.2554,113.3499 98.5024,111.4719 97.1924,109.4329 C93.8334,104.2069 87.8664,100.6119 82.6744,97.4459 C80.6084,96.1859 78.7214,99.4279 80.7814,100.6839" id="Fill-81" fill="#861619"></path>
            <path d="M77.7706,102.6755 C82.6176,105.4625 88.4726,108.5825 91.7386,113.2565 C93.1116,115.2205 96.3636,113.3485 94.9766,111.3635 C91.3006,106.1025 85.1256,102.5785 79.6636,99.4375 C77.5676,98.2325 75.6766,101.4715 77.7706,102.6755" id="Fill-83" fill="#FEFEFE"></path>
            <path d="M83.1653,97.9246 C87.8293,100.6736 93.4313,103.7686 96.5063,108.3576 C97.8433,110.3526 101.0933,108.4766 99.7443,106.4646 C96.2793,101.2936 90.3183,97.7876 85.0583,94.6866 C82.9743,93.4586 81.0853,96.6986 83.1653,97.9246" id="Fill-85" fill="#FEFEFE"></path>
            <path d="M68.116,55.0735 C68.999,54.1545 75.203,58.8615 75.882,59.4545 C77.561,60.9215 78.957,62.6465 80.387,64.3445 C83.373,67.8895 86.706,71.1765 89.407,74.9505 C94.881,82.6025 99.189,92.6145 98.955,102.1855 C98.815,107.9145 94.025,114.6055 88.344,109.6665 C85.62,107.2985 83.792,104.1215 80.756,102.0225 C75.505,98.3915 69.981,98.8605 64.123,100.2315 C62.557,100.5975 63.22,103.0085 64.787,102.6415 C71.771,101.0085 77.208,101.5155 82.513,106.9065 C84.771,109.2005 87.535,114.4365 91.044,114.6245 C93.982,114.7825 97.479,112.1055 99.169,109.9255 C101.88,106.4305 101.716,101.7795 101.17,97.6035 C99.698,86.3385 94.321,76.2195 86.782,67.8725 C82.958,63.6405 79.592,58.6105 74.752,55.4525 C72.931,54.2645 68.373,51.1995 66.348,53.3055 C65.233,54.4665 66.999,56.2365 68.116,55.0735" id="Fill-87" fill="#221F20"></path>
            <path d="M65.7242,100.1599 C64.9622,99.5389 64.1772,98.9459 63.3732,98.3809 C62.7492,97.9429 62.0902,97.5129 61.3422,97.3709 C60.2792,97.1689 59.1752,97.5859 58.3182,98.2459 C57.4612,98.9059 56.8092,99.7889 56.1692,100.6609 C55.6062,101.4279 55.0222,102.2479 54.9412,103.1969 C54.8502,104.2629 55.4262,105.2879 56.1742,106.0539 C56.9142,106.8129 57.6292,107.4739 58.5822,107.0139 C59.5032,106.5699 60.3012,105.5529 61.1132,104.9289 C61.9542,104.2819 62.8592,103.7709 63.8062,103.2969 C64.9192,102.7399 64.8392,102.4309 65.0572,101.2039" id="Fill-89" fill="#987052"></path>
            <path d="M66.608,99.276 C64.235,97.378 61.67,95.077 58.522,96.659 C56.08,97.887 53.095,101.587 53.836,104.469 C54.485,106.991 57.24,109.426 59.752,107.766 C60.405,107.335 60.92,106.732 61.51,106.227 C62.414,105.453 63.433,104.984 64.437,104.376 C65.664,103.633 66.028,102.931 66.262,101.537 C66.527,99.963 64.118,99.286 63.852,100.872 C63.571,102.544 61.753,102.881 60.482,103.85 C59.217,104.813 57.606,106.84 56.47,104.394 C55.643,102.612 58.033,99.748 59.49,98.962 C61.471,97.894 63.393,99.886 64.84,101.044 C66.085,102.039 67.865,100.281 66.608,99.276" id="Fill-91" fill="#221F20"></path>
            <path d="M64.9752,51.8137 C67.6202,51.5937 71.2142,52.8007 73.6052,53.8747 C76.3462,55.1057 78.7752,56.9567 80.7022,59.2607 C83.3322,62.4067 85.1432,66.1497 86.3942,70.0357 C87.0222,71.9897 87.5152,73.9847 87.9152,75.9967 C88.3332,78.0957 88.8792,80.1467 89.2532,82.2497 C89.7282,84.9267 90.2042,87.6627 89.7932,90.3517 C89.6542,91.2587 89.2872,91.9327 88.9632,92.7607 C88.6902,93.4557 88.6732,94.0737 88.0982,94.6577 C87.6472,95.1147 87.0832,95.4407 86.5212,95.7507 C82.1422,98.1637 77.4422,99.9167 72.7112,101.4987 C71.2262,101.9947 68.8962,103.2977 67.2982,102.7077 C65.3032,101.9697 65.2642,99.7037 63.9012,98.3247 C63.2462,97.6617 60.3602,96.5987 61.3172,95.5567 C61.8602,94.9647 62.9932,94.5447 63.6882,94.1347 C64.4832,93.6657 65.2812,93.2037 66.0832,92.7467 C69.2902,90.9207 72.5532,89.1927 75.8652,87.5637 C76.4712,87.2657 77.0822,86.9697 77.6252,86.5677 C77.7362,86.4857 77.8482,86.3927 77.8982,86.2647 C77.9402,86.1557 77.9312,86.0337 77.9212,85.9177 C77.7452,83.9017 77.2832,81.9117 76.5532,80.0247 C75.5062,77.3217 73.9272,74.8617 72.3592,72.4237" id="Fill-93" fill="#32439B"></path>
            <path d="M64.9752,53.0637 C77.6982,53.0797 84.1412,64.6627 86.5512,75.5767 C87.6332,80.4777 90.3312,87.6917 87.7572,92.4287 C86.0632,95.5457 81.6302,96.8387 78.5442,98.0727 C76.1932,99.0127 73.3482,100.4047 70.8452,100.8847 C69.0032,101.2387 69.7462,101.7647 67.6622,100.5477 C66.1272,99.6507 66.0512,98.8577 64.9812,97.6937 C64.5342,97.2087 63.0682,96.5837 63.0702,96.0707 C63.0722,95.4397 67.6072,93.3187 68.3222,92.9217 C71.0122,91.4257 73.7932,90.1097 76.4962,88.6437 C78.7592,87.4157 79.3172,86.9837 78.9862,84.4117 C78.3842,79.7397 75.9262,75.6857 73.4382,71.7927 C72.5742,70.4417 70.4092,71.6937 71.2792,73.0547 C72.3722,74.7647 73.4892,76.4677 74.3912,78.2877 C75.0102,79.5367 77.4002,84.3377 76.6712,85.9177 C76.1322,87.0857 70.1852,89.0567 68.6782,89.8747 C66.7182,90.9367 58.9672,93.5027 60.0762,96.8117 C60.5772,98.3067 62.8832,99.1407 63.7692,100.3757 C64.7952,101.8067 65.1232,103.2787 66.9662,103.9127 C68.8502,104.5607 70.8352,103.5007 72.5532,102.8907 C75.7622,101.7507 78.9842,100.6597 82.1062,99.2917 C86.8542,97.2117 90.1112,95.7477 91.0432,90.3517 C92.0732,84.3887 89.6812,76.8577 88.0462,71.1767 C84.9512,60.4217 77.0692,50.5787 64.9752,50.5637 C63.3662,50.5617 63.3642,53.0617 64.9752,53.0637" id="Fill-95" fill="#221F20"></path>
            <path d="M75.7484,68.6686 C75.9484,69.0646 76.0824,69.2816 76.5334,69.3396 C76.9354,69.3916 77.3444,69.3756 77.7434,69.3046 C78.5544,69.1606 79.3214,68.8006 79.9864,68.3196 C80.3864,68.0296 80.7794,67.6576 80.9134,67.1656 C81.0674,66.6036 80.7804,66.1426 80.4894,65.6716 C80.1914,65.1896 79.8944,64.7086 79.5964,64.2266 C79.3544,63.8356 79.1864,63.6986 78.7254,63.7956 C78.1374,63.9186 77.5434,64.0426 76.9434,64.0166 C76.7204,64.0076 76.5214,63.9976 76.3624,64.1686 C76.0434,64.5096 75.7254,64.8506 75.4064,65.1916 C75.2584,65.3496 75.1144,65.5536 74.9404,65.6826 C74.8244,65.7686 74.6504,65.7946 74.6074,65.9596 C74.5914,66.0246 74.6114,66.0926 74.6304,66.1576 C74.7574,66.5696 74.8764,66.9166 75.0724,67.3106 C75.2974,67.7636 75.5204,68.2176 75.7484,68.6686" id="Fill-97" fill="#FEFEFE"></path>
            <path d="M79.2835,66.0608 C78.7165,66.2128 78.1695,66.4358 77.6385,66.6848 C77.1465,66.9158 76.7595,67.1938 76.2185,67.3098 C76.1875,67.3158 76.1545,67.3228 76.1235,67.3128 C76.0765,67.2988 76.0485,67.2518 76.0245,67.2078 C75.8705,66.9298 75.7175,66.6508 75.5635,66.3728 C75.5465,66.3418 75.5295,66.3108 75.5225,66.2758 C75.5075,66.1988 75.5465,66.1228 75.5845,66.0538 C75.8845,65.5108 76.3965,65.1168 76.7055,64.5818 C76.9925,64.0858 77.4315,64.3968 77.8975,64.4668 C78.2775,64.5248 78.6555,64.5938 79.0315,64.6738 C79.1195,64.6928 79.2105,64.7138 79.2855,64.7648 C79.3425,64.8038 79.3865,64.8588 79.4295,64.9128 C79.5715,65.0888 79.7125,65.2648 79.8545,65.4408 C79.9095,65.5098 79.9685,65.5898 79.9545,65.6768 C79.9375,65.7798 79.8295,65.8378 79.7315,65.8748 C78.9095,66.1878 78.0635,66.4488 77.2555,66.8138 C77.2355,66.8218 77.2145,66.8318 77.1935,66.8268 C77.1715,66.8218 77.1555,66.8018 77.1425,66.7838 L76.7425,66.2598 C76.7215,66.2328 76.6995,66.1998 76.7065,66.1668 C76.7115,66.1438 76.7285,66.1268 76.7455,66.1108 L77.2475,65.6238 C77.2915,65.5808 77.3395,65.5358 77.4005,65.5238 C77.4405,65.5168 77.4815,65.5238 77.5215,65.5318 C78.1025,65.6458 78.6845,65.7608 79.2665,65.8748" id="Fill-99" fill="#861619"></path>
            <path d="M77.4397,76.8762 C79.7807,75.5102 82.1007,74.6252 84.8277,74.4852 C87.2297,74.3632 87.2437,70.6122 84.8277,70.7352 C81.4457,70.9082 78.4597,71.9392 75.5467,73.6382 C73.4637,74.8542 75.3487,78.0962 77.4397,76.8762" id="Fill-101" fill="#FEFEFE"></path>
            <path d="M78.7928,80.2261 C81.3278,78.7751 84.0418,77.9411 86.9618,77.7851 C89.3618,77.6581 89.3768,73.9071 86.9618,74.0351 C83.3818,74.2261 80.0118,75.2061 76.8998,76.9881 C74.8058,78.1871 76.6928,81.4281 78.7928,80.2261" id="Fill-103" fill="#861619"></path>
            <path d="M79.6633,83.6827 C82.0833,82.2937 84.5803,81.6417 87.3613,81.5087 C89.7643,81.3947 89.7783,77.6437 87.3613,77.7587 C83.9293,77.9227 80.7613,78.7277 77.7703,80.4447 C75.6783,81.6457 77.5643,84.8877 79.6633,83.6827" id="Fill-105" fill="#FEFEFE"></path>
            <path d="M64.9752,53.0637 C77.6982,53.0797 84.1412,64.6627 86.5512,75.5767 C87.6332,80.4777 90.3312,87.6917 87.7572,92.4287 C86.0632,95.5457 81.6302,96.8387 78.5442,98.0727 C76.1932,99.0127 73.3482,100.4047 70.8452,100.8847 C69.0032,101.2387 69.7462,101.7647 67.6622,100.5477 C66.1272,99.6507 66.0512,98.8577 64.9812,97.6937 C64.5342,97.2087 63.0682,96.5837 63.0702,96.0707 C63.0722,95.4397 67.6072,93.3187 68.3222,92.9217 C71.0122,91.4257 73.7932,90.1097 76.4962,88.6437 C78.7592,87.4157 79.3172,86.9837 78.9862,84.4117 C78.3842,79.7397 75.9262,75.6857 73.4382,71.7927 C72.5742,70.4417 70.4092,71.6937 71.2792,73.0547 C72.3722,74.7647 73.4892,76.4677 74.3912,78.2877 C75.0102,79.5367 77.4002,84.3377 76.6712,85.9177 C76.1322,87.0857 70.1852,89.0567 68.6782,89.8747 C66.7182,90.9367 58.9672,93.5027 60.0762,96.8117 C60.5772,98.3067 62.8832,99.1407 63.7692,100.3757 C64.7952,101.8067 65.1232,103.2787 66.9662,103.9127 C68.8502,104.5607 70.8352,103.5007 72.5532,102.8907 C75.7622,101.7507 78.9842,100.6597 82.1062,99.2917 C86.8542,97.2117 90.1112,95.7477 91.0432,90.3517 C92.0732,84.3887 89.6812,76.8577 88.0462,71.1767 C84.9512,60.4217 77.0692,50.5787 64.9752,50.5637 C63.3662,50.5617 63.3642,53.0617 64.9752,53.0637" id="Fill-107" fill="#221F20"></path>
            <path d="M49.3797,81.1079 C49.2757,81.9559 49.0217,82.7149 48.6907,83.4999 L46.5937,88.4709 C47.4937,88.7519 48.0557,89.6149 48.6157,90.3729 C49.3757,91.4009 50.4697,92.1529 51.3927,93.0329 C52.3977,93.9919 53.1697,95.1929 53.6237,96.5049 C53.6777,96.6619 53.7267,96.8369 53.6597,96.9889 C53.5877,97.1499 53.4077,97.2299 53.2437,97.2959 C52.1557,97.7339 51.0767,98.1949 50.0077,98.6769 C49.0897,99.0909 48.5937,99.6159 47.8167,100.1689 C47.0737,100.6989 46.5737,100.2959 45.9287,99.7349 C45.0347,98.9579 44.1337,98.2879 43.1477,97.6279 C41.6767,96.6439 40.2297,95.6279 38.7727,94.6229 C37.6717,93.8649 36.5417,93.2749 36.0587,91.9039 C35.8367,91.2769 35.8977,90.5889 35.9757,89.9279 C36.3047,87.1419 36.8877,84.3919 37.6007,81.6809 C38.2707,79.1319 38.6267,76.8749 38.8227,74.2489 C39.0337,71.4249 40.1137,68.7209 41.5617,66.2869 C43.2917,63.3789 45.7337,59.2509 48.5637,57.3439" id="Fill-109" fill="#32439B"></path>
            <path d="M48.1743,80.7756 C47.6303,83.3356 46.4023,85.7346 45.3883,88.1386 C45.1663,88.6656 45.5453,89.2676 45.9633,89.5506 C47.3843,90.5146 50.5483,93.2946 51.2483,94.8916 C51.9483,96.4876 52.0673,95.6276 51.1363,96.8276 C51.2363,96.6986 48.6113,98.2416 48.2283,98.2916 C45.7513,98.6146 43.3953,96.2956 41.5863,95.0536 C38.1323,92.6816 37.1693,89.2776 38.0203,85.2846 C40.0983,75.5326 40.9403,64.8586 49.4473,58.2276 C50.7153,57.2396 48.9343,55.4816 47.6793,56.4596 C44.5833,58.8736 42.3953,62.2666 40.4823,65.6556 C38.1123,69.8536 37.9033,73.7676 37.0583,78.3876 C36.3293,82.3756 34.3083,86.8226 34.6543,90.9286 C34.9063,93.9156 37.3553,95.1686 39.5963,96.7096 C41.7483,98.1886 44.8683,101.9566 47.6583,101.4706 C49.0193,101.2336 52.6593,99.2496 53.5753,98.5016 C53.9873,98.1666 54.6043,98.0396 54.8013,97.4706 C55.5273,95.3816 53.0973,93.0266 51.7963,91.7226 C50.9073,90.8336 48.6053,89.3916 48.3633,88.1636 C47.9783,86.2186 50.1633,83.4236 50.5853,81.4406 C50.9183,79.8706 48.5093,79.2006 48.1743,80.7756" id="Fill-111" fill="#221F20"></path>
            <path d="M41.0257,79.1732 C43.3257,79.3702 45.2967,79.9692 47.2037,81.2882 C49.1927,82.6642 51.0697,79.4152 49.0957,78.0502 C46.6507,76.3582 43.9567,75.6732 41.0257,75.4232 C38.6217,75.2182 38.6347,78.9692 41.0257,79.1732" id="Fill-113" fill="#FEFEFE"></path>
            <path d="M39.9635,82.3745 C42.4265,82.6035 44.6615,83.4585 46.6925,84.8595 C48.6835,86.2325 50.5605,82.9845 48.5845,81.6215 C45.9975,79.8365 43.0775,78.9135 39.9635,78.6245 C37.5615,78.4015 37.5765,82.1525 39.9635,82.3745" id="Fill-115" fill="#861619"></path>
            <path d="M38.0451,85.3574 C40.5081,85.5864 42.7431,86.4414 44.7741,87.8424 C46.7651,89.2154 48.6421,85.9674 46.6661,84.6044 C44.0791,82.8194 41.1591,81.8964 38.0451,81.6074 C35.6431,81.3844 35.6581,85.1354 38.0451,85.3574" id="Fill-117" fill="#FEFEFE"></path>
            <path d="M48.1743,80.7756 C47.6303,83.3356 46.4023,85.7346 45.3883,88.1386 C45.1663,88.6656 45.5453,89.2676 45.9633,89.5506 C47.3843,90.5146 50.5483,93.2946 51.2483,94.8916 C51.9483,96.4876 52.0673,95.6276 51.1363,96.8276 C51.2363,96.6986 48.6113,98.2416 48.2283,98.2916 C45.7513,98.6146 43.3953,96.2956 41.5863,95.0536 C38.1323,92.6816 37.1693,89.2776 38.0203,85.2846 C40.0983,75.5326 40.9403,64.8586 49.4473,58.2276 C50.7153,57.2396 48.9343,55.4816 47.6793,56.4596 C44.5833,58.8736 42.3953,62.2666 40.4823,65.6556 C38.1123,69.8536 37.9033,73.7676 37.0583,78.3876 C36.3293,82.3756 34.3083,86.8226 34.6543,90.9286 C34.9063,93.9156 37.3553,95.1686 39.5963,96.7096 C41.7483,98.1886 44.8683,101.9566 47.6583,101.4706 C49.0193,101.2336 52.6593,99.2496 53.5753,98.5016 C53.9873,98.1666 54.6043,98.0396 54.8013,97.4706 C55.5273,95.3816 53.0973,93.0266 51.7963,91.7226 C50.9073,90.8336 48.6053,89.3916 48.3633,88.1636 C47.9783,86.2186 50.1633,83.4236 50.5853,81.4406 C50.9183,79.8706 48.5093,79.2006 48.1743,80.7756" id="Fill-119" fill="#221F20"></path>
            <path d="M58.839,97.1524 C54.33,95.2024 55.716,88.8594 54.308,84.8824 C53.146,81.6024 51.112,78.7394 49.109,75.9304 C48.183,74.6314 46.013,75.8784 46.95,77.1924 C48.341,79.1434 49.772,81.1054 50.865,83.2434 C52.396,86.2394 52.597,89.1664 53.051,92.4104 C53.476,95.4454 54.652,98.0464 57.577,99.3114 C59.039,99.9434 60.313,97.7894 58.839,97.1524" id="Fill-121" fill="#221F20"></path>
            <path d="M46.6746,60.6379 C46.4206,63.6339 48.1276,66.7569 50.4646,68.6259 C53.1346,70.7619 56.1846,70.3309 59.1806,69.1189 C65.4476,66.5859 69.1876,61.0519 67.8466,54.2169 C67.5376,52.6399 65.1276,53.3079 65.4366,54.8819 C66.2636,59.1019 64.5486,63.2419 60.8596,65.5149 C58.7716,66.8019 56.7136,67.6439 54.2826,67.3149 C51.2346,66.9039 48.9056,63.8149 49.1746,60.6379 C49.3106,59.0349 46.8096,59.0439 46.6746,60.6379" id="Fill-123" fill="#FEFEFE"></path>
            <path d="M77.4915,68.5526 C77.9745,68.5926 78.4525,68.4456 78.9035,68.2706 C79.2875,68.1216 79.6725,67.9446 79.9685,67.6576 C80.2645,67.3706 80.4625,66.9536 80.3945,66.5466 C80.3785,66.4476 80.3435,66.3466 80.2685,66.2806 C80.0865,66.1196 79.8055,66.2456 79.5965,66.3696 C78.5515,66.9876 77.3275,67.5436 76.1415,67.7976 C76.4075,68.2386 76.9925,68.5116 77.4915,68.5526" id="Fill-125" fill="#32439B"></path>
            <path d="M64.3438,52.8933 C65.3408,55.9143 64.9908,58.1723 63.1368,60.7483 C61.5948,62.8913 59.4778,64.3373 57.1898,65.5823 C56.0078,66.2253 55.3588,66.8233 53.9338,66.2033 C52.9508,65.7753 52.0488,64.8733 51.3678,64.0753 C49.4108,61.7813 49.1918,59.2123 50.7048,56.5813 C51.5078,55.1843 49.3488,53.9243 48.5458,55.3193 C46.9068,58.1703 46.6628,61.2583 48.3648,64.1683 C49.6668,66.3913 52.7338,69.5013 55.5388,69.1113 C58.6798,68.6743 62.6458,65.3353 64.5758,62.9583 C67.3798,59.5063 68.1438,56.4373 66.7548,52.2283 C66.2528,50.7083 63.8378,51.3593 64.3438,52.8933" id="Fill-127" fill="#221F20"></path>
            <path d="M42.9299,36.2732 C42.8699,36.3882 42.8499,36.2242 42.9819,36.2992 C43.1099,36.3722 43.1619,36.3732 43.2929,36.4832 C43.6299,36.7652 43.7989,37.2532 43.8079,37.6802 C43.8279,38.6232 42.6039,38.5112 41.9299,38.5052 C40.3209,38.4912 40.3199,40.9912 41.9299,41.0052 C43.0899,41.0152 44.3889,40.9032 45.2999,40.1022 C46.2929,39.2282 46.4919,37.8162 46.1509,36.5822 C45.8279,35.4112 44.9379,34.2532 43.7269,33.9162 C42.6079,33.6052 41.3369,33.9362 40.7709,35.0112 C40.0229,36.4342 42.1799,37.6992 42.9299,36.2732" id="Fill-129" fill="#221F20"></path>
            <path d="M38.8804,42.6856 C39.2724,44.8716 40.2844,47.6356 39.6534,49.7716 C39.2714,51.0656 38.6934,51.3746 37.6864,52.2036 C37.5054,52.3526 35.6814,53.7086 35.8814,53.9516 C34.8574,52.7096 33.0974,54.4866 34.1134,55.7196 C36.0884,58.1156 39.4474,54.1306 40.8604,52.8116 C43.8594,50.0116 41.9164,45.5136 41.2914,42.0206 C41.0074,40.4396 38.5984,41.1096 38.8804,42.6856" id="Fill-131" fill="#221F20"></path>
            <path d="M38.926,57.0362 C39.148,56.6962 39.232,56.3032 39.103,55.9172 C39.202,55.5032 39.034,55.0212 38.739,54.7322 C38.738,54.7262 38.738,54.7202 38.736,54.7142 C38.542,54.0062 37.867,53.7322 37.199,53.8412 C36.736,53.9172 36.387,54.1962 36.168,54.5582 C36.035,54.4402 35.885,54.3442 35.702,54.3142 C35.188,54.2282 34.707,54.2862 34.297,54.5672 C33.815,53.8852 32.71,53.6482 32.223,54.5972 C31.824,55.3752 31.889,56.2822 32.368,56.9192 C32.396,57.2892 32.541,57.6152 32.769,57.8722 C32.828,58.4842 33.118,59.0752 33.586,59.4812 C34.212,60.0262 34.988,59.8132 35.423,59.3372 C35.655,59.4502 35.904,59.5402 36.184,59.5772 C36.587,59.6302 36.954,59.3882 37.185,59.0552 C37.197,59.0552 37.207,59.0592 37.219,59.0592 C37.691,59.0702 38.021,58.8602 38.216,58.5612 C38.781,58.3332 39.212,57.7842 38.957,57.1192 C38.94,57.0742 38.933,57.0552 38.926,57.0362" id="Fill-133" fill="#221F20"></path>
            <path d="M72.6775,117.4645 C78.5365,118.1055 83.6115,115.6475 89.0385,113.8185 C89.2035,113.7625 89.3745,113.7035 89.4975,113.5795 C89.8885,113.1865 89.5345,112.5265 89.1515,112.1255 C88.5895,111.5365 87.5495,110.3705 86.7255,110.1855 C85.9355,110.0085 84.9775,110.6085 84.1825,110.8455 C82.1825,111.4415 80.1095,111.7415 78.0915,112.2655 C75.1465,113.0295 72.2385,113.9395 69.3825,114.9905 C67.1545,115.8105 68.0215,116.8805 68.5685,118.7225 C69.1185,120.5755 69.4235,122.4935 69.5715,124.4185 C69.8785,128.4405 69.4925,132.4785 69.0915,136.4795 C68.9515,137.8765 68.8115,139.2745 68.6725,140.6725 C68.5705,141.6825 67.8145,144.2765 68.2215,145.1725 C68.9635,146.8085 72.2705,144.3485 72.9075,143.1115 C73.4045,142.1465 73.3815,141.0065 73.3315,139.9225 C72.9925,132.4325 71.9825,124.9295 72.6775,117.4645" id="Fill-135" opacity="0.4" fill="#221F20"></path>
            <path d="M48.8948,140.0793 C51.0218,137.6543 51.0538,133.2103 51.1038,130.2123 C51.1958,124.6763 51.2878,119.1393 51.3798,113.6033 C51.3828,113.4383 51.3938,113.2553 51.5128,113.1423 C51.6328,113.0283 51.8178,113.0273 51.9828,113.0343 C54.0298,113.1133 54.7448,113.2563 55.9938,111.3663 C56.4978,110.6043 57.7768,109.0833 57.6998,108.1123 C57.6048,106.8923 57.1198,107.3893 56.1338,107.4063 C54.1018,107.4403 52.3928,106.5403 51.0428,105.0243 C49.5188,103.3133 48.4848,101.1773 46.7778,99.6493 C45.9848,98.9403 44.9438,98.3553 43.9008,98.5613 C42.8568,98.7683 42.0728,100.1173 42.7298,100.9543 C43.2048,101.5613 44.1868,101.6583 44.5388,102.3443 C44.7158,102.6883 44.6838,103.0973 44.7478,103.4793 C45.0808,105.4643 47.8698,106.4103 47.9788,108.4203 C48.0878,110.4083 46.0488,110.2333 45.2428,111.4483 C44.6098,112.4033 45.3038,113.5143 45.5938,114.4903 C46.1438,116.3433 46.4488,118.2603 46.5958,120.1843 C46.9038,124.2063 46.5168,128.2443 46.1168,132.2453 L45.6968,136.4383 C45.5958,137.4483 44.8398,140.0423 45.2468,140.9393 C45.8798,142.3343 48.2868,140.7723 48.8948,140.0793" id="Fill-137" opacity="0.4" fill="#221F20"></path>
            <path d="M49.1389,139.8547 C49.5019,139.5077 49.7869,139.1607 49.9329,138.8777 C50.4289,137.9127 50.4059,136.7727 50.3569,135.6887" id="Fill-139" fill="#221F20"></path>
            <path d="M59.2066,107.4971 C61.3086,108.5331 63.9046,108.5031 65.9826,107.4181 C66.7006,107.0431 68.0246,106.5631 68.4176,105.7371 C68.9766,104.5641 67.9686,103.1661 66.7066,103.1301 C65.5646,103.0981 64.0826,104.2721 63.1406,104.8101 C61.5536,105.7161 59.9966,106.6791 58.4656,107.6771" id="Fill-141" opacity="0.4" fill="#221F20"></path>
            <path d="M48.3226,76.1673 C52.2386,80.6573 57.6266,83.7673 63.3996,85.1643 C66.2876,85.8623 69.2816,86.1373 72.2476,85.9413 C73.1006,85.8843 75.9466,84.9793 76.6056,85.3313 C77.9236,86.0353 76.1636,87.4453 75.4086,87.8453 C71.4576,89.9383 66.6876,90.4823 63.2156,93.2993 C61.9736,94.3073 60.9546,95.5663 59.7136,96.5763 C59.1706,97.0173 58.5566,97.4213 57.8606,97.5023 C56.6046,97.6473 55.7316,96.7003 55.4296,95.6103 C55.0806,94.3463 54.8956,93.2673 54.3506,91.9903 C53.0346,88.9063 52.2056,85.6123 51.9076,82.2723 C51.8466,81.5873 51.8056,80.8893 51.5686,80.2433 C51.0346,78.7833 49.6236,77.8613 48.3016,77.0433" id="Fill-143" opacity="0.4" fill="#221F20"></path>
            <path d="M88.4707,82.0146 C88.9037,82.3766 89.1327,82.9816 89.3277,83.5636 C90.2497,86.3216 90.8487,89.2286 91.1007,92.1776 C91.2127,93.4846 91.2477,94.8636 90.7667,96.0496 C89.9497,98.0636 87.9447,98.9156 86.1337,99.5746 C84.5977,100.1336 82.9427,100.6916 81.4137,100.1076 C81.5747,99.0926 82.5977,98.7056 83.4157,98.3336 C85.9747,97.1696 87.8457,94.3516 88.5797,91.2386 C89.3137,88.1256 89.0037,84.7636 88.1127,81.7086" id="Fill-145" opacity="0.4" fill="#221F20"></path>
            <path d="M54.1005,50.9451 C53.8535,52.1361 53.6075,53.3271 53.3605,54.5181 C53.3085,54.7711 53.2505,55.0361 53.0895,55.2381 C52.9275,55.4411 52.6275,55.5591 52.4015,55.4321 C52.3015,55.3761 52.2295,55.2811 52.1605,55.1891 C51.5465,54.3731 50.9325,53.5571 50.3185,52.7401 C50.2205,52.6091 50.1165,52.4541 50.1535,52.2941 C50.1955,52.1181 50.3875,52.0281 50.5565,51.9631 C51.2005,51.7171 51.8455,51.4751 52.4925,51.2401" id="Fill-147" opacity="0.4" fill="#221F20"></path>
            <path d="M95.6281,113.3098 C96.6021,113.3838 97.5581,113.6928 98.3901,114.2038 C98.8911,114.5108 99.3921,114.9838 99.3601,115.5698 C99.3411,115.9278 99.1211,116.2448 98.8691,116.4998 C97.9231,117.4538 96.5191,117.7538 95.1991,118.0098 C92.4761,118.5378 89.7521,119.0658 87.0291,119.5948 C84.7971,120.0278 81.0621,119.0718 79.0971,120.0358 C77.1991,120.9678 78.2931,124.8998 78.3891,126.9048 C78.6721,132.8198 78.9111,138.7378 79.1061,144.6568 C79.1771,146.7988 78.9431,149.5008 76.7861,147.4678 C75.5101,146.2668 74.2411,144.3368 73.8661,142.6168 C73.2571,139.8228 73.6251,136.4278 73.6641,133.5788 C73.7341,128.4118 73.3791,123.2388 72.6001,118.1308" id="Fill-149" opacity="0.4" fill="#221F20"></path>
        </g>
    </g>
</svg>
