<?xml version="1.0" encoding="UTF-8" standalone="no"?>
<svg width="145px" height="229px" viewBox="0 0 145 229" version="1.1" xmlns="http://www.w3.org/2000/svg" xmlns:xlink="http://www.w3.org/1999/xlink">
    <!-- Generator: Sketch 42 (36781) - http://www.bohemiancoding.com/sketch -->
    <title>guillotine</title>
    <desc>Created with Sketch.</desc>
    <defs></defs>
    <g id="Page-1" stroke="none" stroke-width="1" fill="none" fill-rule="evenodd">
        <g id="guillotine">
            <path d="M102.8891,155.4783 C99.9861,155.6593 96.5441,156.4373 94.4531,158.6163 C93.6031,159.5013 92.6391,161.0883 92.5141,162.3353 C92.2981,164.5103 94.4011,165.8883 92.1681,167.2703 C90.3511,168.3943 87.2811,168.5453 85.2091,168.8913 C80.5731,169.6673 75.7291,170.1683 71.5781,172.5603 C70.1291,173.3963 68.7641,174.4923 68.0011,175.9823 C65.8981,180.0893 69.3881,180.6373 71.4431,183.1413 C71.6701,183.4183 71.8661,183.7423 71.8841,184.1003 C71.9171,184.7413 71.3511,185.2873 70.7341,185.4613 C70.1161,185.6343 69.4581,185.5273 68.8241,185.4283 C66.2891,185.0313 63.7301,184.7843 61.1651,184.6893 C60.1031,184.6503 58.9931,184.6473 58.0391,185.1153 C57.0851,185.5843 56.3491,186.6703 56.6301,187.6953 C56.9271,188.7813 58.2441,189.7663 57.6861,190.7443 C57.4701,191.1213 57.0311,191.3083 56.6081,191.4103 C55.5261,191.6703 51.4231,191.3583 51.0201,192.8603 C50.7261,193.9533 53.9401,195.1863 51.3901,196.2993 C50.5831,196.6513 49.6541,196.5273 48.7921,196.7073 C45.2481,197.4513 48.5251,199.3033 50.0771,199.5973 C51.9341,199.9483 54.0641,199.6723 54.9961,197.7613 C55.2021,197.3393 55.3341,196.8773 55.6021,196.4913 C56.4971,195.2043 58.3961,195.2983 59.9461,195.5313 C61.6751,195.7913 63.4031,196.0523 65.1321,196.3123 C66.3911,196.5013 68.8691,196.7393 69.2491,194.9983 C69.4561,194.0513 68.6361,193.7763 68.3691,193.0263 C67.4831,190.5383 69.0231,189.7063 71.6201,189.1033 C77.5881,187.7163 83.7501,187.2903 89.8761,187.4263 C92.2001,187.4773 94.6071,187.5943 96.7601,186.7163 C101.2201,184.8963 100.5501,179.0853 103.7511,176.1153 C104.7521,175.1883 106.5471,174.6923 107.8471,174.3873 C110.5221,173.7623 114.5541,174.1383 115.9681,171.2033 C116.3371,170.4383 116.4321,169.5483 116.9021,168.8413 C118.1881,166.9073 121.3201,167.4303 123.0741,165.9083 C124.7081,164.4903 124.4651,161.7173 123.0901,160.0463 C121.7141,158.3753 119.5631,157.5733 117.4771,156.9973 C112.7431,155.6893 107.7911,155.1733 102.8891,155.4783" id="Fill-1" fill="#D91F26"></path>
            <polygon id="z" fill="#221F20" opacity="0.1" points="0 206.131 56 228.131 133.748 170.903 82.135 154.946"></polygon>
            <g id="Group-6" transform="translate(93.000000, 141.131000)">
                <polyline id="Fill-3" fill="#89351E" points="2.4323 0.8905 6.9843 10.1685 0.4113 15.4965"></polyline>
                <polyline id="Stroke-5" stroke="#221F20" stroke-width="2" stroke-linejoin="round" points="2.4323 0.8905 6.9843 10.1685 0.4113 15.4965"></polyline>
            </g>
            <polygon id="Fill-7" fill="#E87743" points="97.2762 155.0311 91.4672 159.5951 91.4672 26.1131 97.2762 21.5481"></polygon>
            <polygon id="Stroke-9" stroke="#221F20" stroke-width="2" stroke-linejoin="round" points="97.2762 155.0311 91.4672 159.5951 91.4672 26.1131 97.2762 21.5481"></polygon>
            <polygon id="Fill-11" fill="#89351E" points="91.467 25.952 91.467 159.596 83.844 156.421 83.844 22.932"></polygon>
            <polygon id="Stroke-13" stroke="#221F20" stroke-width="2" stroke-linejoin="round" points="91.467 25.952 91.467 159.596 83.844 156.421 83.844 22.932"></polygon>
            <polygon id="Fill-15" fill="#231F20" opacity="0.2" points="97.2762 28.1084 91.4672 39.6914 91.4672 26.1124 97.2762 21.5484"></polygon>
            <g id="Group-20" transform="translate(94.000000, 27.131000)">
                <path d="M0.6335,0.4075 L0.6335,112.9165" id="Fill-17" fill="#89351E"></path>
                <path d="M0.6335,0.4075 L0.6335,112.9165" id="Stroke-19" stroke="#221F20" stroke-linejoin="round"></path>
            </g>
            <g id="Group-24" transform="translate(135.000000, 155.131000)">
                <polyline id="Fill-21" fill="#89351E" points="2.4062 0.333 6.9582 9.611 0.3852 14.939"></polyline>
                <polyline id="Stroke-23" stroke="#221F20" stroke-width="2" stroke-linejoin="round" points="2.4062 0.333 6.9582 9.611 0.3852 14.939"></polyline>
            </g>
            <g id="Group-28" transform="translate(109.000000, 28.131000)">
                <path d="M0.8602,0.4509 L0.8602,18.5749" id="Fill-25" fill="#D49328"></path>
                <path d="M0.8602,0.4509 L0.8602,18.5749" id="Stroke-27" stroke="#221F20" stroke-width="2" stroke-linejoin="round"></path>
            </g>
            <polygon id="Fill-29" fill="#D3D3D2" points="127.6797 112.2449 94.6337 88.7919 94.6337 64.8399 127.6797 75.9529"></polygon>
            <polygon id="Stroke-31" stroke="#221F20" stroke-width="2" stroke-linejoin="round" points="127.6797 112.2449 94.6337 88.7919 94.6337 64.8399 127.6797 75.9529"></polygon>
            <polygon id="Fill-33" fill="#FEFEFE" points="127.6797 108.9993 94.6337 85.5463 94.6337 88.7923 127.6797 112.2453"></polygon>
            <polygon id="Stroke-35" stroke="#221F20" stroke-width="2" stroke-linejoin="round" points="127.6797 108.9993 94.6337 85.5463 94.6337 88.7923 127.6797 112.2453"></polygon>
            <polygon id="Fill-37" fill="#FEFEFE" points="128.3347 78.8317 127.0247 80.0777 127.0247 62.1577 128.3347 60.9117"></polygon>
            <polygon id="Stroke-39" stroke="#221F20" stroke-width="2" stroke-linejoin="round" points="128.3347 78.8317 127.0247 80.0777 127.0247 62.1577 128.3347 60.9117"></polygon>
            <polygon id="Fill-41" fill="#4E150D" points="127.0247 81.6047 93.2147 68.7567 93.2147 49.5207 127.0247 62.1597"></polygon>
            <polygon id="Stroke-43" stroke="#221F20" stroke-width="2" stroke-linejoin="round" points="127.0247 81.6047 93.2147 68.7567 93.2147 49.5207 127.0247 62.1597"></polygon>
            <polyline id="Stroke-45" stroke="#221F20" stroke-width="2" stroke-linejoin="round" points="93.2149 49.5203 95.7469 48.7103 128.3349 60.7843"></polyline>
            <polygon id="Fill-47" fill="#FEFEFE" points="126.6565 76.3646 125.3465 77.6106 125.3465 59.6906 126.6565 58.4446"></polygon>
            <polygon id="Stroke-49" stroke="#221F20" stroke-width="2" stroke-linejoin="round" points="126.6565 76.3646 125.3465 77.6106 125.3465 59.6906 126.6565 58.4446"></polygon>
            <polygon id="Fill-51" fill="#89351E" points="125.3464 77.6104 91.5364 65.1284 91.5364 47.0534 125.3464 59.6934"></polygon>
            <polygon id="Stroke-53" stroke="#221F20" stroke-width="2" stroke-linejoin="round" points="125.3464 77.6104 91.5364 65.1284 91.5364 47.0534 125.3464 59.6934"></polygon>
            <polygon id="Fill-55" fill="#4E150D" points="128.9904 57.0121 96.4024 44.9381 91.5364 47.0531 125.3464 59.6911"></polygon>
            <polygon id="Stroke-57" stroke="#221F20" stroke-width="2" stroke-linejoin="round" points="128.9904 57.0121 96.4024 44.9381 91.5364 47.0531 125.3464 59.6911"></polygon>
            <polygon id="Fill-59" fill="#FEFEFE" points="128.259 139.2402 129.569 137.9942 129.569 126.6342 128.259 126.1432"></polygon>
            <polygon id="Stroke-61" stroke="#221F20" stroke-width="2" stroke-linejoin="round" points="128.259 139.2402 129.569 137.9942 129.569 126.6342 128.259 126.1432"></polygon>
            <g id="Group-66" transform="translate(94.000000, 111.131000)">
                <polyline id="Fill-63" fill="#E87743" points="0.4492 2.1339 34.2592 14.7739 34.2592 14.7709 35.5692 13.5259 35.5692 12.6349 2.9812 0.5609 2.9812 3.0649"></polyline>
                <polyline id="Stroke-65" stroke="#221F20" stroke-width="2" stroke-linejoin="round" points="0.4492 2.1339 34.2592 14.7739 34.2592 14.7709 35.5692 13.5259 35.5692 12.6349 2.9812 0.5609 2.9812 3.0649"></polyline>
            </g>
            <polygon id="Fill-67" fill="#FEFEFE" points="128.259 125.9048 128.259 126.1428 129.569 126.6348 129.569 124.6568 128.259 125.9028"></polygon>
            <polygon id="Stroke-69" stroke="#221F20" stroke-width="2" stroke-linejoin="round" points="128.259 125.9048 128.259 126.1428 129.569 126.6348 129.569 124.6568 128.259 125.9028"></polygon>
            <path d="M112.1989,138.3092 C111.8569,138.5152 111.4889,138.6782 111.0909,138.7802 C108.3179,139.4902 105.3379,137.2032 104.4339,133.6722 C103.5309,130.1422 105.0469,126.7042 107.8199,125.9952 C110.5929,125.2852 113.5729,127.5722 114.4769,131.1022 C114.7359,132.1182 114.7899,133.1232 114.6779,134.0602 C114.5139,136.0522 113.6089,137.6852 112.1989,138.3092 L112.1989,138.3092 Z M94.4489,113.2652 L94.4489,140.0482 L128.2589,152.5302 L128.2589,139.2402 L128.2589,126.1432 L94.4489,113.2652 Z" id="Fill-71" fill="#89351E"></path>
            <path d="M112.1989,138.3092 C111.8569,138.5152 111.4889,138.6782 111.0909,138.7802 C108.3179,139.4902 105.3379,137.2032 104.4339,133.6722 C103.5309,130.1422 105.0469,126.7042 107.8199,125.9952 C110.5929,125.2852 113.5729,127.5722 114.4769,131.1022 C114.7359,132.1182 114.7899,133.1232 114.6779,134.0602 C114.5139,136.0522 113.6089,137.6852 112.1989,138.3092 Z M94.4489,113.2652 L94.4489,140.0482 L128.2589,152.5302 L128.2589,139.2402 L128.2589,126.1432 L94.4489,113.2652 Z" id="Stroke-73" stroke="#221F20" stroke-width="2" stroke-linejoin="round"></path>
            <polygon id="Fill-75" fill="#FEFEFE" points="128.259 125.9048 94.449 113.2648 128.259 126.1428"></polygon>
            <polygon id="Stroke-77" stroke="#221F20" stroke-width="2" stroke-linejoin="round" points="128.259 125.9048 94.449 113.2648 128.259 126.1428"></polygon>
            <path d="M114.4766,131.1026 C113.5736,127.5726 110.5926,125.2856 107.8196,125.9946 C105.0466,126.7046 103.5306,130.1416 104.4346,133.6726 C105.3376,137.2026 108.3186,139.4896 111.0916,138.7796 C111.4886,138.6786 111.8566,138.5146 112.1986,138.3096 C112.0406,138.3796 111.8776,138.4406 111.7076,138.4836 C109.3326,139.0916 106.7006,136.8216 105.8286,133.4126 C104.9566,130.0046 106.1746,126.7496 108.5486,126.1416 C110.9236,125.5336 113.5546,127.8046 114.4276,131.2126 C114.6786,132.1956 114.7516,133.1626 114.6776,134.0606 C114.7906,133.1236 114.7366,132.1176 114.4766,131.1026" id="Fill-79" fill="#89351E"></path>
            <path d="M114.4766,131.1026 C113.5736,127.5726 110.5926,125.2856 107.8196,125.9946 C105.0466,126.7046 103.5306,130.1416 104.4346,133.6726 C105.3376,137.2026 108.3186,139.4896 111.0916,138.7796 C111.4886,138.6786 111.8566,138.5146 112.1986,138.3096 C112.0406,138.3796 111.8776,138.4406 111.7076,138.4836 C109.3326,139.0916 106.7006,136.8216 105.8286,133.4126 C104.9566,130.0046 106.1746,126.7496 108.5486,126.1416 C110.9236,125.5336 113.5546,127.8046 114.4276,131.2126 C114.6786,132.1956 114.7516,133.1626 114.6776,134.0606 C114.7906,133.1236 114.7366,132.1176 114.4766,131.1026 Z" id="Stroke-81" stroke="#221F20" stroke-width="2" stroke-linejoin="round"></path>
            <path d="M114.6407,134.4319 L127.9627,139.5349" id="Stroke-83" stroke="#221F20" stroke-width="2" stroke-linejoin="round"></path>
            <polyline id="Stroke-85" stroke="#221F20" stroke-width="2" stroke-linejoin="round" points="94.1528 126.8946 104.1738 130.5816 105.5638 130.1036"></polyline>
            <g id="Group-90" transform="translate(94.000000, 45.131000)">
                <path d="M0.6335,0.8647 L34.4435,13.5017" id="Fill-87" fill="#89351E"></path>
                <path d="M0.6335,0.8647 L34.4435,13.5017" id="Stroke-89" stroke="#221F20" stroke-linejoin="round"></path>
            </g>
            <polygon id="Fill-91" fill="#89351E" points="131.7219 38.5196 131.7219 174.1936 124.0989 171.0186 124.0989 35.3386"></polygon>
            <polygon id="Stroke-93" stroke="#221F20" stroke-width="2" stroke-linejoin="round" points="131.7219 38.5196 131.7219 174.1936 124.0989 171.0186 124.0989 35.3386"></polygon>
            <polygon id="Fill-95" fill="#E87743" points="137.5311 169.6289 131.7221 174.1929 131.7221 38.5199 137.5311 33.9549"></polygon>
            <polygon id="Stroke-97" stroke="#221F20" stroke-width="2" stroke-linejoin="round" points="137.5311 169.6289 131.7221 174.1929 131.7221 38.5199 137.5311 33.9549"></polygon>
            <polygon id="Fill-99" fill="#231F20" opacity="0.2" points="137.5311 40.5153 131.7221 52.0983 131.7221 38.5193 137.5311 33.9553"></polygon>
            <polygon id="Fill-101" fill="#4E150D" points="140.4112 36.1774 133.8382 41.5054 133.8382 32.8254 140.4112 27.4974"></polygon>
            <polygon id="Stroke-103" stroke="#221F20" stroke-width="2" stroke-linejoin="round" points="140.4112 36.1774 133.8382 41.5054 133.8382 32.8254 140.4112 27.4974"></polygon>
            <polygon id="Fill-105" fill="#4E150D" points="133.8384 41.5596 81.3844 22.1506 81.3844 14.0016 133.8384 32.6466"></polygon>
            <polygon id="Stroke-107" stroke="#221F20" stroke-width="2" stroke-linejoin="round" points="133.8384 41.5596 81.3844 22.1506 81.3844 14.0016 133.8384 32.6466"></polygon>
            <polygon id="Fill-109" fill="#4E150D" points="133.8384 28.8166 133.8384 28.6376 81.3844 9.9926 81.3844 18.9046 133.8384 38.3146 133.8384 38.2596 140.4114 32.1686 140.4114 23.4886"></polygon>
            <g id="Group-114" transform="translate(102.000000, 45.131000)">
                <path d="M7.8602,0.0388 L0.2512,3.5798" id="Fill-111" fill="#89351E"></path>
                <path d="M7.8602,0.0388 L0.2512,3.5798" id="Stroke-113" stroke="#221F20" stroke-linejoin="round"></path>
            </g>
            <g id="Group-118" transform="translate(110.000000, 45.131000)">
                <path d="M0.0291,0.2618 L6.6441,9.0918" id="Fill-115" fill="#89351E"></path>
                <path d="M0.0291,0.2618 L6.6441,9.0918" id="Stroke-117" stroke="#221F20" stroke-linejoin="round"></path>
            </g>
            <g id="Group-122" transform="translate(116.000000, 156.131000)">
                <polyline id="Fill-119" fill="#4E150D" points="6.4111 23.0201 0.9081 20.9371 7.4611 0.1621 13.1251 1.9911"></polyline>
                <polyline id="Stroke-121" stroke="#221F20" stroke-width="2" stroke-linejoin="round" points="6.4111 23.0201 0.9081 20.9371 7.4611 0.1621 13.1251 1.9911"></polyline>
            </g>
            <polygon id="Fill-123" fill="#89351E" points="129.1447 173.9339 122.5717 179.2619 129.1247 158.1219"></polygon>
            <polygon id="Stroke-125" stroke="#221F20" stroke-width="2" stroke-linejoin="round" points="129.1447 173.9339 122.5717 179.2619 129.1247 158.1219"></polygon>
            <g id="Group-130" transform="translate(76.000000, 141.131000)">
                <polyline id="Fill-127" fill="#4E150D" points="6.3266 22.9996 0.8236 20.9166 7.3766 0.1416 13.0406 1.9706"></polyline>
                <polyline id="Stroke-129" stroke="#221F20" stroke-width="2" stroke-linejoin="round" points="6.3266 22.9996 0.8236 20.9166 7.3766 0.1416 13.0406 1.9706"></polyline>
            </g>
            <polygon id="Fill-131" fill="#89351E" points="89.0602 158.9133 82.4872 164.2413 89.0402 143.1013"></polygon>
            <polygon id="Stroke-133" stroke="#221F20" stroke-width="2" stroke-linejoin="round" points="89.0602 158.9133 82.4872 164.2413 89.0402 143.1013"></polygon>
            <path d="M109.8602,47.5422 L109.8602,47.5422 C109.0032,47.5422 108.3082,46.8472 108.3082,45.9902 L108.3082,44.3492 C108.3082,43.4922 109.0032,42.7972 109.8602,42.7972 C110.7172,42.7972 111.4122,43.4922 111.4122,44.3492 L111.4122,45.9902 C111.4122,46.8472 110.7172,47.5422 109.8602,47.5422" id="Fill-135" fill="#D49328"></path>
            <path d="M109.8602,47.5422 L109.8602,47.5422 C109.0032,47.5422 108.3082,46.8472 108.3082,45.9902 L108.3082,44.3492 C108.3082,43.4922 109.0032,42.7972 109.8602,42.7972 C110.7172,42.7972 111.4122,43.4922 111.4122,44.3492 L111.4122,45.9902 C111.4122,46.8472 110.7172,47.5422 109.8602,47.5422 Z" id="Stroke-137" stroke="#221F20" stroke-width="2" stroke-linejoin="round"></path>
            <g id="Group-142" transform="translate(77.000000, 0.131000)">
                <polyline id="Fill-139" fill="#E87743" points="0.8498 6.1971 7.4228 0.8691 66.0868 22.0791 59.5148 27.4071"></polyline>
                <polyline id="Stroke-141" stroke="#221F20" stroke-width="2" stroke-linejoin="round" points="0.8498 6.1971 7.4228 0.8691 66.0868 22.0791 59.5148 27.4071"></polyline>
            </g>
            <polygon id="Fill-143" fill="#89351E" points="143.0872 31.3216 136.5142 36.6496 136.5142 27.5386 143.0872 22.2106"></polygon>
            <polygon id="Stroke-145" stroke="#221F20" stroke-width="2" stroke-linejoin="round" points="143.0872 31.3216 136.5142 36.6496 136.5142 27.5386 143.0872 22.2106"></polygon>
            <polygon id="Fill-147" fill="#89351E" points="136.5144 36.6498 77.8494 15.4398 77.8494 6.3278 136.5144 27.5388"></polygon>
            <polygon id="Stroke-149" stroke="#221F20" stroke-width="2" stroke-linejoin="round" points="136.5144 36.6498 77.8494 15.4398 77.8494 6.3278 136.5144 27.5388"></polygon>
        </g>
    </g>
</svg>
