<?xml version="1.0" encoding="UTF-8" standalone="no"?>
<svg width="228px" height="240px" viewBox="0 0 228 240" version="1.1" xmlns="http://www.w3.org/2000/svg" xmlns:xlink="http://www.w3.org/1999/xlink">
    <!-- Generator: Sketch 42 (36781) - http://www.bohemiancoding.com/sketch -->
    <title>sendnudes</title>
    <desc>Created with Sketch.</desc>
    <defs>
        <linearGradient id="lightgradient" x1="0" x2="0" y1="0" y2="1">
          <stop offset="30%" stop-color="#F06BA8" />
          <stop offset="80%" stop-color="#FFFFFF" />
        </linearGradient>
        <polygon id="path-1" points="0.742 76.4985 0.742 76.52 95.286 0.525 153.019 0.5256 153.019 21.5658052 58.475 97.69 0.742 76.652 0.742 76.5645"></polygon>
        <polygon id="path-3" points="57.8197863 30.5831 69.0197 21.5652416 69.0197 0.5261 11.2890184 0.5261 0.1547 9.47240167 0.1547 30.5831 57.8197863 30.5831"></polygon>
        <polygon id="path-5" points="73.4675 21.6184567 58.475 33.69 0.742 12.652 0.742 12.477 0.742 12.52 16.0904866 0.1828 73.4675 0.1828 73.4675 21.6184567"></polygon>
        <polygon id="path-7" points="28.2778 0.11 0 0.11 0 44 28.2778 44 56.5556 44 56.5556 0.11"></polygon>
    </defs>
    <g id="Page-1" stroke="none" stroke-width="1" fill="none" fill-rule="evenodd">
        <g id="sendnudes" transform="translate(-88.000000, -110.000000)">
            <g transform="translate(88.000000, 110.000000)">
                <g id="phone">
                    <path d="M203.2421,131.2584 L148.2691,110.8704 C143.4361,109.1374 138.0481,110.0434 134.0491,113.2644 L28.3721,198.7174 L21.0971,204.4604 C19.4161,205.7874 18.4351,207.8114 18.4351,209.9534 C18.4351,213.0324 20.4481,215.7494 23.3931,216.6474 L80.5531,239.1454 C85.0891,240.5244 90.0141,239.5804 93.7191,236.6214 L96.5781,234.3374 L204.8161,146.5224 C210.0041,142.3784 209.1671,134.2564 203.2421,131.2584" id="shadow" opacity="0.3" fill="#221F20"></path>
                    <g id="Group-9" transform="translate(19.000000, 102.768000)">
                        <path d="M184.8432,21.4144 L129.8702,1.0264 C125.0372,-0.7066 119.6492,0.1994 115.6502,3.4204 L9.9732,88.8734 L2.6982,94.6164 C1.0172,95.9434 0.0362,97.9674 0.0362,100.1094 C0.0362,103.1884 2.0492,105.9054 4.9942,106.8034 L62.1542,129.3014 C66.6902,130.6804 71.6152,129.7364 75.3202,126.7774 L78.1792,124.4934 L186.4172,36.6784 C191.6052,32.5344 190.7682,24.4124 184.8432,21.4144" id="Fill-3" fill="#2C2B2B"></path>
                        <path d="M184.8432,21.4144 L129.8702,1.0264 C125.0372,-0.7066 119.6492,0.1994 115.6502,3.4204 L9.9732,88.8734 L2.6982,94.6164 C1.0172,95.9434 0.0362,97.9674 0.0362,100.1094 C0.0362,103.1884 2.0492,105.9054 4.9942,106.8034 L62.1542,129.3014 C66.6902,130.6804 71.6152,129.7364 75.3202,126.7774 L78.1792,124.4934 L186.4172,36.6784 C191.6052,32.5344 190.7682,24.4124 184.8432,21.4144 Z" id="Stroke-5" stroke="#221F20" stroke-width="2" stroke-linejoin="round"></path>
                        <path d="M63.7414,122.5292 L5.1174,100.4722 C2.2124,99.5892 1.4814,95.8142 3.8464,93.9102 L115.7524,3.4202 C119.7524,0.1992 125.1394,-0.7068 129.9734,1.0272 L184.5194,21.4342 C187.7754,22.6022 188.4874,26.8882 185.7854,29.0462 L73.5734,120.6442 C70.8074,122.8542 67.1294,123.5592 63.7414,122.5292" id="Fill-7" fill="#221F20"></path>
                    </g>
                    <g id="Group-37" transform="translate(38.000000, 114.768000)">
                        <g id="Group-12">
                            <mask id="mask-2" fill="white">
                                <use xlink:href="#path-1"></use>
                            </mask>
                            <g id="Clip-11"></g>
                            <polygon id="Fill-10" fill="#ECECEC" mask="url(#mask-2)" points="0.742 76.6516 58.475 97.6906 153.019 21.5646 95.287 0.5256 0.742 76.5196 0.742 76.4766"></polygon>
                        </g>
                        <path d="M49.3471,53.282 L71.2161,61.273 C73.4841,62.102 76.0221,61.679 77.8981,60.158 L83.3371,55.752 C84.5121,54.8 84.2001,52.931 82.7801,52.412 L64.9581,45.896 C62.1791,44.883 59.0731,45.403 56.7751,47.264 L49.3471,53.282 Z" id="Fill-13" fill="#B2B2B2"></path>
                        <path d="M53.1742,71.8647 L74.8122,79.7707 L83.2762,72.9147 C84.4512,71.9627 84.1392,70.0927 82.7192,69.5737 L64.8972,63.0577 C62.1182,62.0447 59.0122,62.5647 56.7142,64.4257 L52.5022,67.8387 C51.0862,68.9857 51.4622,71.2387 53.1742,71.8647" id="Fill-15" fill="#31ABE1"></path>
                        <path d="M94.4138,39.1178 L116.0518,47.0238 L124.5158,40.1678 C125.6908,39.2158 125.3788,37.3458 123.9588,36.8268 L106.1368,30.3108 C103.3578,29.2978 100.2518,29.8178 97.9538,31.6788 L93.7418,35.0918 C92.3258,36.2388 92.7018,38.4918 94.4138,39.1178" id="Fill-17" fill="#31ABE1"></path>
                        <path d="M62.494,43.2653 L84.363,51.2563 C86.631,52.0853 89.169,51.6623 91.045,50.1413 L96.484,45.7353 C97.659,44.7833 97.347,42.9143 95.927,42.3953 L78.105,35.8793 C75.326,34.8663 72.22,35.3863 69.922,37.2473 L62.494,43.2653 Z" id="Fill-19" fill="#B2B2B2"></path>
                        <path d="M88.6988,20.5442 L110.5678,28.5352 C112.8358,29.3642 115.3738,28.9412 117.2498,27.4202 L122.6888,23.0142 C123.8638,22.0622 123.5518,20.1932 122.1318,19.6742 L104.3098,13.1582 C101.5308,12.1452 98.4248,12.6652 96.1268,14.5262 L88.6988,20.5442 Z" id="Fill-21" fill="#B2B2B2"></path>
                        <path d="M46.7678,51.3608 C43.9298,51.9378 41.3508,51.0388 41.0078,49.3528 C40.6648,47.6658 42.6878,45.8308 45.5258,45.2538 C48.3638,44.6768 50.9428,45.5758 51.2858,47.2618 C51.6288,48.9488 49.6058,50.7838 46.7678,51.3608" id="Fill-23" fill="#010202"></path>
                        <path d="M45.0381,50.7464 C43.6951,51.0194 42.4741,50.5944 42.3121,49.7964 C42.1501,48.9984 43.1071,48.1294 44.4501,47.8564 C45.7931,47.5834 47.0141,48.0084 47.1761,48.8064 C47.3381,49.6044 46.3811,50.4734 45.0381,50.7464" id="Fill-25" fill="#DFC298"></path>
                        <path d="M46.652,49.9626 C45.309,50.2356 46.202,47.5486 42.823,48.6306 C42.048,48.8786 43.448,47.4826 44.791,47.2096 C46.135,46.9366 47.491,47.7136 47.653,48.5116 C47.815,49.3096 47.995,49.6896 46.652,49.9626" id="Fill-27" fill="#C38B2B"></path>
                        <path d="M45.0783,50.2437 C44.9133,50.2777 44.7623,50.2247 44.7423,50.1267 C44.7223,50.0287 44.8403,49.9217 45.0063,49.8877 C45.1713,49.8547 45.3213,49.9067 45.3413,50.0047 C45.3613,50.1027 45.2433,50.2097 45.0783,50.2437" id="Fill-29" fill="#010202"></path>
                        <g id="Group-33" transform="translate(84.000000, 0.000000)">
                            <mask id="mask-4" fill="white">
                                <use xlink:href="#path-3"></use>
                            </mask>
                            <g id="Clip-32"></g>
                            <polygon id="Fill-31" fill="#31ABE1" mask="url(#mask-4)" points="0.1547 9.5441 57.8877 30.5831 69.0197 21.5641 11.2867 0.5261"></polygon>
                        </g>
                        <g id="Group-36" transform="translate(0.000000, 64.000000)">
                            <mask id="mask-6" fill="white">
                                <use xlink:href="#path-5"></use>
                            </mask>
                            <g id="Clip-35"></g>
                            <polygon id="Fill-34" fill="#FEFEFE" mask="url(#mask-6)" points="-1.6435 14.0488 56.0895 35.0878 73.4675 21.2208 15.7355 0.1828"></polygon>
                        </g>
                    </g>
                    <polygon id="light" fill="#FFFFFF" opacity="0.2" points="39.356 190.778 0 102.288 104.033 0.768 227.519 53.395 194.019 134.294 97.089 211.817"></polygon>
                </g>
                <g id="heart" transform="translate(85.000000, 17.000000)">
                    <g id="Group-3" transform="translate(0.000000, 0.890400)">
                        <mask id="mask-8" fill="white">
                            <use xlink:href="#path-7"></use>
                        </mask>
                        <g id="Clip-2"></g>
                        <path d="M34.6106,44 L-0.0004,44 L-0.0004,22.055 C-0.0004,9.935 9.8256,0.11 21.9456,0.11 L34.6106,0.11 C46.7306,0.11 56.5556,9.935 56.5556,22.055 L56.5556,22.055 C56.5556,34.175 46.7306,44 34.6106,44" id="Fill-1" fill="#F1EFEF" mask="url(#mask-8)"></path>
                    </g>
                    <path d="M12.545,24.6257 C12.599,24.6257 12.653,24.6267 12.707,24.6267 C12.969,24.9827 12.969,25.3387 12.706,25.6947 L12.545,25.6947 L12.545,24.6257 Z" id="Fill-4" fill="#FEF3EB"></path>
                    <path d="M25.3492,16.4059 C28.1632,17.5849 30.2322,19.4609 31.0572,22.5039 C31.6102,24.5449 31.4162,26.5379 30.6652,28.4879 C30.5112,28.8889 30.4332,29.1809 30.7312,29.5859 C31.1472,30.1509 30.9562,30.7309 30.2912,31.3789 C28.5472,32.1489 26.6912,32.5379 24.8142,32.5619 C21.5172,32.6039 18.4532,31.4829 16.7292,27.9229 C15.5762,25.5399 16.4312,22.9459 18.2212,21.6389 C19.6152,20.6209 21.1232,20.1039 22.8472,20.2509 C22.9492,20.2599 23.0492,20.2719 23.1512,20.2629 C23.2052,20.2579 23.2502,20.2369 23.3262,20.1449 C23.1492,19.7919 22.7912,19.6789 22.4422,19.5699 C21.2992,19.2149 20.1342,19.2849 18.9692,19.4189 C18.6942,19.4499 18.4302,19.5769 18.1442,19.5169 C17.8352,18.9949 18.4062,18.8079 18.5472,18.4569 C18.7512,18.2229 19.0232,18.0689 19.2492,17.8599 C20.6922,16.5539 22.3642,15.8969 24.3282,16.0609 C24.6622,16.1949 25.0802,16.0819 25.3492,16.4059" id="Fill-6" fill="#F79556"></path>
                    <path d="M18.0309,19.422 C19.4249,19.035 20.8299,18.995 22.2439,19.288 C22.4419,19.329 22.6379,19.393 22.8249,19.469 C23.2329,19.636 23.7929,19.932 23.6999,20.291 C23.5929,20.709 23.0099,20.445 22.6189,20.428 C21.0729,20.358 19.6899,20.812 18.4289,21.719 C17.1879,22.612 16.5389,23.846 16.4039,25.309 C16.2789,26.667 16.7329,27.969 17.5519,29.014 C18.2729,29.935 19.0929,30.826 20.2069,31.369 C22.4989,32.485 24.8749,32.555 27.3149,32.054 C28.1349,31.886 28.9469,31.694 29.7339,31.401 C29.8979,31.34 30.0999,31.171 30.2909,31.379 C28.6189,32.774 26.6299,33.45 24.5259,33.731 C20.5789,34.259 17.2349,33.15 14.6229,29.994 C13.5599,28.71 13.0309,27.267 12.7069,25.694 L12.7069,24.627 C12.9899,22.486 14.4179,21.265 16.1749,20.307 C16.4179,20.175 16.6569,20.032 16.8969,19.894 C17.1219,19.623 17.4309,19.481 17.7449,19.346 C17.8519,19.327 17.9509,19.339 18.0309,19.422" id="Fill-8" fill="#F17D2D"></path>
                    <path d="M19.2554,18.0365 C19.0834,18.1955 18.9114,18.3545 18.7384,18.5135 C18.4044,18.5565 18.0694,18.5015 17.7844,18.3565 C17.3684,18.1455 17.2744,18.4275 17.1364,18.6885 C16.8264,18.6915 16.6974,18.5615 16.8144,18.2505 C17.0064,18.0395 17.0014,17.7855 16.9444,17.5345 C16.5234,15.6735 17.2784,14.3415 18.8154,13.3645 C20.1524,12.5155 21.6494,12.2455 23.1884,12.3365 C24.6794,12.4245 26.1604,12.6745 27.6484,12.8265 C28.1844,12.8805 27.9664,13.1595 27.8564,13.3945 C27.2824,14.6135 26.4114,15.5905 25.3494,16.4055 C24.9984,16.3665 24.6334,16.4105 24.3074,16.2245 C24.2674,15.8575 24.5894,15.7735 24.8054,15.6485 C25.6304,15.1725 26.2014,14.4255 26.8614,13.7745 C26.9644,13.6735 27.0784,13.5435 26.9024,13.3985 C25.7644,13.2925 24.6284,13.1525 23.4944,13.1105 C21.3954,13.0335 19.4534,13.4805 18.0794,15.2815 C17.6124,15.8935 17.3454,16.5475 17.5994,17.3245 C17.8744,17.6285 18.2654,17.6075 18.6194,17.6965 C18.8554,17.7555 19.1954,17.6425 19.2554,18.0365" id="Fill-10" fill="#8FC74F"></path>
                    <path d="M16.8142,18.2508 C16.8072,18.4668 16.9442,18.5808 17.1112,18.6748 C17.4752,18.8018 17.7692,18.9868 17.7452,19.4368 C17.4952,19.6488 17.2542,19.8788 16.8972,19.8938 C16.1212,19.2038 15.3352,18.5258 14.3962,18.0608 C14.2812,18.0028 14.1322,17.9728 14.1122,17.8448 C14.0102,17.1778 14.6102,16.9648 14.9752,16.6408 C15.3072,16.3458 15.5022,16.6848 15.6382,16.9748 C15.6102,17.0768 15.5462,17.1518 15.4662,17.2158 C15.2602,17.3988 15.4192,17.5188 15.5472,17.6278 C15.7902,17.8358 16.0952,17.9898 16.2612,18.2638 C16.5622,18.7588 16.3942,18.0688 16.5252,18.1698 C16.6212,18.1968 16.7182,18.2238 16.8142,18.2508" id="Fill-12" fill="#945633"></path>
                    <path d="M16.5251,18.1697 C16.4631,18.4437 16.7771,18.5837 16.7761,18.9237 C16.2131,18.4437 15.6951,18.0057 15.1811,17.5637 C15.0641,17.4637 14.9611,17.3447 15.0571,17.1777 C15.1631,16.9947 15.3111,17.0807 15.4501,17.1317 C15.8791,17.2477 16.0131,17.7137 16.3731,17.9117 L16.5251,18.1697 Z" id="Fill-14" fill="#C27851"></path>
                    <path d="M16.3732,17.9115 C15.9012,17.8465 15.6922,17.4695 15.4502,17.1315 C15.5122,17.0795 15.5752,17.0275 15.6382,16.9755 C15.9332,17.2475 16.2312,17.5185 16.3732,17.9115" id="Fill-16" fill="#9F6444"></path>
                    <path d="M19.2554,18.0365 C18.7944,17.8055 18.2704,17.9005 17.7884,17.7595 C17.5974,17.7035 17.4524,17.6645 17.4334,17.4455 C17.3704,17.1745 17.5554,17.0285 17.7214,16.8725 C18.9394,15.7285 20.2994,14.8435 21.9474,14.4305 C23.6894,13.9925 25.4554,13.6805 27.2114,13.3195 C27.3534,13.6875 27.0434,13.8445 26.8594,14.0505 C26.1074,14.8905 25.2604,15.6195 24.3074,16.2245 C22.3694,16.1215 20.7134,16.8025 19.2554,18.0365" id="Fill-18" fill="#A0CD53"></path>
                    <path d="M24.8556,17.1414 C26.1406,17.1464 27.8146,18.5204 28.0716,19.7724 C28.1036,19.9284 28.1466,20.0874 28.0156,20.1954 C27.8016,20.3714 27.6986,20.1404 27.5886,20.0314 C26.6536,19.1114 25.6306,18.3544 24.2966,18.1194 C24.0926,18.0834 23.7896,18.0444 23.8926,17.7034 C24.0356,17.2324 24.4126,17.1204 24.8556,17.1414" id="Fill-20" fill="#F9AC77"></path>
                    <path d="M17.7456,19.4368 C17.5346,19.1828 17.3226,18.9288 17.1116,18.6748 C17.1306,18.4558 17.1506,18.2368 17.1746,17.9718 C17.7176,18.1598 18.2286,18.3368 18.7386,18.5138 C18.5026,18.8158 18.2666,19.1188 18.0306,19.4218 C17.9356,19.4268 17.8406,19.4318 17.7456,19.4368" id="Fill-22" fill="#F4F4EB"></path>
                    <path d="M27.2118,13.3199 C26.0978,13.9379 24.8378,13.9999 23.6278,14.2229 C21.2228,14.6659 19.0908,15.5859 17.4338,17.4449 C17.0458,16.6599 17.3318,15.9339 17.7648,15.3199 C18.6268,14.0989 19.8378,13.3589 21.3158,13.0669 C23.3038,12.6739 25.2558,13.0309 27.2118,13.3199" id="Fill-24" fill="#77C043"></path>
                    <path d="M40.9125,28.5447 C41.0855,28.7187 41.1725,28.9327 41.1725,29.1857 C41.1725,29.4387 41.0855,29.6547 40.9125,29.8347 C40.7385,30.0157 40.5255,30.1057 40.2715,30.1057 C40.0185,30.1057 39.8085,30.0187 39.6415,29.8457 C39.4755,29.6717 39.3915,29.4517 39.3915,29.1857 C39.3915,28.9327 39.4755,28.7187 39.6415,28.5447 C39.8085,28.3717 40.0185,28.2847 40.2715,28.2847 C40.5255,28.2847 40.7385,28.3717 40.9125,28.5447 M37.9725,17.0957 C38.6515,16.5017 39.5525,16.2047 40.6725,16.2047 C41.7925,16.2047 42.6955,16.4787 43.3825,17.0247 C44.0685,17.5717 44.4125,18.3577 44.4125,19.3857 C44.4125,19.9047 44.3285,20.3617 44.1625,20.7547 C43.9955,21.1487 43.7885,21.4787 43.5425,21.7447 C43.2955,22.0117 42.9725,22.3177 42.5725,22.6647 C41.9985,23.1457 41.5655,23.5957 41.2715,24.0157 C40.9785,24.4357 40.8325,24.9727 40.8325,25.6247 L39.7525,25.6247 C39.7525,25.0787 39.8355,24.6057 40.0025,24.2047 C40.1685,23.8057 40.3725,23.4727 40.6125,23.2047 C40.8515,22.9387 41.1655,22.6387 41.5525,22.3057 C41.9255,21.9727 42.2125,21.6947 42.4125,21.4757 C42.6125,21.2547 42.7825,20.9847 42.9225,20.6647 C43.0615,20.3457 43.1325,19.9727 43.1325,19.5447 C43.1325,18.8247 42.9015,18.2817 42.4415,17.9147 C41.9815,17.5487 41.3585,17.3647 40.5725,17.3647 C39.7855,17.3647 39.1655,17.5587 38.7125,17.9447 C38.2595,18.3317 38.0125,18.8987 37.9725,19.6457 L36.8725,19.6057 C36.9255,18.5247 37.2925,17.6887 37.9725,17.0957" id="Fill-26" fill="#221F20"></path>
                </g>
            </g>
        </g>
    </g>

    <style>

      @-webkit-keyframes heart {
        0%, 40% { opacity: 0; }
        40%, 80% { opacity: 1; }
        90%, 100% {opacity: 0;}

        0% { -webkit-transform: scale(0.5) translate(90px,0); transform: scale(0.5) translate(90px,0); }
        20% { -webkit-transform: scale(1) translate(90px,0); transform: scale(1) translate(90px,0); }
      }

      @keyframes heart {
        0%, 40% { opacity: 0; }
        40%, 80% { opacity: 1; }
        90%, 100% {opacity: 0;}

        0% { -webkit-transform: scale(0.5) translate(90px,0); transform: scale(0.5) translate(90px,0); }
        20% { -webkit-transform: scale(1) translate(90px,0); transform: scale(1) translate(90px,0); }
      }

      #heart {
        opacity: 0;
        -webkit-transform: translate(90px,0);
                transform: translate(90px,0);
        -webkit-transform-origin: 0% 100%;
                transform-origin: 0% 100%;
      	-webkit-animation: heart 5s cubic-bezier(0.23, 1, 0.32, 1) infinite;
      	        animation: heart 5s cubic-bezier(0.23, 1, 0.32, 1) infinite;
      }

      #light {
        fill: url(#lightgradient);
      }
    </style>

</svg>
