<?xml version="1.0" encoding="UTF-8" standalone="no"?>
<svg width="151px" height="152px" viewBox="0 0 151 152" version="1.1" xmlns="http://www.w3.org/2000/svg" xmlns:xlink="http://www.w3.org/1999/xlink">
    <!-- Generator: Sketch 42 (36781) - http://www.bohemiancoding.com/sketch -->
    <title>Page 1</title>
    <desc>Created with Sketch.</desc>
    <defs></defs>
    <g id="Page-1" stroke="none" stroke-width="1" fill="none" fill-rule="evenodd">
        <g>
            <path d="M149.8957,42.6197 L110.7617,69.8467 C108.8247,71.2577 106.3897,71.8037 104.0357,71.3547 L73.5527,67.3897 C72.1367,67.1197 71.7267,65.2907 72.8917,64.4417 L119.0677,33.5557 C119.4357,33.2877 119.8977,33.1837 120.3447,33.2697 L149.2347,39.6717 C150.6497,39.9417 151.0607,41.7717 149.8957,42.6197" id="Fill-1" opacity="0.2" fill="#221F20"></path>
            <g id="Group-11" transform="translate(0.000000, 60.862000)" fill="#221F20">
                <path d="M74.0804,67.8318 C73.2144,65.9238 71.7594,58.7258 70.0874,57.3308 C68.4154,55.9358 65.9134,55.1738 63.7674,55.9438 C61.6224,56.7138 60.4014,60.1188 61.6904,61.8148 L59.9414,61.9668 C57.5564,62.0158 55.1134,62.0148 53.2334,63.3728 C52.2934,64.0508 51.4354,64.9438 51.2844,66.0148 C51.2454,66.2928 51.2674,66.5588 51.3194,66.8168 L51.4984,70.9828 C51.2274,72.9068 53.3114,74.4198 55.3584,74.9538 C61.3664,76.5198 64.8114,75.2568 73.3334,75.3798 C73.9364,75.3888 74.3894,74.7318 74.5524,74.2048 L74.3394,69.2368 C74.4844,68.7668 74.2834,68.2778 74.0804,67.8318" id="Fill-3" opacity="0.2"></path>
                <path d="M42.6981,28.6787 C41.0941,27.1607 38.6311,26.2507 36.4511,26.9317 C34.2721,27.6137 32.8901,31.0487 34.0981,32.8557 L32.3441,32.9237 C29.9581,32.8517 27.5181,32.7267 25.5761,34.0247 C24.6051,34.6737 23.7061,35.5467 23.5041,36.6397 C23.4521,36.9227 23.4611,37.1967 23.5001,37.4647 L23.4811,41.7527 C23.1191,43.7147 25.1301,45.3757 27.1481,46.0277 C33.0761,47.9427 36.5771,46.8217 45.0841,47.3827 C45.6861,47.4227 46.1701,46.7707 46.3571,46.2377 L46.3801,41.1247 C46.5471,40.6497 46.3701,40.1367 46.1881,39.6677 C45.4131,37.6647 44.3021,30.1967 42.6981,28.6787" id="Fill-5" opacity="0.2"></path>
                <path d="M21.5554,78.781 C19.7054,77.38 17.2634,77.327 14.8794,77.226 L13.1344,77.035 C14.4614,75.364 13.3164,71.926 11.1884,71.108 C9.0604,70.29 6.5424,70.999 4.8394,72.359 C3.1374,73.72 1.5224,80.901 0.6134,82.793 C0.4014,83.236 0.1894,83.722 0.3234,84.196 L0.0004,89.168 C0.1514,89.7 0.5894,90.368 1.1924,90.372 C9.7154,90.435 13.1314,91.775 19.1734,90.337 C21.2314,89.847 23.3494,88.377 23.1204,86.443 L23.3924,82.274 C23.4494,82.016 23.4774,81.75 23.4444,81.471 C23.3174,80.394 22.4794,79.481 21.5554,78.781" id="Fill-7" opacity="0.2"></path>
                <path d="M86.146,10.8407 C86.188,10.5957 86.199,10.3457 86.149,10.0867 C85.956,9.0847 85.064,8.2737 84.099,7.6657 C82.167,6.4487 79.727,6.5257 77.342,6.5527 L75.588,6.4637 C76.81,4.8317 75.457,1.6727 73.283,1.0157 C71.109,0.3587 68.64,1.1517 67.024,2.5127 C65.408,3.8737 64.236,10.6777 63.445,12.4957 C63.26,12.9217 63.079,13.3867 63.242,13.8237 L63.224,18.4947 C63.407,18.9847 63.886,19.5867 64.487,19.5607 C72.997,19.1817 76.488,20.2607 82.429,18.6047 C84.453,18.0407 86.477,16.5557 86.13,14.7577 L86.146,10.8407 Z" id="Fill-9" opacity="0.2"></path>
            </g>
            <path d="M67.0224,59.0558 C66.8334,63.4978 56.9184,66.6838 44.8774,66.1708 C32.8364,65.6578 23.2294,61.6408 23.4184,57.1978 C23.6074,52.7558 33.5224,49.5698 45.5634,50.0828 C57.6044,50.5958 67.2114,54.6138 67.0224,59.0558" id="Fill-12" opacity="0.2" fill="#221F20"></path>
            <path d="M73.6685,50.1894 C73.6685,57.6084 63.8985,63.6234 51.8465,63.6234 C39.7945,63.6234 30.0245,57.6084 30.0245,50.1894 C30.0245,42.7704 39.7945,36.7554 51.8465,36.7554 C63.8985,36.7554 73.6685,42.7704 73.6685,50.1894" id="Fill-14" fill="#CBCBCB"></path>
            <path d="M73.6685,50.1894 C73.6685,57.6084 63.8985,63.6234 51.8465,63.6234 C39.7945,63.6234 30.0245,57.6084 30.0245,50.1894 C30.0245,42.7704 39.7945,36.7554 51.8465,36.7554 C63.8985,36.7554 73.6685,42.7704 73.6685,50.1894 Z" id="Stroke-16" stroke="#221F20" stroke-width="2" stroke-linejoin="round"></path>
            <g id="Group-21" transform="translate(30.000000, 41.862000)">
                <polyline id="Fill-18" fill="#FEFEFE" points="43.6685 8.573 43.6685 0.079 0.0245 0.079 0.0245 8.573"></polyline>
                <polyline id="Stroke-20" stroke="#221F20" stroke-width="2" stroke-linejoin="round" points="43.6685 8.573 43.6685 0.079 0.0245 0.079 0.0245 8.573"></polyline>
            </g>
            <path d="M73.6685,41.9412 C73.6685,49.3602 63.8985,55.3752 51.8465,55.3752 C39.7945,55.3752 30.0245,49.3602 30.0245,41.9412 C30.0245,34.5222 39.7945,28.5072 51.8465,28.5072 C63.8985,28.5072 73.6685,34.5222 73.6685,41.9412" id="Fill-22" fill="#FEFEFE"></path>
            <path d="M73.6685,41.9412 C73.6685,49.3602 63.8985,55.3752 51.8465,55.3752 C39.7945,55.3752 30.0245,49.3602 30.0245,41.9412 C30.0245,34.5222 39.7945,28.5072 51.8465,28.5072 C63.8985,28.5072 73.6685,34.5222 73.6685,41.9412 Z" id="Stroke-24" stroke="#221F20" stroke-width="2" stroke-linejoin="round"></path>
            <g id="Group-29" transform="translate(32.000000, 46.862000)">
                <path d="M0.2115,0.6515 L0.2115,9.1925" id="Fill-26" fill="#FEFEFE"></path>
                <path d="M0.2115,0.6515 L0.2115,9.1925" id="Stroke-28" stroke="#221F20" stroke-width="2" stroke-linejoin="round"></path>
            </g>
            <g id="Group-33" transform="translate(36.000000, 50.862000)">
                <path d="M0.5996,0.259 L0.5996,8.8" id="Fill-30" fill="#FEFEFE"></path>
                <path d="M0.5996,0.259 L0.5996,8.8" id="Stroke-32" stroke="#221F20" stroke-width="2" stroke-linejoin="round"></path>
            </g>
            <g id="Group-37" transform="translate(43.000000, 53.862000)">
                <path d="M0.5604,0.5579 L0.5604,8.4369" id="Fill-34" fill="#FEFEFE"></path>
                <path d="M0.5604,0.5579 L0.5604,8.4369" id="Stroke-36" stroke="#221F20" stroke-width="2" stroke-linejoin="round"></path>
            </g>
            <g id="Group-41" transform="translate(71.000000, 47.862000)">
                <path d="M0.391,0.2065 L0.391,8.0855" id="Fill-38" fill="#FEFEFE"></path>
                <path d="M0.391,0.2065 L0.391,8.0855" id="Stroke-40" stroke="#221F20" stroke-width="2" stroke-linejoin="round"></path>
            </g>
            <g id="Group-45" transform="translate(51.000000, 54.862000)">
                <path d="M0.8466,0.22 L0.8466,9.424" id="Fill-42" fill="#FEFEFE"></path>
                <path d="M0.8466,0.22 L0.8466,9.424" id="Stroke-44" stroke="#221F20" stroke-width="2" stroke-linejoin="round"></path>
            </g>
            <g id="Group-49" transform="translate(67.000000, 50.862000)">
                <path d="M0.0937,0.4136 L0.0937,8.9546" id="Fill-46" fill="#FEFEFE"></path>
                <path d="M0.0937,0.4136 L0.0937,8.9546" id="Stroke-48" stroke="#221F20" stroke-width="2" stroke-linejoin="round"></path>
            </g>
            <g id="Group-53" transform="translate(60.000000, 53.862000)">
                <path d="M0.1329,0.0499 L0.1329,8.5909" id="Fill-50" fill="#FEFEFE"></path>
                <path d="M0.1329,0.0499 L0.1329,8.5909" id="Stroke-52" stroke="#221F20" stroke-width="2" stroke-linejoin="round"></path>
            </g>
            <g id="Group-57" transform="translate(73.000000, 0.862000)">
                <path d="M27.4039,67.1129 L66.4819,39.7049 C67.3259,39.2079 68.1329,38.6319 68.8899,37.9709 C76.7249,31.1349 76.4769,18.0299 68.3369,8.7009 C60.6799,-0.0731 48.7699,-2.3801 40.8619,3.0649 L40.8119,2.9959 L0.9769,30.9379" id="Fill-54" fill="#F8981C"></path>
                <path d="M27.4039,67.1129 L66.4819,39.7049 C67.3259,39.2079 68.1329,38.6319 68.8899,37.9709 C76.7249,31.1349 76.4769,18.0299 68.3369,8.7009 C60.6799,-0.0731 48.7699,-2.3801 40.8619,3.0649 L40.8119,2.9959 L0.9769,30.9379" id="Stroke-56" stroke="#221F20" stroke-width="2" stroke-linejoin="round"></path>
            </g>
            <g id="Group-61" transform="translate(53.000000, 121.862000)">
                <path d="M0.5843,0.8779 L0.7973,5.8459 C0.5263,7.7699 2.6113,9.2829 4.6573,9.8159 C10.6663,11.3829 14.1113,10.1199 22.6333,10.2429 C23.2353,10.2519 23.6893,9.5949 23.8513,9.0679 L23.6383,4.0999" id="Fill-58" fill="#AA437D"></path>
                <path d="M0.5843,0.8779 L0.7973,5.8459 C0.5263,7.7699 2.6113,9.2829 4.6573,9.8159 C10.6663,11.3829 14.1113,10.1199 22.6333,10.2429 C23.2353,10.2519 23.6893,9.5949 23.8513,9.0679 L23.6383,4.0999" id="Stroke-60" stroke="#221F20" stroke-width="2" stroke-linejoin="round"></path>
            </g>
            <path d="M62.2411,118.6921 C59.8551,118.7411 57.4131,118.7401 55.5331,120.0971 C54.5931,120.7761 53.7351,121.6681 53.5841,122.7401 C53.3131,124.6641 55.3981,126.1771 57.4441,126.7101 C63.4531,128.2771 66.8981,127.0141 75.4201,127.1371 C76.0221,127.1461 76.4761,126.4891 76.6381,125.9621 C76.7831,125.4921 76.5831,125.0031 76.3801,124.5561 C75.5131,122.6491 74.0581,115.4501 72.3861,114.0551 C70.7151,112.6611 68.2131,111.8991 66.0671,112.6691 C63.9221,113.4391 62.7011,116.8431 63.9901,118.5401 L62.2411,118.6921 Z" id="Fill-62" fill="#E592BE"></path>
            <path d="M62.2411,118.6921 C59.8551,118.7411 57.4131,118.7401 55.5331,120.0971 C54.5931,120.7761 53.7351,121.6681 53.5841,122.7401 C53.3131,124.6641 55.3981,126.1771 57.4441,126.7101 C63.4531,128.2771 66.8981,127.0141 75.4201,127.1371 C76.0221,127.1461 76.4761,126.4891 76.6381,125.9621 C76.7831,125.4921 76.5831,125.0031 76.3801,124.5561 C75.5131,122.6491 74.0581,115.4501 72.3861,114.0551 C70.7151,112.6611 68.2131,111.8991 66.0671,112.6691 C63.9221,113.4391 62.7011,116.8431 63.9901,118.5401 L62.2411,118.6921 Z" id="Stroke-64" stroke="#221F20" stroke-width="2" stroke-linejoin="round"></path>
            <g id="Group-69" transform="translate(25.000000, 92.862000)">
                <path d="M0.8034,0.5024 L0.7804,5.6154 C0.4184,7.5774 2.4294,9.2384 4.4484,9.8904 C10.3754,11.8054 13.8764,10.6844 22.3834,11.2454 C22.9854,11.2854 23.4694,10.6344 23.6564,10.1004 L23.6794,4.9874" id="Fill-66" fill="#7E8E38"></path>
                <path d="M0.8034,0.5024 L0.7804,5.6154 C0.4184,7.5774 2.4294,9.2384 4.4484,9.8904 C10.3754,11.8054 13.8764,10.6844 22.3834,11.2454 C22.9854,11.2854 23.4694,10.6344 23.6564,10.1004 L23.6794,4.9874" id="Stroke-68" stroke="#221F20" stroke-width="2" stroke-linejoin="round"></path>
            </g>
            <path d="M34.6429,89.6484 C32.2579,89.5764 29.8179,89.4514 27.8749,90.7494 C26.9049,91.3984 26.0049,92.2714 25.8029,93.3644 C25.4409,95.3264 27.4519,96.9874 29.4709,97.6394 C35.3979,99.5544 38.8989,98.4334 47.4059,98.9944 C48.0079,99.0344 48.4919,98.3834 48.6799,97.8494 C48.8469,97.3744 48.6689,96.8614 48.4879,96.3934 C47.7129,94.3894 46.6009,86.9214 44.9979,85.4034 C43.3939,83.8854 40.9309,82.9754 38.7509,83.6574 C36.5709,84.3384 35.1899,87.7734 36.3969,89.5814 L34.6429,89.6484 Z" id="Fill-70" fill="#C0D964"></path>
            <path d="M34.6429,89.6484 C32.2579,89.5764 29.8179,89.4514 27.8749,90.7494 C26.9049,91.3984 26.0049,92.2714 25.8029,93.3644 C25.4409,95.3264 27.4519,96.9874 29.4709,97.6394 C35.3979,99.5544 38.8989,98.4334 47.4059,98.9944 C48.0079,99.0344 48.4919,98.3834 48.6799,97.8494 C48.8469,97.3744 48.6689,96.8614 48.4879,96.3934 C47.7129,94.3894 46.6009,86.9214 44.9979,85.4034 C43.3939,83.8854 40.9309,82.9754 38.7509,83.6574 C36.5709,84.3384 35.1899,87.7734 36.3969,89.5814 L34.6429,89.6484 Z" id="Stroke-72" stroke="#221F20" stroke-width="2" stroke-linejoin="round"></path>
            <g id="Group-77" transform="translate(2.000000, 137.862000)">
                <path d="M23.7439,0.3337 L23.4199,5.3057 C23.6489,7.2397 21.5299,8.7097 19.4729,9.1997 C13.4309,10.6377 10.0149,9.2977 1.4919,9.2347 C0.8889,9.2307 0.4499,8.5627 0.2989,8.0307 L0.6229,3.0587" id="Fill-74" fill="#C1AB4B"></path>
                <path d="M23.7439,0.3337 L23.4199,5.3057 C23.6489,7.2397 21.5299,8.7097 19.4729,9.1997 C13.4309,10.6377 10.0149,9.2977 1.4919,9.2347 C0.8889,9.2307 0.4499,8.5627 0.2989,8.0307 L0.6229,3.0587" id="Stroke-76" stroke="#221F20" stroke-width="2" stroke-linejoin="round"></path>
            </g>
            <path d="M17.1791,133.9512 C19.5631,134.0522 22.0051,134.1042 23.8551,135.5062 C24.7791,136.2062 25.6171,137.1192 25.7441,138.1952 C25.9721,140.1292 23.8541,141.5992 21.7961,142.0892 C15.7541,143.5272 12.3381,142.1872 3.8151,142.1242 C3.2131,142.1202 2.7741,141.4522 2.6231,140.9202 C2.4891,140.4462 2.7001,139.9612 2.9131,139.5182 C3.8221,137.6262 5.4361,130.4452 7.1391,129.0842 C8.8421,127.7232 11.3601,127.0152 13.4881,127.8332 C15.6161,128.6512 16.7601,132.0892 15.4341,133.7602 L17.1791,133.9512 Z" id="Fill-78" fill="#F3DF7A"></path>
            <path d="M17.1791,133.9512 C19.5631,134.0522 22.0051,134.1042 23.8551,135.5062 C24.7791,136.2062 25.6171,137.1192 25.7441,138.1952 C25.9721,140.1292 23.8541,141.5992 21.7961,142.0892 C15.7541,143.5272 12.3381,142.1872 3.8151,142.1242 C3.2131,142.1202 2.7741,141.4522 2.6231,140.9202 C2.4891,140.4462 2.7001,139.9612 2.9131,139.5182 C3.8221,137.6262 5.4361,130.4452 7.1391,129.0842 C8.8421,127.7232 11.3601,127.0152 13.4881,127.8332 C15.6161,128.6512 16.7601,132.0892 15.4341,133.7602 L17.1791,133.9512 Z" id="Stroke-80" stroke="#221F20" stroke-width="2" stroke-linejoin="round"></path>
            <path d="M141.3366,9.5648 C149.4766,18.8938 149.7246,31.9978 141.8896,38.8348 C134.0556,45.6708 121.1056,43.6498 112.9656,34.3208 C104.8256,24.9918 104.5776,11.8878 112.4116,5.0518 C120.2466,-1.7852 133.1966,0.2358 141.3366,9.5648 Z" id="Stroke-82" stroke="#221F20" stroke-width="2" stroke-linejoin="round"></path>
            <g id="Group-87" transform="translate(103.000000, 19.862000)">
                <path d="M2.0247,0.1775 L0.5937,5.8795 C-0.3203,7.9745 1.3047,10.3535 3.2157,11.6095 C8.8257,15.2975 12.7597,14.9605 21.4137,17.8105 C22.0257,18.0125 22.7067,17.4125 23.0477,16.8655 L24.4777,11.1635" id="Fill-84" fill="#AA437D"></path>
                <path d="M2.0247,0.1775 L0.5937,5.8795 C-0.3203,7.9745 1.3047,10.3535 3.2157,11.6095 C8.8257,15.2975 12.7597,14.9605 21.4137,17.8105 C22.0257,18.0125 22.7067,17.4125 23.0477,16.8655 L24.4777,11.1635" id="Stroke-86" stroke="#221F20" stroke-width="2" stroke-linejoin="round"></path>
            </g>
            <path d="M115.2001,18.2023 C112.7501,17.4983 110.2581,16.7203 107.8891,17.6623 C106.7061,18.1333 105.5341,18.8723 105.0251,20.0393 C104.1101,22.1353 105.7351,24.5143 107.6461,25.7703 C113.2561,29.4573 117.1901,29.1213 125.8441,31.9713 C126.4561,32.1733 127.1371,31.5723 127.4781,31.0263 C127.7821,30.5393 127.7391,29.9203 127.6801,29.3503 C127.4291,26.9113 128.3331,18.2843 127.0901,16.1713 C125.8471,14.0573 123.5471,12.3973 121.1021,12.5883 C118.6581,12.7793 116.2821,16.2523 117.0351,18.5853 L115.2001,18.2023 Z" id="Fill-88" fill="#E592BE"></path>
            <path d="M115.2001,18.2023 C112.7501,17.4983 110.2581,16.7203 107.8891,17.6623 C106.7061,18.1333 105.5341,18.8723 105.0251,20.0393 C104.1101,22.1353 105.7351,24.5143 107.6461,25.7703 C113.2561,29.4573 117.1901,29.1213 125.8441,31.9713 C126.4561,32.1733 127.1371,31.5723 127.4781,31.0263 C127.7821,30.5393 127.7391,29.9203 127.6801,29.3503 C127.4291,26.9113 128.3331,18.2843 127.0901,16.1713 C125.8471,14.0573 123.5471,12.3973 121.1021,12.5883 C118.6581,12.7793 116.2821,16.2523 117.0351,18.5853 L115.2001,18.2023 Z" id="Stroke-90" stroke="#221F20" stroke-width="2" stroke-linejoin="round"></path>
            <g id="Group-95" transform="translate(86.000000, 37.862000)">
                <path d="M0.17,0.4967 L0.878,6.3327 C0.775,8.6167 3.144,10.2557 5.379,10.7427 C11.938,12.1747 15.49,10.4507 24.591,10.0107 C25.234,9.9787 25.654,9.1747 25.777,8.5427 L25.069,2.7067" id="Fill-92" fill="#AA437D"></path>
                <path d="M0.17,0.4967 L0.878,6.3327 C0.775,8.6167 3.144,10.2557 5.379,10.7427 C11.938,12.1747 15.49,10.4507 24.591,10.0107 C25.234,9.9787 25.654,9.1747 25.777,8.5427 L25.069,2.7067" id="Stroke-94" stroke="#221F20" stroke-width="2" stroke-linejoin="round"></path>
            </g>
            <path d="M95.0112,32.9969 C92.4712,33.2179 89.8662,33.3849 87.9922,35.1129 C87.0562,35.9759 86.2272,37.0869 86.1702,38.3589 C86.0672,40.6429 88.4372,42.2819 90.6712,42.7689 C97.2302,44.2009 100.7822,42.4769 109.8832,42.0369 C110.5262,42.0059 110.9462,41.2009 111.0692,40.5689 C111.1782,40.0059 110.9172,39.4429 110.6572,38.9319 C109.5492,36.7449 107.3012,28.3669 105.3832,26.8389 C103.4652,25.3119 100.7232,24.5869 98.5092,25.6409 C96.2952,26.6949 95.3232,30.7879 96.8622,32.6969 L95.0112,32.9969 Z" id="Fill-96" fill="#E592BE"></path>
            <path d="M95.0112,32.9969 C92.4712,33.2179 89.8662,33.3849 87.9922,35.1129 C87.0562,35.9759 86.2272,37.0869 86.1702,38.3589 C86.0672,40.6429 88.4372,42.2819 90.6712,42.7689 C97.2302,44.2009 100.7822,42.4769 109.8832,42.0369 C110.5262,42.0059 110.9462,41.2009 111.0692,40.5689 C111.1782,40.0059 110.9172,39.4429 110.6572,38.9319 C109.5492,36.7449 107.3012,28.3669 105.3832,26.8389 C103.4652,25.3119 100.7232,24.5869 98.5092,25.6409 C96.2952,26.6949 95.3232,30.7879 96.8622,32.6969 L95.0112,32.9969 Z" id="Stroke-98" stroke="#221F20" stroke-width="2" stroke-linejoin="round"></path>
            <g id="Group-103" transform="translate(106.000000, 36.862000)">
                <path d="M24.7769,0.5054 L25.2359,6.3654 C25.7889,8.5844 23.7889,10.6594 21.6959,11.5784 C15.5479,14.2784 11.7259,13.2904 2.7179,14.6564 C2.0809,14.7534 1.5099,14.0474 1.2649,13.4524 L0.8049,7.5914" id="Fill-100" fill="#4EA4C5"></path>
                <path d="M24.7769,0.5054 L25.2359,6.3654 C25.7889,8.5844 23.7889,10.6594 21.6959,11.5784 C15.5479,14.2784 11.7259,13.2904 2.7179,14.6564 C2.0809,14.7534 1.5099,14.0474 1.2649,13.4524 L0.8049,7.5914" id="Stroke-102" stroke="#221F20" stroke-width="2" stroke-linejoin="round"></path>
            </g>
            <path d="M121.0506,33.8582 C123.5836,33.5732 126.1706,33.2222 128.3496,34.5462 C129.4376,35.2072 130.4696,36.1312 130.7766,37.3672 C131.3296,39.5862 129.3296,41.6612 127.2366,42.5802 C121.0886,45.2802 117.2666,44.2922 108.2586,45.6582 C107.6216,45.7552 107.0506,45.0492 106.8056,44.4532 C106.5866,43.9232 106.7326,43.3202 106.8856,42.7672 C107.5406,40.4042 108.0886,31.7482 109.6666,29.8712 C111.2446,27.9952 113.7896,26.7422 116.1676,27.3382 C118.5466,27.9342 120.3086,31.7552 119.1776,33.9302 L121.0506,33.8582 Z" id="Fill-104" fill="#B8E5FA"></path>
            <path d="M121.0506,33.8582 C123.5836,33.5732 126.1706,33.2222 128.3496,34.5462 C129.4376,35.2072 130.4696,36.1312 130.7766,37.3672 C131.3296,39.5862 129.3296,41.6612 127.2366,42.5802 C121.0886,45.2802 117.2666,44.2922 108.2586,45.6582 C107.6216,45.7552 107.0506,45.0492 106.8056,44.4532 C106.5866,43.9232 106.7326,43.3202 106.8856,42.7672 C107.5406,40.4042 108.0886,31.7482 109.6666,29.8712 C111.2446,27.9952 113.7896,26.7422 116.1676,27.3382 C118.5466,27.9342 120.3086,31.7552 119.1776,33.9302 L121.0506,33.8582 Z" id="Stroke-106" stroke="#221F20" stroke-width="2" stroke-linejoin="round"></path>
            <g id="Group-111" transform="translate(114.000000, 12.862000)">
                <path d="M24.9161,0.1664 L25.3751,6.0264 C25.9281,8.2454 23.9281,10.3204 21.8351,11.2394 C15.6871,13.9394 11.8651,12.9514 2.8571,14.3174 C2.2201,14.4144 1.6491,13.7084 1.4041,13.1134 L0.9441,7.2524" id="Fill-108" fill="#4EA4C5"></path>
                <path d="M24.9161,0.1664 L25.3751,6.0264 C25.9281,8.2454 23.9281,10.3204 21.8351,11.2394 C15.6871,13.9394 11.8651,12.9514 2.8571,14.3174 C2.2201,14.4144 1.6491,13.7084 1.4041,13.1134 L0.9441,7.2524" id="Stroke-110" stroke="#221F20" stroke-width="2" stroke-linejoin="round"></path>
            </g>
            <path d="M129.1898,9.5192 C131.7228,9.2342 134.3098,8.8832 136.4888,10.2072 C137.5768,10.8682 138.6088,11.7922 138.9158,13.0282 C139.4688,15.2472 137.4688,17.3222 135.3758,18.2412 C129.2278,20.9412 125.4058,19.9532 116.3978,21.3192 C115.7608,21.4162 115.1898,20.7102 114.9448,20.1142 C114.7258,19.5842 114.8718,18.9812 115.0248,18.4282 C115.6798,16.0652 116.2278,7.4092 117.8058,5.5322 C119.3838,3.6562 121.9288,2.4032 124.3068,2.9992 C126.6858,3.5952 128.4478,7.4162 127.3168,9.5912 L129.1898,9.5192 Z" id="Fill-112" fill="#B8E5FA"></path>
            <path d="M129.1898,9.5192 C131.7228,9.2342 134.3098,8.8832 136.4888,10.2072 C137.5768,10.8682 138.6088,11.7922 138.9158,13.0282 C139.4688,15.2472 137.4688,17.3222 135.3758,18.2412 C129.2278,20.9412 125.4058,19.9532 116.3978,21.3192 C115.7608,21.4162 115.1898,20.7102 114.9448,20.1142 C114.7258,19.5842 114.8718,18.9812 115.0248,18.4282 C115.6798,16.0652 116.2278,7.4092 117.8058,5.5322 C119.3838,3.6562 121.9288,2.4032 124.3068,2.9992 C126.6858,3.5952 128.4478,7.4162 127.3168,9.5912 L129.1898,9.5192 Z" id="Stroke-114" stroke="#221F20" stroke-width="2" stroke-linejoin="round"></path>
            <g id="Group-119" transform="translate(126.000000, 16.862000)">
                <path d="M16.234,0.9978 L19.827,5.6508 C21.504,7.2048 20.966,10.0358 19.717,11.9508 C16.051,17.5758 12.311,18.8418 5.521,24.9168 C5.041,25.3458 4.177,25.0678 3.646,24.7038 L0.053,20.0508" id="Fill-116" fill="#4EA4C5"></path>
                <path d="M16.234,0.9978 L19.827,5.6508 C21.504,7.2048 20.966,10.0358 19.717,11.9508 C16.051,17.5758 12.311,18.8418 5.521,24.9168 C5.041,25.3458 4.177,25.0678 3.646,24.7038 L0.053,20.0508" id="Stroke-118" stroke="#221F20" stroke-width="2" stroke-linejoin="round"></path>
            </g>
            <path d="M132.1736,20.2478 C134.1376,18.6228 136.1096,16.9128 138.6576,16.8278 C139.9306,16.7848 141.2996,16.9938 142.2336,17.8598 C143.9106,19.4138 143.3736,22.2448 142.1246,24.1608 C138.4586,29.7848 134.7186,31.0508 127.9286,37.1258 C127.4486,37.5548 126.5846,37.2778 126.0526,36.9128 C125.5796,36.5888 125.3716,36.0048 125.1966,35.4578 C124.4516,33.1218 120.1706,25.5778 120.4646,23.1438 C120.7576,20.7098 122.2016,18.2678 124.5176,17.4648 C126.8346,16.6608 130.4016,18.8938 130.6456,21.3338 L132.1736,20.2478 Z" id="Fill-120" fill="#B8E5FA"></path>
            <path d="M132.1736,20.2478 C134.1376,18.6228 136.1096,16.9128 138.6576,16.8278 C139.9306,16.7848 141.2996,16.9938 142.2336,17.8598 C143.9106,19.4138 143.3736,22.2448 142.1246,24.1608 C138.4586,29.7848 134.7186,31.0508 127.9286,37.1258 C127.4486,37.5548 126.5846,37.2778 126.0526,36.9128 C125.5796,36.5888 125.3716,36.0048 125.1966,35.4578 C124.4516,33.1218 120.1706,25.5778 120.4646,23.1438 C120.7576,20.7098 122.2016,18.2678 124.5176,17.4648 C126.8346,16.6608 130.4016,18.8938 130.6456,21.3338 L132.1736,20.2478 Z" id="Stroke-122" stroke="#221F20" stroke-width="2" stroke-linejoin="round"></path>
            <g id="Group-128" transform="translate(79.000000, 0.862000)">
                <path d="M62.3366,8.7012 C54.6806,-0.0728 42.7706,-2.3798 34.8626,3.0642 L34.8116,2.9952 L0.6206,26.9792 L1.3226,26.9792 C3.0416,26.9792 4.6356,27.4442 6.0706,28.2432 C12.0106,29.1532 17.8446,33.4962 21.5216,37.7242 C26.7826,43.7732 29.4506,51.9522 28.4226,59.9672 C28.3636,60.4282 28.2776,60.8802 28.1796,61.3282 C28.1826,61.6592 28.1866,61.9902 28.1866,62.3222 C28.1866,62.3342 28.1856,62.3452 28.1856,62.3562 L60.4816,39.7042 C61.3266,39.2072 62.1326,38.6322 62.8896,37.9702 C70.7246,31.1342 70.4766,18.0302 62.3366,8.7012" id="Fill-124" opacity="0.8" fill="#F8981C"></path>
                <path d="M62.3366,8.7012 C54.6806,-0.0728 42.7706,-2.3798 34.8626,3.0642 L34.8116,2.9952 L0.6206,26.9792 L1.3226,26.9792 C3.0416,26.9792 4.6356,27.4442 6.0706,28.2432 C12.0106,29.1532 17.8446,33.4962 21.5216,37.7242 C26.7826,43.7732 29.4506,51.9522 28.4226,59.9672 C28.3636,60.4282 28.2776,60.8802 28.1796,61.3282 C28.1826,61.6592 28.1866,61.9902 28.1866,62.3222 C28.1866,62.3342 28.1856,62.3452 28.1856,62.3562 L60.4816,39.7042 C61.3266,39.2072 62.1326,38.6322 62.8896,37.9702 C70.7246,31.1342 70.4766,18.0302 62.3366,8.7012 Z" id="Stroke-126" stroke="#221F20" stroke-width="2" stroke-linejoin="round"></path>
            </g>
            <path d="M100.3476,38.6004 C109.7186,49.3394 110.7356,63.7864 102.6186,70.8684 C94.5026,77.9504 80.3276,74.9854 70.9566,64.2464 C61.5856,53.5074 60.5686,39.0604 68.6846,31.9784 C76.8016,24.8964 90.9766,27.8614 100.3476,38.6004" id="Fill-129" fill="#F8981C"></path>
            <path d="M100.3476,38.6004 C109.7186,49.3394 110.7356,63.7864 102.6186,70.8684 C94.5026,77.9504 80.3276,74.9854 70.9566,64.2464 C61.5856,53.5074 60.5686,39.0604 68.6846,31.9784 C76.8016,24.8964 90.9766,27.8614 100.3476,38.6004 Z" id="Stroke-131" stroke="#221F20" stroke-width="2" stroke-linejoin="round"></path>
            <path d="M72.2123,65.5809 C73.9443,67.7139 78.3293,69.7359 84.2253,73.3999 L103.3073,60.4189 C102.6143,53.9069 101.1873,50.5889 99.5403,47.4529" id="Fill-133" fill="#DB6C26"></path>
            <path d="M96.3925,41.8581 C104.5325,51.1871 105.4165,63.7371 98.3655,69.8891 C91.3155,76.0411 79.0005,73.4651 70.8605,64.1361 C62.7205,54.8081 61.8375,42.2581 68.8875,36.1061 C75.9375,29.9541 88.2525,32.5291 96.3925,41.8581 Z" id="Stroke-135" stroke="#221F20" stroke-width="2" stroke-linejoin="round"></path>
            <g id="Group-140" transform="translate(65.000000, 65.862000)">
                <path d="M23.4484,0.9494 L23.4304,5.6204 C23.7764,7.4184 21.7524,8.9034 19.7284,9.4674 C13.7874,11.1234 10.2964,10.0444 1.7864,10.4234 C1.1854,10.4504 0.7064,9.8474 0.5234,9.3574 L0.5414,4.6864" id="Fill-137" fill="#4EA4C5"></path>
                <path d="M23.4484,0.9494 L23.4304,5.6204 C23.7764,7.4184 21.7524,8.9034 19.7284,9.4674 C13.7874,11.1234 10.2964,10.0444 1.7864,10.4234 C1.1854,10.4504 0.7064,9.8474 0.5234,9.3574 L0.5414,4.6864" id="Stroke-139" stroke="#221F20" stroke-width="2" stroke-linejoin="round"></path>
            </g>
            <path d="M79.641,63.278 C82.026,63.25 84.467,63.174 86.398,64.391 C87.363,64.998 88.256,65.81 88.448,66.811 C88.795,68.609 86.771,70.094 84.747,70.659 C78.806,72.315 75.315,71.235 66.805,71.614 C66.203,71.641 65.725,71.039 65.541,70.548 C65.378,70.112 65.56,69.646 65.745,69.221 C66.536,67.403 67.707,60.599 69.323,59.238 C70.939,57.877 73.409,57.084 75.582,57.741 C77.756,58.397 79.109,61.557 77.888,63.189 L79.641,63.278 Z" id="Fill-141" fill="#B8E5FA"></path>
            <path d="M79.641,63.278 C82.026,63.25 84.467,63.174 86.398,64.391 C87.363,64.998 88.256,65.81 88.448,66.811 C88.795,68.609 86.771,70.094 84.747,70.659 C78.806,72.315 75.315,71.235 66.805,71.614 C66.203,71.641 65.725,71.039 65.541,70.548 C65.378,70.112 65.56,69.646 65.745,69.221 C66.536,67.403 67.707,60.599 69.323,59.238 C70.939,57.877 73.409,57.084 75.582,57.741 C77.756,58.397 79.109,61.557 77.888,63.189 L79.641,63.278 Z" id="Stroke-143" stroke="#221F20" stroke-width="2" stroke-linejoin="round"></path>
            <path d="M100.5952,48.0735 C99.8832,46.9775 99.2572,45.8295 98.5702,44.7195 C98.0372,44.1525 97.5752,43.5245 97.1862,42.8495 C97.0802,42.7385 96.9932,42.6125 96.8932,42.4975 C96.5702,42.1815 96.2722,41.8425 95.9942,41.4865 C95.4532,40.9795 94.9522,40.4305 94.5362,39.8145 C94.2512,39.5495 93.9642,39.2855 93.6752,39.0245 L86.1702,38.3585 L86.8782,44.1945 C86.7742,46.4785 89.1442,48.1175 91.3782,48.6045 C95.0192,49.3995 97.7392,49.2205 100.9912,48.8295 C100.9872,48.8185 100.9852,48.8075 100.9822,48.7955 C100.8432,48.5605 100.7142,48.3205 100.5952,48.0735" id="Fill-145" fill="#AA437D"></path>
            <path d="M100.5952,48.0735 C99.8832,46.9775 99.2572,45.8295 98.5702,44.7195 C98.0372,44.1525 97.5752,43.5245 97.1862,42.8495 C97.0802,42.7385 96.9932,42.6125 96.8932,42.4975 C96.5702,42.1815 96.2722,41.8425 95.9942,41.4865 C95.4532,40.9795 94.9522,40.4305 94.5362,39.8145 C94.2512,39.5495 93.9642,39.2855 93.6752,39.0245 L86.1702,38.3585 L86.8782,44.1945 C86.7742,46.4785 89.1442,48.1175 91.3782,48.6045 C95.0192,49.3995 97.7392,49.2205 100.9912,48.8295 C100.9872,48.8185 100.9852,48.8075 100.9822,48.7955 C100.8432,48.5605 100.7142,48.3205 100.5952,48.0735 Z" id="Stroke-147" stroke="#221F20" stroke-width="2" stroke-linejoin="round"></path>
            <path d="M96.8918,42.4958 C96.5698,42.1818 96.2738,41.8438 95.9958,41.4898 C95.4568,40.9838 94.9578,40.4378 94.5418,39.8248 C93.8728,39.1978 93.1928,38.5818 92.5008,37.9758 C92.3548,37.8488 92.1768,37.7068 92.0388,37.5988 C91.5948,37.2768 91.1468,36.9578 90.6888,36.6548 C90.4328,36.4838 90.1668,36.3308 89.9028,36.1738 C89.3708,35.9938 88.8568,35.7728 88.3668,35.5078 C88.1648,35.4538 87.9598,35.4078 87.7628,35.3388 C86.9258,36.1678 86.2228,37.1928 86.1698,38.3588 C86.0668,40.6428 88.4368,42.2818 90.6708,42.7688 C93.2048,43.3228 95.2958,43.3948 97.4278,43.2608 C97.3398,43.1248 97.2598,42.9838 97.1798,42.8428 C97.0768,42.7338 96.9908,42.6098 96.8918,42.4958" id="Fill-149" fill="#E592BE"></path>
            <path d="M96.8918,42.4958 C96.5698,42.1818 96.2738,41.8438 95.9958,41.4898 C95.4568,40.9838 94.9578,40.4378 94.5418,39.8248 C93.8728,39.1978 93.1928,38.5818 92.5008,37.9758 C92.3548,37.8488 92.1768,37.7068 92.0388,37.5988 C91.5948,37.2768 91.1468,36.9578 90.6888,36.6548 C90.4328,36.4838 90.1668,36.3308 89.9028,36.1738 C89.3708,35.9938 88.8568,35.7728 88.3668,35.5078 C88.1648,35.4538 87.9598,35.4078 87.7628,35.3388 C86.9258,36.1678 86.2228,37.1928 86.1698,38.3588 C86.0668,40.6428 88.4368,42.2818 90.6708,42.7688 C93.2048,43.3228 95.2958,43.3948 97.4278,43.2608 C97.3398,43.1248 97.2598,42.9838 97.1798,42.8428 C97.0768,42.7338 96.9908,42.6098 96.8918,42.4958 Z" id="Stroke-151" stroke="#221F20" stroke-width="2" stroke-linejoin="round"></path>
        </g>
    </g>
</svg>
