<?xml version="1.0" encoding="UTF-8" standalone="no"?>
<svg width="142px" height="169px" viewBox="0 0 142 169" version="1.1" xmlns="http://www.w3.org/2000/svg" xmlns:xlink="http://www.w3.org/1999/xlink">
    <!-- Generator: Sketch 42 (36781) - http://www.bohemiancoding.com/sketch -->
    <title>Page 1</title>
    <desc>Created with Sketch.</desc>
    <defs>
        <polygon id="path-1" points="19.339 0.9916 19.339 14.7086 0.3452 14.7086 0.3452 0.9916 19.339 0.9916"></polygon>
        <polygon id="path-3" points="0 14.2414 0 0.5244 18.9937 0.5244 18.9937 14.2414 7.56502066e-16 14.2414"></polygon>
    </defs>
    <g id="Page-1" stroke="none" stroke-width="1" fill="none" fill-rule="evenodd">
        <g>
            <path d="M112.2261,101.9344 C116.1261,101.9344 119.2881,105.0964 119.2881,108.9964 C119.2881,110.7304 116.1261,112.1354 112.2261,112.1354 C108.3251,112.1354 105.1641,110.7304 105.1641,108.9964 C105.1641,105.0964 108.3251,101.9344 112.2261,101.9344" id="Fill-1" fill="#BBBBBB"></path>
            <path d="M88.0909,97.991 C101.9699,97.991 113.2219,109.242 113.2219,123.122 C113.2219,129.29 101.9699,134.29 88.0909,134.29 C74.2119,134.29 62.9599,129.29 62.9599,123.122 C62.9599,109.242 74.2119,97.991 88.0909,97.991" id="Fill-3" fill="#F3F4F4"></path>
            <path d="M116.7693,117.4638 C125.0943,117.4638 131.8423,124.2118 131.8423,132.5368 C131.8423,136.2368 125.0943,139.2358 116.7693,139.2358 C108.4443,139.2358 101.6963,136.2368 101.6963,132.5368 C101.6963,124.2118 108.4443,117.4638 116.7693,117.4638" id="Fill-5" fill="#E5E4E4"></path>
            <g id="Group-9" transform="translate(122.000000, 132.004000)">
                <mask id="mask-2" fill="white">
                    <use xlink:href="#path-1"></use>
                </mask>
                <g id="Clip-8"></g>
                <path d="M9.8422,0.9916 C15.0872,0.9916 19.3392,5.2436 19.3392,10.4886 C19.3392,12.8196 15.0872,14.7086 9.8422,14.7086 C4.5972,14.7086 0.3452,12.8196 0.3452,10.4886 C0.3452,5.2436 4.5972,0.9916 9.8422,0.9916" id="Fill-7" fill="#E5E4E4" mask="url(#mask-2)"></path>
            </g>
            <path d="M33.6176,100.2883 C39.2296,100.2883 43.7786,104.8373 43.7786,110.4493 C43.7786,112.9423 39.2296,114.9643 33.6176,114.9643 C28.0056,114.9643 23.4566,112.9423 23.4566,110.4493 C23.4566,104.8373 28.0056,100.2883 33.6176,100.2883" id="Fill-10" fill="#BBBBBB"></path>
            <path d="M42.2935,110.307 C53.1705,110.307 61.9875,119.124 61.9875,130.001 C61.9875,134.835 53.1705,138.753 42.2935,138.753 C31.4165,138.753 22.5995,134.835 22.5995,130.001 C22.5995,119.124 31.4165,110.307 42.2935,110.307" id="Fill-12" fill="#F3F4F4"></path>
            <path d="M20.344,100.4427 C23.742,100.4427 26.496,103.1967 26.496,106.5947 C26.496,108.1047 23.742,109.3287 20.344,109.3287 C16.946,109.3287 14.192,108.1047 14.192,106.5947 C14.192,103.1967 16.946,100.4427 20.344,100.4427" id="Fill-14" fill="#BBBBBB"></path>
            <polygon id="Fill-16" fill="#FEFEFE" points="60.4253 136.5761 40.9683 136.5761 50.4673 74.0411"></polygon>
            <polygon id="Stroke-18" stroke="#FDC10E" stroke-width="2" stroke-linecap="round" stroke-linejoin="round" points="60.4253 136.5761 40.9683 136.5761 50.4673 74.0411"></polygon>
            <polygon id="Fill-20" fill="#FEFEFE" points="85.2691 135.0845 52.4901 135.0845 68.4931 61.3915"></polygon>
            <polygon id="Stroke-22" stroke="#FDC10E" stroke-width="2" stroke-linecap="round" stroke-linejoin="round" points="85.2691 135.0845 52.4901 135.0845 68.4931 61.3915"></polygon>
            <polygon id="Fill-24" fill="#FEFEFE" points="94.0808 148.3453 74.6238 148.3453 84.1228 85.8103"></polygon>
            <polygon id="Stroke-26" stroke="#FDC10E" stroke-width="2" stroke-linecap="round" stroke-linejoin="round" points="94.0808 148.3453 74.6238 148.3453 84.1228 85.8103"></polygon>
            <path d="M60.8428,101.596 C60.8428,103.595 57.1958,105.216 52.6968,105.216 C48.1988,105.216 44.5518,103.595 44.5518,101.596 C44.5518,99.597 48.1988,97.976 52.6968,97.976 C57.1958,97.976 60.8428,99.597 60.8428,101.596" id="Fill-28" fill="#44C7F3"></path>
            <path d="M60.8428,101.596 C60.8428,103.595 57.1958,105.216 52.6968,105.216 C48.1988,105.216 44.5518,103.595 44.5518,101.596 C44.5518,99.597 48.1988,97.976 52.6968,97.976 C57.1958,97.976 60.8428,99.597 60.8428,101.596 Z" id="Stroke-30" stroke="#221F20" stroke-width="2" stroke-linecap="round" stroke-linejoin="round"></path>
            <path d="M59.3576,99.3737 L59.3576,42.4187 C59.3576,40.7217 58.9776,39.0427 58.2406,37.4847 L54.0416,28.6057 C53.5316,27.5277 51.8626,27.5277 51.3526,28.6057 L47.1536,37.4847 C46.4166,39.0427 46.0366,40.7217 46.0366,42.4187 L46.0366,99.3737 C46.0366,99.3757 46.0356,99.3767 46.0356,99.3787 C46.0356,99.3797 46.0366,99.3817 46.0366,99.3827 C46.0426,101.0157 49.0216,102.3387 52.6966,102.3387 C56.3726,102.3387 59.3516,101.0157 59.3576,99.3827 C59.3576,99.3817 59.3586,99.3797 59.3586,99.3787 C59.3586,99.3767 59.3576,99.3757 59.3576,99.3737" id="Fill-32" fill="#44C7F3"></path>
            <path d="M59.3576,99.3737 L59.3576,42.4187 C59.3576,40.7217 58.9776,39.0427 58.2406,37.4847 L54.0416,28.6057 C53.5316,27.5277 51.8626,27.5277 51.3526,28.6057 L47.1536,37.4847 C46.4166,39.0427 46.0366,40.7217 46.0366,42.4187 L46.0366,99.3737 C46.0366,99.3757 46.0356,99.3767 46.0356,99.3787 C46.0356,99.3797 46.0366,99.3817 46.0366,99.3827 C46.0426,101.0157 49.0216,102.3387 52.6966,102.3387 C56.3726,102.3387 59.3516,101.0157 59.3576,99.3827 C59.3576,99.3817 59.3586,99.3797 59.3586,99.3787 C59.3586,99.3767 59.3576,99.3757 59.3576,99.3737 Z" id="Stroke-34" stroke="#221F20" stroke-width="2" stroke-linecap="round" stroke-linejoin="round"></path>
            <g id="Group-39" transform="translate(46.000000, 41.004000)">
                <path d="M13.3581,0.4732 C13.3581,2.1082 10.3761,3.4332 6.6971,3.4332 C3.0181,3.4332 0.0361,2.1082 0.0361,0.4732" id="Fill-36" fill="#44C7F3"></path>
                <path d="M13.3581,0.4732 C13.3581,2.1082 10.3761,3.4332 6.6971,3.4332 C3.0181,3.4332 0.0361,2.1082 0.0361,0.4732" id="Stroke-38" stroke="#221F20" stroke-width="2" stroke-linecap="round" stroke-linejoin="round"></path>
            </g>
            <path d="M59.3581,55.1992 C59.3581,56.8342 56.3761,58.1592 52.6971,58.1592 C49.0181,58.1592 46.0361,56.8342 46.0361,55.1992" id="Stroke-40" stroke="#221F20" stroke-width="2" stroke-linecap="round" stroke-linejoin="round"></path>
            <path d="M59.3581,69.7265 C59.3581,71.3615 56.3761,72.6865 52.6971,72.6865 C49.0181,72.6865 46.0361,71.3615 46.0361,69.7265" id="Stroke-42" stroke="#221F20" stroke-width="2" stroke-linecap="round" stroke-linejoin="round"></path>
            <path d="M82.3456,82.3988 L82.3456,21.4578 C82.3456,19.2008 81.5776,16.9678 80.0886,14.8968 L70.8156,1.9998 C69.9366,0.7778 67.8226,0.7778 66.9436,1.9998 L57.6716,14.8968 C56.1826,16.9678 55.4136,19.2008 55.4136,21.4578 L55.4136,82.3988 C55.4136,82.4008 55.4126,82.4028 55.4126,82.4048 C55.4126,82.4068 55.4136,82.4088 55.4136,82.4108 C55.4256,84.5828 61.4496,86.3418 68.8796,86.3418 C76.3106,86.3418 82.3336,84.5828 82.3456,82.4108 C82.3456,82.4088 82.3466,82.4068 82.3466,82.4048 C82.3466,82.4028 82.3456,82.4008 82.3456,82.3988" id="Fill-44" fill="#DB1F26"></path>
            <path d="M82.3456,82.3988 L82.3456,21.4578 C82.3456,19.2008 81.5776,16.9678 80.0886,14.8968 L70.8156,1.9998 C69.9366,0.7778 67.8226,0.7778 66.9436,1.9998 L57.6716,14.8968 C56.1826,16.9678 55.4136,19.2008 55.4136,21.4578 L55.4136,82.3988 C55.4136,82.4008 55.4126,82.4028 55.4126,82.4048 C55.4126,82.4068 55.4136,82.4088 55.4136,82.4108 C55.4256,84.5828 61.4496,86.3418 68.8796,86.3418 C76.3106,86.3418 82.3336,84.5828 82.3456,82.4108 C82.3456,82.4088 82.3466,82.4068 82.3466,82.4048 C82.3466,82.4028 82.3456,82.4008 82.3456,82.3988 Z" id="Stroke-46" stroke="#221F20" stroke-width="2" stroke-linecap="round" stroke-linejoin="round"></path>
            <g id="Group-51" transform="translate(55.000000, 20.004000)">
                <path d="M27.3466,0.202 C27.3466,2.376 21.3176,4.139 13.8796,4.139 C6.4426,4.139 0.4126,2.376 0.4126,0.202" id="Fill-48" fill="#DB1F26"></path>
                <path d="M27.3466,0.202 C27.3466,2.376 21.3176,4.139 13.8796,4.139 C6.4426,4.139 0.4126,2.376 0.4126,0.202" id="Stroke-50" stroke="#221F20" stroke-width="2" stroke-linecap="round" stroke-linejoin="round"></path>
            </g>
            <g id="Group-55" transform="translate(55.000000, 38.004000)">
                <path d="M27.3466,0.4521 C27.3466,2.6261 21.3176,4.3891 13.8796,4.3891 C6.4426,4.3891 0.4126,2.6261 0.4126,0.4521" id="Fill-52" fill="#DB1F26"></path>
                <path d="M27.3466,0.4521 C27.3466,2.6261 21.3176,4.3891 13.8796,4.3891 C6.4426,4.3891 0.4126,2.6261 0.4126,0.4521" id="Stroke-54" stroke="#221F20" stroke-width="2" stroke-linecap="round" stroke-linejoin="round"></path>
            </g>
            <path d="M82.3456,82.4112 C82.3456,82.4092 82.3466,82.4072 82.3466,82.4052 C82.3466,82.4032 82.0016,17.9642 82.0016,17.9642 L68.8156,0.0002 L76.2216,24.1432 L76.2216,81.7142 L76.2216,86.5552 L82.3466,82.4032" id="shadow-4" opacity="0.4" fill="#231F20"></path>
            <path d="M92.4982,112.9049 C92.4982,114.9039 88.8512,116.5249 84.3522,116.5249 C79.8542,116.5249 76.2072,114.9039 76.2072,112.9049 C76.2072,110.9059 79.8542,109.2849 84.3522,109.2849 C88.8512,109.2849 92.4982,110.9059 92.4982,112.9049" id="Fill-58" fill="#44C7F3"></path>
            <path d="M92.4982,112.9049 C92.4982,114.9039 88.8512,116.5249 84.3522,116.5249 C79.8542,116.5249 76.2072,114.9039 76.2072,112.9049 C76.2072,110.9059 79.8542,109.2849 84.3522,109.2849 C88.8512,109.2849 92.4982,110.9059 92.4982,112.9049 Z" id="Stroke-60" stroke="#221F20" stroke-width="2" stroke-linecap="round" stroke-linejoin="round"></path>
            <path d="M87.9347,109.6574 C88.2427,110.8004 88.4237,111.9884 88.4237,113.2134 C88.4237,114.2044 88.3107,115.1754 88.1037,116.1164 C90.7137,115.5124 92.4977,114.3024 92.4977,112.9044 C92.4977,111.4774 90.6347,110.2474 87.9347,109.6574" id="shadow-3" opacity="0.4" fill="#231F20"></path>
            <path d="M91.013,110.6827 L91.013,53.7277 C91.013,52.0307 90.633,50.3517 89.896,48.7937 L85.697,39.9147 C85.187,38.8367 83.518,38.8367 83.008,39.9147 L78.809,48.7937 C78.072,50.3517 77.692,52.0307 77.692,53.7277 L77.692,110.6827 C77.692,110.6847 77.691,110.6857 77.691,110.6877 C77.691,110.6887 77.692,110.6907 77.692,110.6917 C77.698,112.3247 80.677,113.6477 84.352,113.6477 C88.028,113.6477 91.007,112.3247 91.013,110.6917 C91.013,110.6907 91.014,110.6887 91.014,110.6877 C91.014,110.6857 91.013,110.6847 91.013,110.6827" id="Fill-64" fill="#44C7F3"></path>
            <path d="M91.013,110.6827 L91.013,53.7277 C91.013,52.0307 90.633,50.3517 89.896,48.7937 L85.697,39.9147 C85.187,38.8367 83.518,38.8367 83.008,39.9147 L78.809,48.7937 C78.072,50.3517 77.692,52.0307 77.692,53.7277 L77.692,110.6827 C77.692,110.6847 77.691,110.6857 77.691,110.6877 C77.691,110.6887 77.692,110.6907 77.692,110.6917 C77.698,112.3247 80.677,113.6477 84.352,113.6477 C88.028,113.6477 91.007,112.3247 91.013,110.6917 C91.013,110.6907 91.014,110.6887 91.014,110.6877 C91.014,110.6857 91.013,110.6847 91.013,110.6827 Z" id="Stroke-66" stroke="#221F20" stroke-width="2" stroke-linecap="round" stroke-linejoin="round"></path>
            <path d="M87.6099,55.5299 L87.3529,113.6479 C86.7669,113.6479 87.0779,113.4519 88.1559,113.1179 C89.8799,112.5839 91.0099,111.6969 91.0129,110.6919 C91.0129,110.6909 91.0139,110.6889 91.0139,110.6869 C91.0139,110.6859 91.0129,110.6839 91.0129,110.6829 L91.0129,53.7279 L84.3529,38.4559 L87.6099,55.5299 Z" id="shadow-2" opacity="0.4" fill="#231F20"></path>
            <path d="M77.6915,52.7862 C77.6915,54.4212 80.6735,55.7462 84.3525,55.7462 C88.0315,55.7462 91.0135,54.4212 91.0135,52.7862" id="Stroke-70" stroke="#221F20" stroke-width="2" stroke-linecap="round" stroke-linejoin="round"></path>
            <path d="M91.0135,66.5082 C91.0135,68.1432 88.0315,69.4682 84.3525,69.4682 C80.6735,69.4682 77.6915,68.1432 77.6915,66.5082" id="Stroke-72" stroke="#221F20" stroke-width="2" stroke-linecap="round" stroke-linejoin="round"></path>
            <path d="M91.0135,81.0355 C91.0135,82.6705 88.0315,83.9955 84.3525,83.9955 C80.6735,83.9955 77.6915,82.6705 77.6915,81.0355" id="Stroke-74" stroke="#221F20" stroke-width="2" stroke-linecap="round" stroke-linejoin="round"></path>
            <path d="M50.8205,97.4498 L50.8205,97.4538 L50.8205,97.4568 C50.8245,98.7108 52.9205,99.7258 55.5065,99.7258 C58.0925,99.7258 60.1885,98.7108 60.1925,97.4568 C60.1925,97.4558 60.1935,97.4548 60.1935,97.4538 C60.1935,97.4518 60.1925,97.4508 60.1925,97.4498 L60.1935,97.4568 L60.1935,82.2678 C60.1935,83.5238 58.0945,84.5408 55.5065,84.5408 C52.9185,84.5408 50.8205,83.5238 50.8205,82.2678 L50.8205,97.4568 L50.8205,97.4498 Z" id="Fill-76" fill="#FEFEFE"></path>
            <path d="M50.8205,97.4498 L50.8205,97.4538 L50.8205,97.4568 C50.8245,98.7108 52.9205,99.7258 55.5065,99.7258 C58.0925,99.7258 60.1885,98.7108 60.1925,97.4568 C60.1925,97.4558 60.1935,97.4548 60.1935,97.4538 C60.1935,97.4518 60.1925,97.4508 60.1925,97.4498 L60.1935,97.4568 L60.1935,82.2678 C60.1935,83.5238 58.0945,84.5408 55.5065,84.5408 C52.9185,84.5408 50.8205,83.5238 50.8205,82.2678 L50.8205,97.4568 L50.8205,97.4498 Z" id="Stroke-78" stroke="#221F20" stroke-width="2" stroke-linecap="round" stroke-linejoin="round"></path>
            <path d="M58.6436,100.0727 L58.6436,100.0767 L58.6436,100.0807 C58.6476,101.4327 60.9096,102.5287 63.6996,102.5287 C66.4886,102.5287 68.7506,101.4327 68.7546,100.0807 C68.7546,100.0787 68.7556,100.0777 68.7556,100.0767 C68.7556,100.0757 68.7546,100.0737 68.7546,100.0727 L68.7556,100.0807 L68.7556,83.6947 C68.7556,85.0487 66.4916,86.1457 63.6996,86.1457 C60.9066,86.1457 58.6436,85.0487 58.6436,83.6947 L58.6436,100.0807 L58.6436,100.0727 Z" id="Fill-80" fill="#FEFEFE"></path>
            <path d="M58.6436,100.0727 L58.6436,100.0767 L58.6436,100.0807 C58.6476,101.4327 60.9096,102.5287 63.6996,102.5287 C66.4886,102.5287 68.7506,101.4327 68.7546,100.0807 C68.7546,100.0787 68.7556,100.0777 68.7556,100.0767 C68.7556,100.0757 68.7546,100.0737 68.7546,100.0727 L68.7556,100.0807 L68.7556,83.6947 C68.7556,85.0487 66.4916,86.1457 63.6996,86.1457 C60.9066,86.1457 58.6436,85.0487 58.6436,83.6947 L58.6436,100.0807 L58.6436,100.0727 Z" id="Stroke-82" stroke="#221F20" stroke-width="2" stroke-linecap="round" stroke-linejoin="round"></path>
            <path d="M59.3627,92.3726 L44.4567,86.6816 C43.9597,86.5036 43.8267,85.8626 44.2127,85.5026 L46.7287,79.9956 C46.7287,79.9956 55.3627,74.0996 55.3687,74.0616 L58.3187,54.0566 C58.4657,53.0926 59.8867,53.2016 59.8867,56.5336 L59.8867,93.9876 C59.8867,91.9636 59.6767,92.2606 59.3627,92.3726" id="Fill-84" fill="#5B5B5B"></path>
            <path d="M59.3627,92.3726 L44.4567,86.6816 C43.9597,86.5036 43.8267,85.8626 44.2127,85.5026 L46.7287,79.9956 C46.7287,79.9956 55.3627,74.0996 55.3687,74.0616 L58.3187,54.0566 C58.4657,53.0926 59.8867,53.2016 59.8867,56.5336 L59.8867,93.9876 C59.8867,91.9636 59.6767,92.2606 59.3627,92.3726 Z" id="Stroke-86" stroke="#221F20" stroke-width="2" stroke-linecap="round" stroke-linejoin="round"></path>
            <polygon id="Fill-88" fill="#FEFEFE" points="43.5334 86.2137 59.5734 92.0727 59.5734 85.4407 45.2584 83.2137"></polygon>
            <polygon id="Stroke-90" stroke="#221F20" stroke-width="2" stroke-linecap="round" stroke-linejoin="round" points="43.5334 86.2137 59.5734 92.0727 59.5734 85.4407 45.2584 83.2137"></polygon>
            <path d="M72.4439,90.0435 C72.4439,90.0415 72.4429,48.7875 72.4429,48.7875 C72.4429,46.6315 71.8349,44.4975 70.6559,42.5185 L66.1369,34.9355 C66.1379,34.9165 66.1419,34.8985 66.1419,34.8795 L65.9229,34.5755 L63.3129,30.1955 C62.6169,29.0275 60.9429,29.0275 60.2469,30.1955 L57.5899,34.6555 L57.4179,34.8795 C57.4179,34.8955 57.4259,34.9115 57.4279,34.9275 L52.9049,42.5185 C51.7249,44.4975 51.1169,46.6315 51.1169,48.7875 L50.8789,91.2105 C50.8409,93.2705 54.0719,95.6755 58.4549,96.7465 C62.5469,97.7475 67.3389,97.5375 68.5629,95.9655 L72.4429,97.0085 C72.4439,94.4745 72.4439,90.0445 72.4439,90.0435" id="Fill-92" fill="#FEFEFE"></path>
            <path d="M72.4439,90.0435 C72.4439,90.0415 72.4429,48.7875 72.4429,48.7875 C72.4429,46.6315 71.8349,44.4975 70.6559,42.5185 L66.1369,34.9355 C66.1379,34.9165 66.1419,34.8985 66.1419,34.8795 L65.9229,34.5755 L63.3129,30.1955 C62.6169,29.0275 60.9429,29.0275 60.2469,30.1955 L57.5899,34.6555 L57.4179,34.8795 C57.4179,34.8955 57.4259,34.9115 57.4279,34.9275 L52.9049,42.5185 C51.7249,44.4975 51.1169,46.6315 51.1169,48.7875 L50.8789,91.2105 C50.8409,93.2705 54.0719,95.6755 58.4549,96.7465 C62.5469,97.7475 67.3389,97.5375 68.5629,95.9655 L72.4429,97.0085 C72.4439,94.4745 72.4439,90.0445 72.4439,90.0435 Z" id="Stroke-94" stroke="#221F20" stroke-width="2" stroke-linecap="round" stroke-linejoin="round"></path>
            <path d="M65.996,34.8798 L65.777,34.5758 L63.167,30.1958 C62.471,29.0278 60.797,29.0278 60.101,30.1958 L57.444,34.6548 L57.272,34.8798 C57.272,34.8958 57.28,34.9118 57.282,34.9278 L58.006,34.9278 C58.604,35.5558 60.003,35.9968 61.634,35.9968 C63.259,35.9968 64.653,35.5588 65.255,34.9348 L65.991,34.9348 C65.992,34.9168 65.996,34.8988 65.996,34.8798" id="Fill-96" fill="#221F20"></path>
            <path d="M68.2508,96.1795 C69.0508,95.9845 69.6708,96.4685 69.9768,95.6825 L72.4438,97.0085 L72.4438,90.0435 L72.4438,48.7875 C72.4438,46.6305 72.1398,44.4975 71.5498,42.5185 L68.5738,38.5295 L63.1638,30.1955 L60.2468,30.1955 L65.6628,41.0525 C67.2258,44.2295 68.0448,47.7205 68.0598,51.2605 L68.2508,95.1795" id="shadow-1" opacity="0.4" fill="#231F20"></path>
            <path d="M69.279,96.0687 L84.628,101.6437 C85.301,101.8837 85.921,101.1767 85.595,100.5407 L81.692,87.9757 C81.692,87.9757 75.58,79.2097 75.575,79.1727 L70.323,56.8097 C70.176,55.8457 68.755,55.9537 68.755,56.9287 L68.755,95.3257 C68.755,95.6597 68.965,95.9567 69.279,96.0687" id="Fill-100" fill="#BBBBBB"></path>
            <path d="M69.279,96.0687 L84.628,101.6437 C85.301,101.8837 85.921,101.1767 85.595,100.5407 L81.692,87.9757 C81.692,87.9757 75.58,79.2097 75.575,79.1727 L70.323,56.8097 C70.176,55.8457 68.755,55.9537 68.755,56.9287 L68.755,95.3257 C68.755,95.6597 68.965,95.9567 69.279,96.0687 Z" id="Stroke-102" stroke="#221F20" stroke-width="2" stroke-linecap="round" stroke-linejoin="round"></path>
            <path d="M56.4537,45.5274 L54.4547,45.6924 C53.7577,45.8014 53.0917,45.3654 52.9147,44.6824 L52.6987,43.8544 C52.4947,43.0684 53.0127,42.2784 53.8147,42.1534 L55.8137,41.9884 C56.5107,41.8794 57.1767,42.3164 57.3537,42.9984 L57.5697,43.8264 C57.7737,44.6124 57.2557,45.4024 56.4537,45.5274" id="Fill-104" fill="#221F20"></path>
            <path d="M59.3824,46.0388 L62.1524,47.2068 C62.7784,47.5318 63.5484,47.3298 63.9334,46.7398 L64.4014,46.0228 C64.8454,45.3438 64.6064,44.4298 63.8864,44.0548 L61.1164,42.8878 C60.4904,42.5628 59.7204,42.7648 59.3344,43.3548 L58.8664,44.0718 C58.4234,44.7508 58.6624,45.6648 59.3824,46.0388" id="Fill-106" fill="#221F20"></path>
            <polygon id="Fill-108" fill="#FEFEFE" points="84.6281 101.6438 68.7551 95.3258 68.7551 88.6948 84.3871 97.3388 85.5941 100.5408"></polygon>
            <polygon id="Stroke-110" stroke="#221F20" stroke-width="2" stroke-linecap="round" stroke-linejoin="round" points="84.6281 101.6438 68.7551 95.3258 68.7551 88.6948 84.3871 97.3388 85.5941 100.5408"></polygon>
            <path d="M24.5696,119.2168 C16.2446,119.2168 9.4966,125.9648 9.4966,134.2898 C9.4966,137.9898 16.2446,140.9888 24.5696,140.9888 C32.8946,140.9888 39.6426,137.9898 39.6426,134.2898 C39.6426,125.9648 32.8946,119.2168 24.5696,119.2168" id="Fill-112" fill="#E5E4E4"></path>
            <g id="Group-116" transform="translate(0.000000, 130.004000)">
                <mask id="mask-4" fill="white">
                    <use xlink:href="#path-3"></use>
                </mask>
                <g id="Clip-115"></g>
                <path d="M9.4967,0.5244 C4.2517,0.5244 -0.0003,4.7764 -0.0003,10.0214 C-0.0003,12.3524 4.2517,14.2414 9.4967,14.2414 C14.7417,14.2414 18.9937,12.3524 18.9937,10.0214 C18.9937,4.7764 14.7417,0.5244 9.4967,0.5244" id="Fill-114" fill="#BBBBBB" mask="url(#mask-4)"></path>
            </g>
            <path d="M41.6425,132.9522 C37.1075,132.9522 33.4305,136.6282 33.4305,141.1642 C33.4305,143.1792 37.1075,144.8132 41.6425,144.8132 C46.1775,144.8132 49.8545,143.1792 49.8545,141.1642 C49.8545,136.6282 46.1775,132.9522 41.6425,132.9522" id="Fill-117" fill="#E5E4E4"></path>
            <path d="M106.7834,134.0552 C101.1724,134.0552 96.6224,138.6042 96.6224,144.2162 C96.6224,146.7092 101.1724,148.7312 106.7834,148.7312 C112.3954,148.7312 116.9444,146.7092 116.9444,144.2162 C116.9444,138.6042 112.3954,134.0552 106.7834,134.0552" id="Fill-119" fill="#F3F4F4"></path>
            <path d="M68.2968,122.2477 C55.1858,122.2477 44.5568,132.8767 44.5568,145.9877 C44.5568,151.8157 55.1858,156.5387 68.2968,156.5387 C81.4088,156.5387 92.0378,151.8157 92.0378,145.9877 C92.0378,132.8767 81.4088,122.2477 68.2968,122.2477" id="Fill-121" fill="#F3F4F4"></path>
            <path d="M36.4256,140.7892 C28.1006,140.7892 21.3526,147.5372 21.3526,155.8622 C21.3526,159.5622 28.1006,162.5612 36.4256,162.5612 C44.7506,162.5612 51.4986,159.5622 51.4986,155.8622 C51.4986,147.5372 44.7506,140.7892 36.4256,140.7892" id="Fill-123" fill="#F3F4F4"></path>
            <path d="M94.3562,140.4234 C85.0252,140.4234 77.4602,147.9884 77.4602,157.3194 C77.4602,161.4664 85.0252,164.8284 94.3562,164.8284 C103.6872,164.8284 111.2522,161.4664 111.2522,157.3194 C111.2522,147.9884 103.6872,140.4234 94.3562,140.4234" id="Fill-125" fill="#E5E4E4"></path>
            <path d="M94.3562,160.1178 C90.9582,160.1178 88.2042,162.8718 88.2042,166.2698 C88.2042,167.7798 90.9582,169.0038 94.3562,169.0038 C97.7542,169.0038 100.5082,167.7798 100.5082,166.2698 C100.5082,162.8718 97.7542,160.1178 94.3562,160.1178" id="Fill-127" fill="#BBBBBB"></path>
            <path d="M128.1171,142.8815 C124.7191,142.8815 121.9651,145.6355 121.9651,149.0335 C121.9651,150.5435 124.7191,151.7675 128.1171,151.7675 C131.5151,151.7675 134.2691,150.5435 134.2691,149.0335 C134.2691,145.6355 131.5151,142.8815 128.1171,142.8815" id="Fill-129" fill="#BBBBBB"></path>
            <polygon id="Fill-131" fill="#5B5B5B" points="56.1929 95.5325 51.4819 101.5355 56.1929 87.4335"></polygon>
            <polygon id="Stroke-133" stroke="#221F20" stroke-width="2" stroke-linecap="round" stroke-linejoin="round" points="56.1929 95.5325 51.4819 101.5355 56.1929 87.4335"></polygon>
            <polygon id="Fill-135" fill="#5B5B5B" points="57.5462 96.0169 52.8352 102.0199 57.5462 87.9179"></polygon>
            <polygon id="Stroke-137" stroke="#221F20" stroke-width="2" stroke-linecap="round" stroke-linejoin="round" points="57.5462 96.0169 52.8352 102.0199 57.5462 87.9179"></polygon>
            <polygon id="Fill-139" fill="#5B5B5B" points="57.5462 87.9184 56.1932 87.4344 51.4812 101.5354 52.8352 102.0204"></polygon>
            <polygon id="Stroke-141" stroke="#221F20" stroke-width="2" stroke-linecap="round" stroke-linejoin="round" points="57.5462 87.9184 56.1932 87.4344 51.4812 101.5354 52.8352 102.0204"></polygon>
        </g>
    </g>
</svg>
